<?xml version="1.0" standalone="no"?>
<!DOCTYPE svg PUBLIC "-//W3C//DTD SVG 1.1//EN" "http://www.w3.org/Graphics/SVG/1.1/DTD/svg11.dtd" >
<svg xmlns="http://www.w3.org/2000/svg">
<metadata></metadata>
<defs>
<font id="kessel_105book_oblique" horiz-adv-x="387" >
<font-face units-per-em="2048" ascent="1536" descent="-512" />
<missing-glyph horiz-adv-x="552" />
<glyph horiz-adv-x="2048" />
<glyph horiz-adv-x="2048" />
<glyph unicode="&#xd;" horiz-adv-x="2048" />
<glyph unicode=" "  horiz-adv-x="552" />
<glyph unicode="&#x09;" horiz-adv-x="552" />
<glyph unicode="&#xa0;" horiz-adv-x="552" />
<glyph unicode="!" horiz-adv-x="385" d="M96 86q5 44 39 75.5t78 31.5q42 0 69 -31.5t23 -75.5q-5 -41 -38 -71.5t-74 -30.5q-44 0 -73 30.5t-24 71.5zM178 350l105 1186h139l-146 -1186h-98z" />
<glyph unicode="&#x22;" horiz-adv-x="473" d="M102 1135v401h95v-401h-95zM276 1135v401h95v-401h-95z" />
<glyph unicode="#" horiz-adv-x="1269" d="M94 524l12 111h324l86 264h-381l10 113h406l162 524h114l-161 -524h262l162 524h114l-162 -524h291l-10 -113h-319l-86 -264h376l-12 -111h-397l-168 -524h-115l172 524h-264l-170 -524h-111l168 524h-303zM545 635h262l86 264h-264z" />
<glyph unicode="$" horiz-adv-x="1210" d="M94 133l94 115q168 -142 428 -142q104 0 197 40.5t152.5 111.5t68.5 154q10 99 -56.5 178t-178.5 112l-258 66q-146 39 -231 147.5t-72 243.5q17 155 147.5 270.5t312.5 137.5l11 102h143l-10 -100q220 -18 381 -135l-93 -115q-152 111 -374 111q-146 0 -256.5 -79 t-122.5 -192q-9 -88 51 -158t162 -98l248 -65q162 -42 255 -159t78 -267q-19 -168 -161 -294t-336 -149l-12 -114h-144l12 114q-257 18 -436 164z" />
<glyph unicode="%" horiz-adv-x="1226" d="M217 1290q12 117 102.5 199t206.5 82q130 0 205 -101q41 -61 123 -61q51 0 95.5 28.5t68.5 73.5l31 60l100 -45l-815 -1561l-98 43l673 1297q-52 -9 -67 -9q-21 0 -66 9v-15q-12 -115 -102.5 -196.5t-206.5 -81.5t-189 81.5t-61 196.5zM332 1290q-8 -69 35 -118.5 t112 -49.5t124.5 49.5t62.5 118.5q6 69 -38.5 118.5t-113.5 49.5t-122.5 -49.5t-59.5 -118.5zM610 244q12 117 102 197.5t206 80.5t189.5 -80.5t61.5 -197.5t-102.5 -198t-206.5 -81t-189 81t-61 198zM721 244q-7 -70 36.5 -119t112.5 -49t123.5 49t61.5 119t-36 119 t-112 49t-124 -49t-62 -119z" />
<glyph unicode="&#x26;" horiz-adv-x="1361" d="M133 487q15 153 109.5 280t234.5 191q-50 48 -74.5 117.5t-17.5 145.5q15 145 127.5 247.5t257.5 102.5q144 0 235 -102.5t76 -247.5t-127.5 -247t-257.5 -102q-159 0 -282 -112t-140 -273q-17 -158 83.5 -269.5t258.5 -111.5q160 0 284.5 111.5t141.5 269.5l29 281 q11 101 89 172.5t179 71.5h70l-14 -140h-70q-44 0 -78 -30.5t-39 -73.5l-55 -524q-4 -43 24 -73t72 -30h70l-14 -141h-70q-75 0 -133 42.5t-80 111.5q-81 -88 -191 -138.5t-229 -50.5q-142 0 -255.5 69.5t-171 190t-42.5 262.5zM524 1221q-9 -86 46 -147.5t141 -61.5 q88 0 156 61.5t77 147.5q9 88 -45.5 148.5t-142.5 60.5q-87 0 -155 -61t-77 -148z" />
<glyph unicode="'" horiz-adv-x="299" d="M102 1135v401h95v-401h-95z" />
<glyph unicode="(" horiz-adv-x="606" d="M225 588q28 262 117.5 518.5t226.5 464.5h140q-142 -195 -228.5 -451t-115.5 -532q-29 -270 5 -523t134 -450h-139q-93 209 -130.5 464t-9.5 509z" />
<glyph unicode=")" horiz-adv-x="606" d="M20 -385q142 196 229 449t116 524q29 273 -5 530t-135 453h140q95 -208 131 -464.5t8 -518.5q-28 -255 -118 -510t-226 -463h-140z" />
<glyph unicode="*" horiz-adv-x="776" d="M295 1257l141 68l-127 64l66 96l110 -82l11 147h108l-24 -147l133 82l45 -96l-137 -64l122 -68l-65 -96l-115 82l-6 -147h-108l20 147l-129 -82z" />
<glyph unicode="+" horiz-adv-x="1390" d="M102 524v138h525v524h139v-524h522v-138h-522v-524h-139v524h-525z" />
<glyph unicode="," horiz-adv-x="454" d="M78 -225l10 98h23q28 0 51 24t26 56l5 35q-6 -4 -19 -4q-44 0 -71.5 31t-22.5 75q5 43 38 74t77 31q43 0 70.5 -31t23.5 -74l-15 -137q-8 -74 -59 -126t-115 -52h-22z" />
<glyph unicode="-" horiz-adv-x="952" d="M197 524l14 138h666l-15 -138h-665z" />
<glyph unicode="." horiz-adv-x="454" d="M80 88q5 43 39 74t78 31q41 0 68.5 -31t23.5 -74t-38 -73.5t-75 -30.5q-44 0 -72.5 30.5t-23.5 73.5z" />
<glyph unicode="/" horiz-adv-x="999" d="M123 8l817 1563l96 -45l-813 -1561z" />
<glyph unicode="0" horiz-adv-x="1224" d="M156 471l61 592q14 138 94 255t204.5 185t262.5 68q137 0 246 -68t164 -185t41 -255l-62 -592q-15 -137 -94.5 -253.5t-202.5 -184.5t-260 -68q-138 0 -248 68t-165.5 184.5t-40.5 253.5zM297 471q-17 -152 79 -258.5t249 -106.5q151 0 269.5 106.5t135.5 258.5l62 592 q17 153 -79.5 260t-248.5 107t-270.5 -106.5t-135.5 -260.5z" />
<glyph unicode="1" horiz-adv-x="643" d="M227 1206l19 162l442 242l-168 -1610h-137l143 1368z" />
<glyph unicode="2" horiz-adv-x="1210" d="M102 0l854 774q125 112 140 270q17 160 -82.5 273t-259.5 113q-158 0 -281.5 -113t-140.5 -273q-15 -158 82 -270l-109 -98q-64 72 -94.5 166.5t-20.5 201.5q15 143 97.5 264.5t210.5 192t270 70.5q143 0 256.5 -70.5t170.5 -192t42 -264.5q-10 -104 -61.5 -200 t-131.5 -168l-591 -537h643l-15 -139h-979z" />
<glyph unicode="3" horiz-adv-x="1206" d="M129 487h141q-17 -159 82.5 -272t257.5 -113q159 0 283 113t141 272q15 160 -85 273.5t-259 113.5q-164 0 -280 -110l-88 98l591 537h-585l14 137h922l-578 -520h21q143 0 256 -71t170 -193t43 -265q-15 -141 -98 -261.5t-211 -190.5t-271 -70q-142 0 -255 70t-170 190.5 t-42 261.5z" />
<glyph unicode="4" horiz-adv-x="1202" d="M51 350l1032 1260l-116 -1123h245l-16 -137h-246l-35 -350h-139l35 350h-760zM340 489h489l72 685z" />
<glyph unicode="5" horiz-adv-x="1206" d="M127 485h141q-15 -158 85.5 -269.5t258.5 -111.5q159 0 284 111.5t140 269.5q17 161 -84 273t-260 112q-168 0 -291 -129l-135 25l215 770h654l-15 -139h-536l-125 -445q119 58 248 58q142 0 255 -70t170 -191t42 -264q-14 -141 -96.5 -261t-210 -189.5t-269.5 -69.5 q-143 0 -256.5 69.5t-171 189.5t-43.5 261z" />
<glyph unicode="6" horiz-adv-x="1210" d="M131 485q18 165 125 297l580 754h165l-413 -541q58 15 123 15q142 0 255 -70t170 -191t42 -264q-14 -141 -96.5 -261t-210 -189.5t-269.5 -69.5q-143 0 -256.5 69.5t-171 189.5t-43.5 261zM272 485q-15 -158 85.5 -269.5t258.5 -111.5q159 0 284 111.5t140 269.5 q17 161 -84 273t-260 112t-283 -112t-141 -273z" />
<glyph unicode="7" horiz-adv-x="1120" d="M199 1397l14 139h1022l-799 -1536h-153l727 1397h-811z" />
<glyph unicode="8" horiz-adv-x="1210" d="M133 487q17 162 108.5 284.5t233.5 189.5q-50 46 -74.5 115t-17.5 145q17 152 128 251t259 99q147 0 236.5 -99t72.5 -251q-8 -77 -45.5 -145.5t-97.5 -114.5q128 -67 194.5 -189.5t49.5 -284.5q-16 -149 -99 -269.5t-209 -186.5t-270 -66q-221 0 -357 148t-112 374z M272 487q-17 -158 84 -269.5t260 -111.5q158 0 282.5 111.5t141.5 269.5q17 161 -84 273t-260 112t-283 -112t-141 -273zM524 1221q-9 -87 45.5 -148t141.5 -61q86 0 154 61.5t77 147.5q9 88 -45.5 148.5t-140.5 60.5q-88 0 -155.5 -60.5t-76.5 -148.5z" />
<glyph unicode="9" horiz-adv-x="1210" d="M190 1051q11 106 63 202t129 166t178.5 111t207.5 41q143 0 256.5 -69.5t170.5 -189.5t42 -261q-14 -159 -123 -297l-579 -754h-166l413 541q-58 -15 -123 -15q-142 0 -255.5 70t-171 191t-42.5 264zM328 1051q-17 -160 85 -272.5t261 -112.5t282 112t140 273 q17 158 -83.5 269.5t-258.5 111.5q-159 0 -284 -111.5t-142 -269.5z" />
<glyph unicode=":" horiz-adv-x="454" d="M80 88q5 43 38.5 74t76.5 31t70.5 -31t23.5 -74t-38 -73.5t-77 -30.5t-70.5 30.5t-23.5 73.5zM186 1096q4 44 38 75t77 31t70.5 -31t23.5 -75q-5 -43 -39 -74t-77 -31t-70.5 31t-22.5 74z" />
<glyph unicode=";" horiz-adv-x="454" d="M78 -225l10 98h23q28 0 51 24t26 56l5 35q-6 -4 -19 -4q-44 0 -71.5 31t-22.5 75q5 43 38 74t77 31q43 0 70.5 -31t23.5 -74l-15 -137q-8 -74 -59 -126t-115 -52h-22zM186 1096q4 44 38 75t77 31t70.5 -31t23.5 -75q-5 -43 -39 -74t-77 -31t-70.5 31t-22.5 74z" />
<glyph unicode="&#x3c;" horiz-adv-x="862" d="M82 524v138l698 524v-174l-559 -418l559 -420v-174z" />
<glyph unicode="=" horiz-adv-x="1390" d="M102 352v137h1186v-137h-1186zM102 698v142h1186v-142h-1186z" />
<glyph unicode="&#x3e;" horiz-adv-x="862" d="M82 0v174l559 420l-559 418v174l698 -524v-138z" />
<glyph unicode="?" horiz-adv-x="1030" d="M207 1206q42 156 174.5 260.5t294.5 104.5q119 0 213.5 -58.5t142 -159.5t35.5 -220q-13 -117 -82 -217.5t-175.5 -160t-225.5 -59.5q-44 0 -78.5 -29.5t-38.5 -72.5q-5 -44 23.5 -75.5t72.5 -31.5q25 0 51 15l58 -119q-53 -33 -125 -33q-101 0 -164.5 71.5t-52.5 172.5 t89 172.5t179 71.5q122 0 218.5 87t109.5 208q12 124 -65 211.5t-199 87.5q-110 0 -201 -72t-119 -178zM414 88q5 44 38.5 75.5t77.5 31.5q42 0 69.5 -31.5t23.5 -75.5q-4 -43 -38 -73.5t-75 -30.5q-44 0 -72.5 30.5t-23.5 73.5z" />
<glyph unicode="@" horiz-adv-x="1789" d="M162 768q17 163 96.5 311.5t198 256t274 171.5t318.5 64t305 -64t238 -171.5t144 -256t31 -311.5l-22 -209q-11 -101 -89 -172.5t-179 -71.5q-75 0 -132 40t-79 106q-153 -146 -348 -146q-189 0 -307.5 132t-98.5 321t165.5 321t334.5 132q123 0 221 -60t147.5 -164.5 t36.5 -228.5l-22 -209q-4 -44 24 -75t72 -31q42 0 75.5 31t37.5 75l22 209q19 181 -53 333t-215 240.5t-324 88.5t-342.5 -88.5t-266.5 -240.5t-124 -333q-19 -180 53.5 -332.5t216 -241t324.5 -88.5q154 0 303 68l49 -125q-182 -84 -366 -84q-218 0 -392 108t-262 293 t-65 402zM651 768q-13 -130 69.5 -222.5t211.5 -92.5q131 0 233 92.5t115 222.5q14 129 -69.5 221t-213.5 92q-129 0 -231 -92t-115 -221z" />
<glyph unicode="A" horiz-adv-x="1388" d="M31 0l831 1610l496 -1610h-152l-110 350h-736l-178 -350h-151zM434 487h623l-234 756z" />
<glyph unicode="B" horiz-adv-x="1357" d="M123 0l160 1536h682q165 0 271 -118q91 -101 91 -238q0 -22 -2 -45q-11 -107 -74.5 -190.5t-146.5 -127.5q102 -41 166 -145q53 -86 54 -192q0 -22 -3 -44q-20 -182 -160 -309t-321 -127h-717zM279 141h575q122 0 217.5 86t108.5 209q2 16 2 32q0 102 -68 178 q-78 87 -199 87h-575zM354 872h541q107 0 192 77t97 186q2 15 2 29q0 90 -60 156q-69 78 -176 77h-540z" />
<glyph unicode="C" horiz-adv-x="1529" d="M152 768q23 217 150 402t323 293t413 108q162 0 303 -63.5t242 -174.5l-108 -98q-83 92 -200 143.5t-251 51.5q-135 0 -263 -52t-226 -141t-163 -211.5t-79 -257.5q-4 -38 -4 -74q0 -138 57 -259q72 -152 215 -240.5t324 -88.5q134 0 261.5 50.5t229.5 140.5l88 -98 q-124 -111 -277.5 -172.5t-316.5 -61.5t-305 64t-238 171.5t-144 255.5q-35 110 -35 228q0 41 4 84z" />
<glyph unicode="D" horiz-adv-x="1486" d="M123 0l160 1536h524q209 0 375 -103t250 -280q67 -140 68 -300q0 -42 -5 -85q-22 -209 -143.5 -385.5t-308.5 -279.5t-396 -103h-524zM279 141h383q171 0 324.5 84t252.5 228.5t117 314.5q4 35 4 70q0 131 -55 246q-69 145 -205 229t-307 84h-383z" />
<glyph unicode="E" horiz-adv-x="1312" d="M123 0l160 1536h1118l-15 -139h-976l-60 -559h836l-15 -142h-835l-57 -555h976l-14 -141h-1118z" />
<glyph unicode="F" horiz-adv-x="1234" d="M123 0l160 1536h1081l-14 -139h-942l-60 -559h803l-14 -142h-803l-72 -696h-139z" />
<glyph unicode="G" horiz-adv-x="1587" d="M152 768q23 217 150 402t323 293t413 108q162 0 303 -63.5t242 -174.5l-108 -98q-83 92 -200 143.5t-251 51.5q-135 0 -263 -52t-226 -141t-163 -211.5t-79 -257.5q-4 -38 -4 -74q0 -139 57 -259q72 -152 215 -240.5t324 -88.5q136 0 262.5 51.5t228.5 143.5l41 395h-471 l15 142h610l-62 -592q-127 -132 -293 -206.5t-346 -74.5q-163 0 -305 64t-238 171.5t-144 255.5q-35 110 -35 228q0 41 4 84z" />
<glyph unicode="H" horiz-adv-x="1431" d="M123 0l160 1536h141l-74 -698h905l74 698h139l-159 -1536h-140l72 696h-905l-72 -696h-141z" />
<glyph unicode="I" d="M123 0l160 1536h141l-160 -1536h-141z" />
<glyph unicode="J" horiz-adv-x="880" d="M49 88l109 98q74 -80 192 -80q114 0 203.5 81t101.5 198l121 1151h142l-121 -1151q-19 -173 -154.5 -296.5t-306.5 -123.5q-86 0 -160.5 32.5t-126.5 90.5z" />
<glyph unicode="K" horiz-adv-x="1370" d="M123 0l160 1536h141l-92 -879l971 879h196l-848 -768l688 -768h-196l-600 670l-232 -209l-47 -461h-141z" />
<glyph unicode="L" horiz-adv-x="1200" d="M123 0l160 1536h141l-145 -1397h905l-15 -139h-1046z" />
<glyph unicode="M" horiz-adv-x="1781" d="M123 0l168 1610l688 -768l848 768l-168 -1610h-139l133 1272l-695 -627l-561 627l-133 -1272h-141z" />
<glyph unicode="N" horiz-adv-x="1431" d="M123 0l168 1610l911 -1291l127 1217h139l-168 -1610l-909 1291l-127 -1217h-141z" />
<glyph unicode="O" horiz-adv-x="1748" d="M152 768q23 218 149.5 402.5t322.5 292.5t414 108q163 0 305 -64t238.5 -171.5t144.5 -255.5q35 -110 35 -228q0 -42 -4 -84q-23 -217 -150 -402t-323.5 -293t-413.5 -108q-163 0 -305.5 64t-238.5 171.5t-144 255.5q-35 109 -34 227q0 42 4 85zM291 768q-4 -37 -3 -74 q0 -138 56 -258q72 -152 216 -241t325 -89q135 0 263 52t226 141t163 211.5t79 257.5q4 38 4 74q0 138 -57 259q-72 152 -215 240.5t-324 88.5t-342.5 -88.5t-266.5 -240.5t-124 -333z" />
<glyph unicode="P" horiz-adv-x="1347" d="M123 0l160 1536h665q132 0 238 -66q104 -66 158 -178q42 -89 43 -191q0 -27 -3 -54q-11 -99 -59 -189t-120 -155.5t-166 -104.5t-193 -39h-524l-58 -559h-141zM336 696h524q145 0 257.5 103t127.5 248q2 21 2 41q1 120 -77 207q-90 102 -236 102h-524z" />
<glyph unicode="Q" horiz-adv-x="1753" d="M152 768q23 218 149.5 402.5t322.5 292.5t414 108q163 0 305 -64t238.5 -171.5t144.5 -255.5q35 -110 35 -228q0 -41 -4 -84q-30 -292 -244 -516l152 -168l-20 -188l-240 258q-246 -189 -535 -189q-163 0 -305.5 64t-238.5 171.5t-144 255.5q-34 110 -34 227q0 42 4 85z M291 768q-4 -36 -4 -72q0 -136 55 -254q70 -149 205 -237q-14 49 -14 96q0 19 2 37q15 155 136 264t277 109q76 0 141.5 -29t108.5 -80l229 -250q165 183 189 416q4 38 4 74q0 139 -57 259q-72 152 -215 240.5t-324 88.5t-342.5 -88.5t-266.5 -240.5t-124 -333zM676 338 q-1 -14 -1 -27q0 -80 52 -137q61 -68 158 -68q238 0 430 146l-225 252q-55 67 -156 67q-97 0 -173 -68.5t-85 -164.5z" />
<glyph unicode="R" horiz-adv-x="1357" d="M123 0l160 1536h665q132 0 238 -66q104 -66 158 -178q42 -89 43 -191q0 -27 -3 -54q-17 -156 -118 -281t-248 -178l231 -588h-153l-226 559h-548l-58 -559h-141zM336 696h524q145 0 257.5 103t127.5 248q2 21 2 41q1 120 -77 207q-90 102 -236 102h-524z" />
<glyph unicode="S" horiz-adv-x="1210" d="M94 133l94 115q168 -142 428 -142q104 0 197 40.5t152.5 111.5t68.5 154q1 13 1 26q1 84 -57 152q-66 79 -179 112l-258 66q-146 40 -231 148q-74 94 -74 208q0 17 2 35q12 112 87.5 206.5t193.5 150t251 55.5q263 0 453 -137l-93 -115q-152 111 -374 111 q-146 0 -256.5 -79t-122.5 -192q-1 -11 -1 -23q0 -74 52 -135q60 -70 162 -98l248 -65q162 -42 255 -159q80 -101 80 -226q0 -20 -2 -41q-13 -121 -93.5 -224t-207 -163t-268.5 -60q-148 0 -279.5 44.5t-228.5 123.5z" />
<glyph unicode="T" horiz-adv-x="1247" d="M176 1397l14 139h1186l-14 -139h-520l-146 -1397h-141l145 1397h-524z" />
<glyph unicode="U" horiz-adv-x="1431" d="M180 559l103 977h139l-103 -977q-3 -27 -3 -53q0 -155 102 -268q120 -132 309 -132q123 0 233.5 60t182 164.5t84.5 228.5l102 977h139l-102 -977q-17 -161 -110.5 -298t-238 -216.5t-304.5 -79.5q-161 0 -290 79.5t-195 216.5q-52 109 -52 233q0 32 4 65z" />
<glyph unicode="V" horiz-adv-x="1388" d="M190 1536h152l383 -1243l641 1243h152l-832 -1610z" />
<glyph unicode="W" horiz-adv-x="1970" d="M190 1536h150l268 -1163l545 1237l287 -1237l512 1163h147l-706 -1610l-287 1241l-545 -1241z" />
<glyph unicode="X" horiz-adv-x="1320" d="M31 0l624 768l-465 768h175l387 -647l524 647h174l-625 -768l465 -768h-174l-389 647l-522 -647h-174z" />
<glyph unicode="Y" horiz-adv-x="1372" d="M190 1536h172l414 -678l553 678h172l-672 -819l-73 -717h-140l74 717z" />
<glyph unicode="Z" horiz-adv-x="1359" d="M25 0l1179 1397h-973l15 139h1249l-1178 -1395h971l-14 -141h-1249z" />
<glyph unicode="[" horiz-adv-x="575" d="M127 -350l197 1886h350l-15 -139h-208l-168 -1606h209l-15 -141h-350z" />
<glyph unicode="\" horiz-adv-x="999" d="M283 1526l104 45l490 -1563l-109 -43z" />
<glyph unicode="]" horiz-adv-x="575" d="M25 -350l14 141h209l168 1606h-209l14 139h350l-196 -1886h-350z" />
<glyph unicode="^" horiz-adv-x="1222" d="M123 768l418 768h141l418 -768h-158l-330 604l-329 -604h-160z" />
<glyph unicode="_" horiz-adv-x="1062" d="M0 -186h1186v-52h-1186v52z" />
<glyph unicode="`" horiz-adv-x="718" d="M336 1454l12 117l338 -121l-8 -82z" />
<glyph unicode="a" horiz-adv-x="1464" d="M143 594q18 170 118.5 314.5t254.5 228.5t324 84q304 0 458 -275l25 240h141l-123 -1186h-141l25 240q-213 -275 -516 -275q-170 0 -307 84t-207 229q-56 115 -56 247q0 34 4 69zM285 594q-3 -27 -3 -54q0 -70 22 -136q30 -90 88 -155.5t144.5 -104t186.5 -38.5 q202 0 359.5 142.5t179.5 345.5q3 27 3 54q0 102 -43 191q-54 112 -159.5 177t-237.5 65q-203 0 -360.5 -142.5t-179.5 -344.5z" />
<glyph unicode="b" horiz-adv-x="1464" d="M123 0l160 1536h141l-62 -590q210 275 517 275q102 0 195 -31.5t164.5 -89.5t121.5 -136q51 -76 73 -172q15 -64 15 -131q0 -33 -4 -67q-18 -171 -118 -316t-254 -229t-324 -84q-303 0 -459 275l-25 -240h-141zM326 594q-3 -27 -3 -54q-1 -70 21 -136q30 -90 88.5 -155.5 t144.5 -104t185 -38.5q100 0 194.5 38.5t167 103.5t120.5 155.5t59 190.5q3 27 3 54q0 102 -43 191q-54 112 -160 177t-239 65q-201 0 -358.5 -142.5t-179.5 -344.5z" />
<glyph unicode="c" horiz-adv-x="1230" d="M143 594q18 170 117.5 314.5t253 228.5t324.5 84q129 0 239 -48t189 -137l-111 -98q-61 67 -147 105t-185 38q-201 0 -358.5 -142.5t-179.5 -344.5q-3 -27 -3 -54q0 -70 22 -136q30 -90 88 -155.5t144 -104t185 -38.5q100 0 193.5 37.5t166.5 104.5l90 -98 q-208 -185 -464 -185q-171 0 -307.5 84t-205.5 229q-55 115 -55 246q0 35 4 70z" />
<glyph unicode="d" horiz-adv-x="1464" d="M143 594q18 170 118.5 314.5t254.5 228.5t324 84q304 0 458 -275l62 590h141l-160 -1536h-141l25 240q-213 -275 -516 -275q-170 0 -307 84t-207 229q-56 115 -56 247q0 34 4 69zM285 594q-3 -27 -3 -54q0 -70 22 -136q30 -90 88 -155.5t144.5 -104t186.5 -38.5 q202 0 359.5 142.5t179.5 345.5q3 27 3 54q0 102 -43 191q-54 112 -159.5 177t-237.5 65q-203 0 -360.5 -142.5t-179.5 -344.5z" />
<glyph unicode="e" horiz-adv-x="1415" d="M143 594q18 170 117 314.5t252 228.5t322 84q127 0 238 -49.5t186.5 -133.5t113.5 -200q27 -85 27 -176q0 -34 -4 -68q-3 -35 -15 -70h-1099q8 -180 130.5 -299t305.5 -119q138 0 258.5 70t193.5 189l117 -72q-99 -150 -254 -239t-330 -89q-169 0 -304.5 84.5 t-203.5 229.5q-54 115 -55 245q0 35 4 70zM297 664h960q-8 178 -131.5 296.5t-306.5 118.5t-330 -118.5t-192 -296.5z" />
<glyph unicode="f" horiz-adv-x="681" d="M150 1047l14 139h139l12 104q12 117 102 199t206 82q117 0 190 -80l-111 -98q-36 39 -94 39q-57 0 -101 -41t-50 -101l-13 -104h244l-14 -139h-244l-108 -1047h-142l109 1047h-139z" />
<glyph unicode="g" horiz-adv-x="1460" d="M143 594q18 170 117.5 314.5t253 228.5t324.5 84q165 0 278.5 -76.5t181.5 -198.5l25 240h137l-98 -942q-18 -170 -117 -315t-252 -229.5t-323 -84.5q-264 0 -475 131l84 121q177 -111 405 -111q193 0 347.5 132.5t189.5 336.5q-90 -114 -225 -187t-289 -73 q-171 0 -307.5 84t-205.5 229q-55 115 -55 246q0 35 4 70zM285 594q-3 -27 -3 -54q0 -71 22 -136q29 -91 87.5 -156t144.5 -103.5t185 -38.5q100 0 194.5 38.5t167 103.5t120.5 155.5t59 190.5q3 27 3 54q0 102 -43 191q-54 112 -160 177t-239 65q-201 0 -358.5 -142.5 t-179.5 -344.5z" />
<glyph unicode="h" horiz-adv-x="1257" d="M123 0l160 1536h141l-57 -551q54 93 172 164.5t249 71.5q218 -1 332 -131q96 -109 95 -276q0 -32 -3 -66l-77 -748h-138l78 748q2 23 2 45q1 120 -69 197q-82 91 -234 91q-98 0 -193 -46t-161.5 -127.5t-79.5 -176.5l-76 -731h-141z" />
<glyph unicode="i" d="M123 0l123 1186h141l-123 -1186h-141zM256 1479q5 37 34.5 64.5t65.5 27.5q38 1 62 -27q21 -24 21 -55q0 -5 -1 -10q-3 -37 -33 -63.5t-67 -26.5q-37 1 -61 27q-21 24 -21 55v8z" />
<glyph unicode="j" horiz-adv-x="526" d="M-104 -305l106 100q41 -41 94 -41q59 0 103.5 41t50.5 101l135 1290h141l-135 -1290q-12 -117 -102.5 -199t-206.5 -82q-113 0 -186 80zM395 1479q5 37 34.5 64.5t66.5 27.5t62 -27q21 -24 21 -55q0 -5 -1 -10q-3 -36 -33.5 -63t-67.5 -27t-61 27q-21 23 -21 55v8z" />
<glyph unicode="k" horiz-adv-x="1085" d="M123 0l160 1536h141l-98 -948l659 598h199l-656 -592l533 -594h-199l-442 496l-117 -107l-39 -389h-141z" />
<glyph unicode="l" d="M123 0l160 1536h141l-160 -1536h-141z" />
<glyph unicode="m" horiz-adv-x="1781" d="M123 0l123 1186h141l-16 -164q22 69 112 134t205 65q219 0 324 -195q68 87 169.5 141t207.5 54q183 0 279 -111q80 -93 80 -231q0 -27 -3 -56l-86 -823h-139l86 823q2 18 2 35q0 92 -54 152q-64 71 -180 71q-119 0 -218.5 -81.5t-111.5 -196.5l-83 -803h-140l84 803 q2 19 2 37q0 96 -54 162q-64 80 -179 79.5t-213 -79t-113 -189.5l-84 -813h-141z" />
<glyph unicode="n" horiz-adv-x="1257" d="M123 0l123 1186h141l-22 -219q37 88 160 171t263 83q218 -1 332 -131q96 -109 95 -276q0 -32 -3 -66l-77 -748h-138l78 748q2 23 2 45q1 120 -69 197q-82 91 -234 91q-98 0 -193 -46t-161.5 -127.5t-79.5 -176.5l-76 -731h-141z" />
<glyph unicode="o" horiz-adv-x="1423" d="M143 594q18 170 118 314.5t253.5 228.5t323.5 84q171 0 308 -84q136 -85 206 -229q55 -115 55 -245q0 -34 -4 -69q-18 -171 -117.5 -316t-253.5 -229t-325 -84q-170 0 -306.5 84t-206.5 229q-55 115 -55 247q0 34 4 69zM285 594q-3 -27 -3 -54q0 -70 22 -136 q30 -90 88 -155.5t144 -104t185 -38.5q204 0 362.5 142t180.5 346q3 27 3 54q0 102 -43 191q-54 112 -160.5 177t-240.5 65q-201 0 -358.5 -142.5t-179.5 -344.5z" />
<glyph unicode="p" horiz-adv-x="1464" d="M86 -350l160 1536h141l-25 -240q210 275 517 275q102 0 195 -31.5t164.5 -89.5t122 -135.5t72.5 -172.5q15 -64 15 -131q0 -33 -4 -67q-18 -171 -118 -316t-254 -229t-324 -84q-303 0 -459 275l-62 -590h-141zM326 594q-3 -27 -3 -54q0 -71 21 -136q30 -91 88.5 -156 t144.5 -103.5t185 -38.5q100 0 194.5 38.5t167 103.5t120.5 155.5t59 190.5q3 27 3 54q0 102 -43 191q-54 112 -160 177t-239 65q-201 0 -358.5 -142.5t-179.5 -344.5z" />
<glyph unicode="q" horiz-adv-x="1464" d="M143 594q18 170 118.5 314.5t255 228.5t325.5 84q300 0 458 -275l25 240h139l-159 -1536h-140l62 590q-216 -275 -516 -275q-171 0 -308.5 84t-207.5 229q-56 115 -56 247q0 34 4 69zM287 594q-3 -27 -3 -54q0 -71 22 -136q29 -91 87.5 -156t145 -103.5t186.5 -38.5 q202 0 359.5 142.5t179.5 345.5q3 27 3 54q0 102 -43 191q-54 112 -159.5 177t-237.5 65q-203 0 -360.5 -142.5t-179.5 -344.5z" />
<glyph unicode="r" horiz-adv-x="839" d="M123 0l123 1186h141l-16 -158q53 85 141 139t195 54q129 0 235 -72l-78 -123q-74 55 -172 55q-132 0 -233 -92t-115 -223l-80 -766h-141z" />
<glyph unicode="s" horiz-adv-x="1120" d="M90 92l90 121q172 -107 383 -107q173 0 279 94q80 71 80 159q0 94 -97 148q-48 27 -116 38l-230 30q-65 8 -116.5 27t-96 54.5t-63.5 96.5q-11 36 -11 79q0 30 5 63q23 138 162.5 233t320.5 95q125 0 239 -31t199 -86l-78 -117q-68 42 -169 67t-205 25q-146 0 -244 -83 q-77 -65 -78 -140q0 -82 95 -122q32 -14 73 -21l262 -37q68 -10 127 -37.5t103 -71.5q44 -43 62 -107q10 -35 10 -74q0 -31 -7 -64q-31 -155 -169 -257t-351 -102q-131 0 -251 33.5t-208 93.5z" />
<glyph unicode="t" horiz-adv-x="606" d="M150 1047l14 139h139l29 268h141l-29 -268h244l-14 -139h-244l-80 -768q-1 -8 -1 -16q0 -47 31 -81q36 -40 93 -41h107l-15 -141h-106q-114 0 -188 82q-64 71 -64 166q0 15 2 31l80 768h-139z" />
<glyph unicode="u" horiz-adv-x="1257" d="M168 440l78 746h141l-78 -746q-2 -23 -3 -45q0 -121 70 -198q82 -91 234 -91q101 0 197.5 48.5t162.5 133t77 183.5l73 715h142l-123 -1186h-142l21 211q-36 -88 -159 -167t-263 -79q-220 -1 -335 131q-97 110 -97 278q0 32 4 66z" />
<glyph unicode="v" horiz-adv-x="1191" d="M154 1186h151l316 -918l507 918h156l-698 -1260z" />
<glyph unicode="w" horiz-adv-x="1792" d="M154 1186h151l250 -879l471 953l272 -953l435 879h151l-624 -1260l-273 953l-471 -953z" />
<glyph unicode="x" horiz-adv-x="1097" d="M31 0l491 594l-368 592h172l295 -475l395 475h174l-494 -592l369 -594h-172l-297 475l-393 -475h-172z" />
<glyph unicode="y" horiz-adv-x="1189" d="M154 1186h151l307 -993l518 993h152l-799 -1536h-153l190 364z" />
<glyph unicode="z" horiz-adv-x="1050" d="M25 0l841 1047h-704l14 139h973l-842 -1045h705l-15 -141h-972z" />
<glyph unicode="{" horiz-adv-x="679" d="M217 524l14 138h35q44 0 79.5 31t39.5 75l55 522q11 102 89 174t180 72h69l-14 -139h-70q-43 0 -76 -31.5t-38 -75.5l-56 -522q-11 -101 -102 -174q76 -76 65 -176l-55 -520q-4 -44 23.5 -75.5t70.5 -31.5h70l-14 -141h-70q-102 0 -166 72.5t-53 175.5l55 520 q4 44 -24 75t-72 31h-35z" />
<glyph unicode="|" horiz-adv-x="606" d="M246 -350v1886h114v-1886h-114z" />
<glyph unicode="}" horiz-adv-x="679" d="M25 -350l14 141h70q43 0 76 31.5t38 75.5l56 520q11 99 102 176q-77 74 -66 174l56 522q4 44 -24 75.5t-71 31.5h-69l14 139h70q102 0 166 -72t53 -174l-55 -522q-5 -44 22.5 -75t71.5 -31h35l-15 -138h-34q-44 0 -78.5 -31t-38.5 -75l-56 -520q-11 -103 -88.5 -175.5 t-179.5 -72.5h-69z" />
<glyph unicode="~" horiz-adv-x="960" d="M123 516q0 92 64.5 156.5t156.5 64.5q61 0 113 -30.5t80 -83.5q28 -48 81 -48q39 0 66 28t27 69h127q0 -92 -64.5 -156.5t-155.5 -64.5q-62 0 -113 30.5t-79 81.5q-30 49 -82 49q-40 0 -68 -27.5t-28 -68.5h-125z" />
<glyph unicode="&#xa1;" horiz-adv-x="385" d="M123 0l143 1186h99l-103 -1186h-139zM240 1450q5 42 38.5 72t77.5 30q41 0 69 -30.5t24 -71.5q-4 -44 -38.5 -75.5t-76.5 -31.5q-44 0 -71.5 31.5t-22.5 75.5z" />
<glyph unicode="&#xa2;" horiz-adv-x="1228" d="M143 594q25 230 192.5 405t397.5 215l15 148h137l-15 -141q118 -7 219.5 -55.5t174.5 -129.5l-109 -98q-63 68 -149 105.5t-185 37.5q-201 0 -358.5 -142.5t-179.5 -344.5q-11 -100 18.5 -190.5t88 -155.5t144.5 -103.5t185 -38.5q100 0 193.5 37.5t168.5 104.5l88 -98 q-90 -80 -201.5 -129t-228.5 -56l-14 -139h-137l14 147q-145 25 -255.5 113t-165 221.5t-38.5 286.5z" />
<glyph unicode="&#xa3;" horiz-adv-x="1236" d="M88 63l115 103q69 66 78 149l41 392h-166l14 141h166l22 215q23 212 187 360q107 97 240 131.5t259 0t213 -131.5l-108 -98q-97 106 -248 106t-268 -106q-121 -112 -137 -262l-23 -215h535l-15 -141h-534l-41 -394q-4 -34 -8 -47q6 0 23 1t26 1q143 0 235 -102 q54 -60 142 -60q87 0 153 60l90 82l90 -98l-92 -84q-113 -101 -256 -101q-141 0 -235 101q-51 63 -142 63q-90 0 -153 -63l-113 -101z" />
<glyph unicode="&#xa4;" horiz-adv-x="1452" d="M98 594q0 218 140 391l-105 102l98 99l105 -103q175 138 391 138q218 0 393 -138l101 103l98 -99l-100 -102q135 -170 135 -391q0 -109 -35.5 -210.5t-99.5 -180.5l100 -105l-98 -98l-103 102q-169 -137 -391 -137q-217 0 -391 137l-105 -102l-98 98l105 105 q-66 80 -103 181.5t-37 209.5zM240 594q0 -134 65.5 -246.5t177.5 -177t244 -64.5q203 0 346.5 142.5t143.5 345.5q0 133 -65.5 245t-178.5 177t-246 65q-201 0 -344 -142.5t-143 -344.5z" />
<glyph unicode="&#xa5;" horiz-adv-x="1247" d="M184 629l15 139h419l-75 141h-330l14 138h236l-273 489h166l359 -643l493 643h168l-372 -489h235l-14 -138h-330l-109 -141h424l-14 -139h-436l-66 -629h-139l66 629h-437z" />
<glyph unicode="&#xa6;" d="M123 -102v591h141v-591h-141zM123 698v594h141v-594h-141z" />
<glyph unicode="&#xa7;" horiz-adv-x="1075" d="M98 -68l135 54q6 -100 82 -165t195 -65q125 0 219.5 67.5t104.5 164.5q9 96 -71 164.5t-204 68.5q-180 0 -296 109t-99 264q9 92 66 170.5t149 132.5q-79 50 -120 129.5t-32 171.5q15 154 154 263.5t319 109.5q160 0 272 -87.5t126 -219.5l-129 -62q-12 103 -86.5 165.5 t-196.5 62.5t-215.5 -67.5t-103.5 -164.5t69 -165t201 -68q181 0 296.5 -109t100.5 -262q-10 -93 -66.5 -172t-146.5 -131q78 -52 118.5 -131.5t31.5 -171.5q-17 -154 -155.5 -263.5t-319.5 -109.5q-162 0 -275.5 91.5t-122.5 225.5zM303 594q-11 -97 69 -166.5t201 -69.5 q124 0 218.5 69.5t105.5 166.5q9 96 -70.5 163.5t-203.5 67.5q-122 0 -216.5 -68t-103.5 -163z" />
<glyph unicode="&#xa8;" horiz-adv-x="647" d="M184 1481q4 37 35 63.5t68 26.5t60.5 -26.5t19.5 -63.5q-3 -38 -32.5 -65t-66.5 -27t-62 27t-22 65zM590 1481q5 37 34.5 63.5t67.5 26.5q37 0 60 -26.5t18 -63.5q-3 -38 -31 -65t-65 -27q-38 0 -62.5 27t-21.5 65z" />
<glyph unicode="&#xa9;" horiz-adv-x="1419" d="M82 594q0 170 84 314.5t228.5 228.5t314.5 84q171 0 315.5 -84t228.5 -228.5t84 -314.5q0 -171 -84 -316t-228.5 -229t-315.5 -84q-170 0 -314.5 84t-228.5 229t-84 316zM156 594q0 -112 44 -215t118 -177.5t176.5 -118.5t214.5 -44q114 0 217 44t177 118.5t117.5 177.5 t43.5 215t-43.5 214.5t-117.5 176.5t-177 118t-217 44q-112 0 -214.5 -44t-176.5 -118t-118 -176.5t-44 -214.5zM289 594q0 173 123.5 296.5t296.5 123.5q176 0 299 -123l-70 -72q-96 96 -229 96q-132 0 -227 -94.5t-95 -226.5q0 -133 95 -228.5t227 -95.5q131 0 229 95 l70 -70q-123 -123 -299 -123q-174 0 -297 123t-123 299z" />
<glyph unicode="&#xaa;" horiz-adv-x="813" d="M213 1257q14 129 116 221.5t232 92.5q156 0 230 -137l12 118h69l-61 -591h-70l13 118q-108 -137 -258 -137q-131 0 -213.5 92.5t-69.5 222.5zM283 1257q-10 -102 54.5 -172.5t166.5 -70.5q100 0 179 70.5t89 172.5q10 101 -53.5 172.5t-163.5 71.5q-102 0 -182 -71.5 t-90 -172.5z" />
<glyph unicode="&#xab;" horiz-adv-x="897" d="M143 594l424 383l-20 -197l-207 -186l166 -188l-21 -197zM494 594l424 383l-21 -197l-207 -186l166 -188l-20 -197z" />
<glyph unicode="&#xac;" horiz-adv-x="911" d="M123 524v138h665v-277h-141v139h-524z" />
<glyph unicode="&#xad;" horiz-adv-x="952" d="M197 524l14 138h666l-15 -138h-665z" />
<glyph unicode="&#xae;" horiz-adv-x="653" d="M82 1327q0 100 72.5 172t173.5 72q100 0 171.5 -72t71.5 -172q0 -101 -71.5 -173.5t-171.5 -72.5q-101 0 -173.5 72.5t-72.5 173.5zM111 1327q0 -91 63 -154t154 -63q89 0 152 63t63 154q0 89 -63 151t-152 62q-91 0 -154 -62t-63 -151zM215 1171v316h141q43 0 73 -29 t30 -69q0 -34 -18.5 -60t-49.5 -37l62 -121l-31 -2l-60 119h-118v-117h-29zM244 1315h112q31 0 51.5 21t20.5 53q0 29 -21 50t-51 21h-112v-145z" />
<glyph unicode="&#xaf;" horiz-adv-x="628" d="M268 1397l15 139h383l-15 -139h-383z" />
<glyph unicode="&#xb0;" horiz-adv-x="622" d="M102 1362q0 86 61.5 147.5t147.5 61.5t147.5 -61.5t61.5 -147.5t-61.5 -147.5t-147.5 -61.5t-147.5 61.5t-61.5 147.5zM209 1362q0 -44 29.5 -75.5t72.5 -31.5q44 0 75.5 31.5t31.5 75.5q0 43 -31.5 72.5t-75.5 29.5q-43 0 -72.5 -29.5t-29.5 -72.5z" />
<glyph unicode="&#xb1;" horiz-adv-x="1390" d="M102 0v141h1186v-141h-1186zM102 696v142h525v348h139v-348h522v-142h-522v-346h-139v346h-525z" />
<glyph unicode="&#xb2;" horiz-adv-x="686" d="M172 768l428 387q61 55 70 135q8 80 -42.5 136.5t-129.5 56.5q-78 0 -141 -57t-70 -136q-9 -79 41 -135l-56 -49q-67 76 -55 184q10 108 94.5 185t192.5 77q109 0 177.5 -76.5t57.5 -185.5q-12 -110 -96 -184l-297 -268h322l-6 -70h-490z" />
<glyph unicode="&#xb3;" horiz-adv-x="686" d="M186 1012h70q-8 -78 43 -135.5t129 -57.5q79 0 141 57.5t70 135.5q9 80 -42 137t-130 57q-81 0 -139 -55l-45 49l297 268h-293l6 68h461l-289 -260h10q109 0 177.5 -77.5t56.5 -186.5q-11 -107 -95.5 -183.5t-193.5 -76.5q-107 0 -176 76.5t-58 183.5z" />
<glyph unicode="&#xb4;" horiz-adv-x="718" d="M328 1368l8 82l362 121l-12 -117z" />
<glyph unicode="&#xb6;" horiz-adv-x="1220" d="M172 1153q15 158 139.5 270.5t284.5 112.5h661l-159 -1536h-137l145 1397h-211l-145 -1397h-140l80 768h-174q-160 0 -260.5 112.5t-83.5 272.5zM313 1153q-11 -103 51.5 -173.5t165.5 -70.5h175l51 488h-174q-102 0 -180 -71t-89 -173z" />
<glyph unicode="&#xb7;" horiz-adv-x="454" d="M133 594q5 43 39 73.5t78 30.5q41 0 68.5 -30.5t23.5 -73.5t-38 -74t-75 -31q-44 0 -72.5 31t-23.5 74z" />
<glyph unicode="&#xb8;" horiz-adv-x="665" d="M170 -313l53 26q14 -28 45 -36.5t62 8.5q30 15 42 47t-1 63q-14 29 -45.5 37.5t-63.5 -8.5l-20 49l65 174l51 -14l-53 -142q38 2 70 -16.5t47 -52.5q23 -47 2.5 -101.5t-72.5 -82.5q-51 -30 -104 -16t-78 65z" />
<glyph unicode="&#xb9;" horiz-adv-x="434" d="M246 1372l8 80l221 121l-84 -805h-69l71 684z" />
<glyph unicode="&#xba;" horiz-adv-x="792" d="M213 1257q14 129 115.5 221.5t230.5 92.5q130 0 213.5 -92.5t69.5 -221.5q-13 -130 -115 -222.5t-233 -92.5q-129 0 -211.5 92.5t-69.5 222.5zM283 1257q-10 -102 54 -172.5t165 -70.5q103 0 181.5 70t88.5 173q11 102 -53 173t-166 71q-100 0 -180 -71.5t-90 -172.5z " />
<glyph unicode="&#xbb;" horiz-adv-x="897" d="M102 209l21 197l207 188l-166 186l20 197l342 -383zM453 209l20 197l207 188l-166 186l21 197l342 -383z" />
<glyph unicode="&#xbc;" horiz-adv-x="1304" d="M246 1372l8 80l221 121l-84 -805h-69l71 684zM262 -10l823 1581l56 -25l-826 -1581zM711 176l514 629l-60 -561h123l-6 -68h-123l-18 -176h-70l19 176h-379zM852 246h246l37 342z" />
<glyph unicode="&#xbd;" horiz-adv-x="1394" d="M246 1372l8 80l221 121l-84 -805h-69l71 684zM262 -10l823 1581l56 -25l-826 -1581zM842 0l426 387q63 57 69 135q9 79 -41.5 136t-130.5 57q-78 0 -140 -56.5t-71 -136.5q-6 -82 41 -135l-53 -49q-66 72 -57 184q12 109 97 185.5t192 76.5q109 0 177 -76.5t56 -185.5 q-9 -105 -94 -184l-297 -268h321l-6 -70h-489z" />
<glyph unicode="&#xbe;" horiz-adv-x="1509" d="M186 1012h70q-8 -78 43 -135.5t129 -57.5q79 0 141 57.5t70 135.5q9 80 -42 137t-130 57q-81 0 -139 -55l-45 49l297 268h-293l6 68h461l-289 -260h10q109 0 177.5 -77.5t56.5 -186.5q-11 -107 -95.5 -183.5t-193.5 -76.5q-107 0 -176 76.5t-58 183.5zM459 -10l823 1581 l55 -25l-825 -1581zM915 176l515 629l-60 -561h123l-6 -68h-123l-18 -176h-70l18 176h-379zM1057 246h246l36 342z" />
<glyph unicode="&#xbf;" horiz-adv-x="1030" d="M123 403q19 179 160.5 308t322.5 129q44 0 78.5 29.5t38.5 72.5q5 44 -23.5 75.5t-72.5 31.5q-26 0 -52 -15l-57 119q53 33 123 33q101 0 165 -71.5t54 -172.5t-89.5 -172.5t-180.5 -71.5q-121 0 -216.5 -86.5t-109.5 -208.5q-12 -124 65 -211.5t199 -87.5 q109 0 199.5 71.5t120.5 178.5l133 -24q-40 -156 -172.5 -260.5t-294.5 -104.5q-119 0 -213.5 58.5t-142 159.5t-35.5 220zM567 1448q4 43 38 73.5t75 30.5q44 0 72.5 -30.5t23.5 -73.5q-4 -44 -39.5 -75.5t-79.5 -31.5q-41 0 -67.5 31.5t-22.5 75.5z" />
<glyph unicode="&#xc0;" horiz-adv-x="1388" d="M31 0l831 1610l496 -1610h-152l-110 350h-736l-178 -350h-151zM434 487h623l-234 756zM696 1686l13 116l338 -121l-9 -82z" />
<glyph unicode="&#xc1;" horiz-adv-x="1388" d="M31 0l831 1610l496 -1610h-152l-110 350h-736l-178 -350h-151zM434 487h623l-234 756zM688 1599l8 82l363 121l-12 -116z" />
<glyph unicode="&#xc2;" horiz-adv-x="1388" d="M31 0l831 1610l496 -1610h-152l-110 350h-736l-178 -350h-151zM434 487h623l-234 756zM662 1657l227 207l186 -207l-76 -70l-125 137l-151 -137z" />
<glyph unicode="&#xc3;" horiz-adv-x="1388" d="M31 0l831 1610l496 -1610h-152l-110 350h-736l-178 -350h-151zM434 487h623l-234 756zM641 1718q6 60 52 103t106 43q41 0 72.5 -22t43.5 -56q6 -12 21.5 -19.5t30.5 -7.5q25 0 44.5 17t22.5 43h80q-6 -60 -52.5 -103t-105.5 -43q-39 0 -69.5 21.5t-44.5 54.5 q-17 31 -51 31q-26 0 -46.5 -18t-21.5 -44h-82z" />
<glyph unicode="&#xc4;" horiz-adv-x="1388" d="M31 0l831 1610l496 -1610h-152l-110 350h-736l-178 -350h-151zM434 487h623l-234 756zM578 1712q4 37 34.5 63.5t67.5 26.5t60.5 -26.5t19.5 -63.5q-3 -38 -32 -65t-66 -27t-62 27t-22 65zM983 1712q5 37 34.5 63.5t67.5 26.5q37 0 60 -26.5t18 -63.5q-3 -38 -31 -65 t-65 -27q-38 0 -62.5 27t-21.5 65z" />
<glyph unicode="&#xc5;" horiz-adv-x="1388" d="M31 0l831 1610l496 -1610h-152l-110 350h-736l-178 -350h-151zM434 487h623l-234 756zM733 1817q6 61 55 105t111 44t102.5 -44t34.5 -105q-8 -63 -57.5 -108.5t-110.5 -45.5q-62 0 -102 45.5t-33 108.5zM821 1817q-3 -28 12.5 -46t43.5 -18q26 0 46 18t23 46 q3 26 -13 43.5t-42 17.5q-28 0 -47.5 -17.5t-22.5 -43.5z" />
<glyph unicode="&#xc6;" horiz-adv-x="2336" d="M31 0l1278 1536h1116l-15 -139h-974l-60 -559h836l-14 -142h-836l-57 -555h974l-14 -141h-1116l35 350h-692l-287 -350h-174zM612 487h588l84 809z" />
<glyph unicode="&#xc7;" horiz-adv-x="1515" d="M152 768q23 217 150 402t323 293t413 108q162 0 303 -63.5t242 -174.5l-108 -98q-83 92 -200 143.5t-251 51.5q-135 0 -263 -52t-226 -141t-163 -211.5t-79 -257.5q-19 -181 53 -333t215 -240.5t324 -88.5q134 0 261.5 50.5t229.5 140.5l88 -98q-124 -111 -277.5 -172.5 t-316.5 -61.5q-4 0 -12 1t-12 1l-29 -76q38 2 70 -16.5t47 -52.5q23 -47 2.5 -101.5t-72.5 -82.5q-51 -30 -104 -16t-78 65l53 26q14 -28 45 -36.5t62 8.5q30 15 42 47t-1 63q-14 29 -45.5 37.5t-63.5 -8.5l-20 49l37 96q-198 19 -352 130t-231 287.5t-56 381.5z" />
<glyph unicode="&#xc8;" horiz-adv-x="1312" d="M123 0l160 1536h1118l-15 -139h-976l-60 -559h836l-15 -142h-835l-57 -555h976l-14 -141h-1118zM688 1686l12 116l338 -121l-8 -82z" />
<glyph unicode="&#xc9;" horiz-adv-x="1312" d="M123 0l160 1536h1118l-15 -139h-976l-60 -559h836l-15 -142h-835l-57 -555h976l-14 -141h-1118zM680 1599l8 82l363 121l-13 -116z" />
<glyph unicode="&#xca;" horiz-adv-x="1312" d="M123 0l160 1536h1118l-15 -139h-976l-60 -559h836l-15 -142h-835l-57 -555h976l-14 -141h-1118zM649 1657l228 207l186 -207l-76 -70l-125 137l-151 -137z" />
<glyph unicode="&#xcb;" horiz-adv-x="1312" d="M123 0l160 1536h1118l-15 -139h-976l-60 -559h836l-15 -142h-835l-57 -555h976l-14 -141h-1118zM541 1712q4 37 34.5 63.5t67.5 26.5t60.5 -26.5t19.5 -63.5q-3 -38 -32 -65t-66 -27t-62 27t-22 65zM946 1712q5 37 35 63.5t68 26.5q37 0 59.5 -26.5t17.5 -63.5 q-3 -38 -31 -65t-65 -27q-38 0 -62.5 27t-21.5 65z" />
<glyph unicode="&#xcc;" d="M123 0l160 1536h141l-160 -1536h-141zM195 1686l12 116l338 -121l-8 -82z" />
<glyph unicode="&#xcd;" d="M123 0l160 1536h141l-160 -1536h-141zM186 1599l9 82l362 121l-12 -116z" />
<glyph unicode="&#xce;" d="M123 0l160 1536h141l-160 -1536h-141zM160 1657l227 207l186 -207l-75 -70l-125 137l-152 -137z" />
<glyph unicode="&#xcf;" d="M78 1712q4 37 34.5 63.5t67.5 26.5t60.5 -26.5t19.5 -63.5q-3 -38 -32 -65t-66 -27t-62 27t-22 65zM123 0l160 1536h141l-160 -1536h-141zM485 1712q5 37 34 63.5t67 26.5q37 0 60 -26.5t18 -63.5q-3 -38 -31.5 -65t-65.5 -27q-38 0 -61.5 26.5t-20.5 65.5z" />
<glyph unicode="&#xd0;" horiz-adv-x="1525" d="M113 696l14 142h121l74 698h524q209 0 375 -103t250.5 -280t62.5 -385q-22 -209 -143.5 -385.5t-308.5 -279.5t-396 -103h-524l71 696h-120zM315 141h385q127 0 248.5 49.5t214 133.5t154.5 200.5t76 243.5q18 171 -51 316t-205 229t-306 84h-385l-59 -559h334l-14 -142 h-334z" />
<glyph unicode="&#xd1;" horiz-adv-x="1431" d="M123 0l168 1610l911 -1291l127 1217h139l-168 -1610l-909 1291l-127 -1217h-141zM653 1616q8 60 54 102.5t106 42.5q41 0 73 -22t44 -56q13 -26 51 -26q25 0 45 16.5t23 42.5h79q-8 -60 -53.5 -102.5t-103.5 -42.5q-39 0 -70 21.5t-45 54.5q-17 30 -51 30 q-26 0 -46.5 -17.5t-23.5 -43.5h-82z" />
<glyph unicode="&#xd2;" horiz-adv-x="1748" d="M152 768q23 217 150 402t323 293t413 108q218 0 392 -108t262 -293t65 -402q-17 -163 -96.5 -311.5t-198 -256t-274 -171.5t-318.5 -64t-305 64t-238 171.5t-144 256t-31 311.5zM293 768q-19 -181 53 -333t215 -240.5t324 -88.5t342.5 88.5t266.5 240.5t124 333 q19 180 -53.5 332.5t-216 241t-324.5 88.5q-135 0 -263 -52t-226 -141t-163 -211.5t-79 -257.5zM877 1686l12 116l338 -121l-8 -82z" />
<glyph unicode="&#xd3;" horiz-adv-x="1748" d="M152 768q23 218 149.5 402.5t322.5 292.5t414 108q163 0 305 -64t238.5 -171.5t144.5 -256t31 -311.5q-23 -217 -150 -402t-323.5 -293t-413.5 -108q-163 0 -305.5 64t-238.5 171.5t-143.5 256t-30.5 311.5zM291 768q-19 -180 53.5 -332.5t216 -241t324.5 -88.5 q135 0 263 52t226 141t163 211.5t79 257.5q19 181 -53 333t-215 240.5t-324 88.5t-342.5 -88.5t-266.5 -240.5t-124 -333zM866 1599l8 82l363 121l-12 -116z" />
<glyph unicode="&#xd4;" horiz-adv-x="1748" d="M152 768q23 218 149.5 402.5t322.5 292.5t414 108q163 0 305 -64t238.5 -171.5t144.5 -256t31 -311.5q-23 -217 -150 -402t-323.5 -293t-413.5 -108q-163 0 -305.5 64t-238.5 171.5t-143.5 256t-30.5 311.5zM291 768q-19 -180 53.5 -332.5t216 -241t324.5 -88.5 q135 0 263 52t226 141t163 211.5t79 257.5q19 181 -53 333t-215 240.5t-324 88.5t-342.5 -88.5t-266.5 -240.5t-124 -333zM842 1657l227 207l186 -207l-75 -70l-125 137l-152 -137z" />
<glyph unicode="&#xd5;" horiz-adv-x="1748" d="M152 768q23 218 149.5 402.5t322.5 292.5t414 108q163 0 305 -64t238.5 -171.5t144.5 -256t31 -311.5q-23 -217 -150 -402t-323.5 -293t-413.5 -108q-163 0 -305.5 64t-238.5 171.5t-143.5 256t-30.5 311.5zM291 768q-19 -180 53.5 -332.5t216 -241t324.5 -88.5 q135 0 263 52t226 141t163 211.5t79 257.5q19 181 -53 333t-215 240.5t-324 88.5t-342.5 -88.5t-266.5 -240.5t-124 -333zM819 1718q6 60 52 103t106 43q41 0 73 -22t44 -56q14 -27 51 -27q25 0 44.5 17t22.5 43h80q-6 -60 -52 -103t-105 -43q-39 0 -70 21.5t-45 54.5 q-17 31 -51 31q-26 0 -46.5 -18t-21.5 -44h-82z" />
<glyph unicode="&#xd6;" horiz-adv-x="1748" d="M152 768q23 218 149.5 402.5t322.5 292.5t414 108q163 0 305 -64t238.5 -171.5t144.5 -256t31 -311.5q-23 -217 -150 -402t-323.5 -293t-413.5 -108q-163 0 -305.5 64t-238.5 171.5t-143.5 256t-30.5 311.5zM291 768q-19 -180 53.5 -332.5t216 -241t324.5 -88.5 q135 0 263 52t226 141t163 211.5t79 257.5q19 181 -53 333t-215 240.5t-324 88.5t-342.5 -88.5t-266.5 -240.5t-124 -333zM756 1712q4 37 34.5 63.5t67.5 26.5t60.5 -26.5t19.5 -63.5q-3 -39 -32 -65.5t-66 -26.5t-62 26.5t-22 65.5zM1163 1712q5 37 34 63.5t67 26.5 q37 0 60 -26.5t19 -63.5q-3 -39 -32 -65.5t-66 -26.5q-38 0 -61.5 26t-20.5 66z" />
<glyph unicode="&#xd7;" horiz-adv-x="1349" d="M82 98l493 496l-493 493l98 99l496 -494l493 494l99 -99l-494 -493l494 -496l-99 -98l-493 496l-496 -496z" />
<glyph unicode="&#xd8;" horiz-adv-x="1767" d="M127 98l166 154q-160 227 -131 516q17 163 96.5 311.5t198 256t274 171.5t318.5 64q284 0 497 -187l166 152l90 -98l-170 -156q78 -104 113 -236t20 -278q-23 -218 -149.5 -402.5t-322 -292.5t-412.5 -108q-293 0 -498 189l-168 -154zM301 768q-24 -238 105 -416 l1028 930q-164 148 -400 148q-181 0 -343 -88.5t-266.5 -240.5t-123.5 -333zM492 252q168 -146 403 -146q135 0 263 52t226 141t163 211.5t79 257.5q24 234 -102 416z" />
<glyph unicode="&#xd9;" horiz-adv-x="1431" d="M180 559l103 977h139l-103 -977q-13 -124 37 -228.5t148 -164.5t221 -60q93 0 181 35.5t155 96t111.5 144.5t54.5 177l102 977h139l-102 -977q-17 -161 -110.5 -298t-238.5 -216.5t-306 -79.5q-160 0 -288.5 79.5t-194 216.5t-48.5 298zM717 1686l12 116l338 -121l-8 -82 z" />
<glyph unicode="&#xda;" horiz-adv-x="1431" d="M180 559l103 977h139l-103 -977q-20 -189 99.5 -321t308.5 -132q123 0 233.5 60t182 164.5t84.5 228.5l102 977h139l-102 -977q-17 -161 -110.5 -298t-238 -216.5t-304.5 -79.5q-161 0 -290 79.5t-194.5 216.5t-48.5 298zM709 1599l8 82l362 121l-12 -116z" />
<glyph unicode="&#xdb;" horiz-adv-x="1431" d="M180 559l103 977h139l-103 -977q-13 -124 37 -228.5t148 -164.5t221 -60q93 0 181 35.5t155 96t111.5 144.5t54.5 177l102 977h139l-102 -977q-17 -161 -110.5 -298t-238.5 -216.5t-306 -79.5q-160 0 -288.5 79.5t-194 216.5t-48.5 298zM682 1657l227 207l187 -207 l-76 -70l-125 137l-152 -137z" />
<glyph unicode="&#xdc;" horiz-adv-x="1431" d="M180 559l103 977h139l-103 -977q-20 -189 99.5 -321t308.5 -132q123 0 233.5 60t182 164.5t84.5 228.5l102 977h139l-102 -977q-17 -161 -110.5 -298t-238 -216.5t-304.5 -79.5q-161 0 -290 79.5t-194.5 216.5t-48.5 298zM598 1712q4 37 34.5 63.5t67.5 26.5t60.5 -26.5 t19.5 -63.5q-3 -38 -32 -65t-66 -27t-62 27t-22 65zM1006 1712q5 37 33.5 63.5t66.5 26.5q37 0 60 -26.5t18 -63.5q-3 -38 -31.5 -65t-65.5 -27q-38 0 -61 26.5t-20 65.5z" />
<glyph unicode="&#xdd;" horiz-adv-x="1372" d="M190 1536h172l414 -678l553 678h172l-672 -819l-73 -717h-140l74 717zM678 1599l8 82l363 121l-13 -116z" />
<glyph unicode="&#xde;" horiz-adv-x="1331" d="M123 0l160 1536h141l-21 -193h582q170 0 279 -119t92 -288q-19 -170 -153 -291t-304 -121h-582l-53 -524h-141zM334 666h581q114 0 202 78.5t100 191.5q11 111 -61 189.5t-185 78.5h-582z" />
<glyph unicode="&#xdf;" horiz-adv-x="1130" d="M123 0l123 1169q11 109 74.5 201.5t161 146.5t206.5 54q167 0 272.5 -118t88.5 -284q-10 -91 -55 -169.5t-115 -135.5q111 -55 170.5 -166t46.5 -245q-13 -122 -84.5 -226.5t-182 -165.5t-233.5 -61h-262l14 141h262q129 0 231 91.5t115 220.5q13 132 -69 223.5 t-211 91.5h-262l14 141h190q109 0 195 76t98 184q10 109 -59 185t-178 76q-107 0 -192 -76.5t-95 -184.5l-123 -1169h-141z" />
<glyph unicode="&#xe0;" horiz-adv-x="1464" d="M143 594q18 170 118.5 314.5t254.5 228.5t324 84q304 0 458 -275l25 240h141l-123 -1186h-141l25 240q-213 -275 -516 -275q-170 0 -307 84t-207 229t-52 316zM285 594q-11 -100 18.5 -190.5t88 -155.5t145 -103.5t186.5 -38.5q202 0 359.5 142.5t179.5 345.5 q14 133 -40 245t-159.5 177t-237.5 65q-203 0 -360.5 -142.5t-179.5 -344.5zM690 1454l12 117l338 -121l-8 -82z" />
<glyph unicode="&#xe1;" horiz-adv-x="1464" d="M143 594q18 170 118.5 314.5t254.5 228.5t324 84q304 0 458 -275l25 240h141l-123 -1186h-141l25 240q-213 -275 -516 -275q-170 0 -307 84t-207 229t-52 316zM285 594q-11 -100 18.5 -190.5t88 -155.5t145 -103.5t186.5 -38.5q202 0 359.5 142.5t179.5 345.5 q14 133 -40 245t-159.5 177t-237.5 65q-203 0 -360.5 -142.5t-179.5 -344.5zM682 1368l8 82l363 121l-13 -117z" />
<glyph unicode="&#xe2;" horiz-adv-x="1464" d="M143 594q18 170 118.5 314.5t254.5 228.5t324 84q304 0 458 -275l25 240h141l-123 -1186h-141l25 240q-213 -275 -516 -275q-170 0 -307 84t-207 229t-52 316zM285 594q-11 -100 18.5 -190.5t88 -155.5t145 -103.5t186.5 -38.5q202 0 359.5 142.5t179.5 345.5 q14 133 -40 245t-159.5 177t-237.5 65q-203 0 -360.5 -142.5t-179.5 -344.5zM655 1432l230 206l184 -206l-76 -70l-125 137l-151 -137z" />
<glyph unicode="&#xe3;" horiz-adv-x="1464" d="M143 594q18 170 118.5 314.5t254.5 228.5t324 84q304 0 458 -275l25 240h141l-123 -1186h-141l25 240q-213 -275 -516 -275q-170 0 -307 84t-207 229t-52 316zM285 594q-11 -100 18.5 -190.5t88 -155.5t145 -103.5t186.5 -38.5q202 0 359.5 142.5t179.5 345.5 q14 133 -40 245t-159.5 177t-237.5 65q-203 0 -360.5 -142.5t-179.5 -344.5zM635 1425q6 60 52 103t106 43q41 0 72.5 -22t43.5 -56q6 -12 21.5 -19.5t30.5 -7.5q25 0 44.5 17t22.5 43h80q-6 -60 -52.5 -103t-105.5 -43q-39 0 -69.5 21.5t-44.5 54.5q-17 31 -52 31 q-26 0 -46 -18t-21 -44h-82z" />
<glyph unicode="&#xe4;" horiz-adv-x="1464" d="M143 594q18 170 118.5 314.5t254.5 228.5t324 84q304 0 458 -275l25 240h141l-123 -1186h-141l25 240q-213 -275 -516 -275q-170 0 -307 84t-207 229t-52 316zM285 594q-11 -100 18.5 -190.5t88 -155.5t145 -103.5t186.5 -38.5q202 0 359.5 142.5t179.5 345.5 q14 133 -40 245t-159.5 177t-237.5 65q-203 0 -360.5 -142.5t-179.5 -344.5zM569 1481q4 37 35 63.5t68 26.5t60.5 -26.5t19.5 -63.5q-3 -38 -32.5 -65t-66.5 -27t-62 27t-22 65zM975 1481q5 37 34.5 63.5t67.5 26.5q37 0 60 -26.5t18 -63.5q-3 -38 -31 -65t-65 -27 q-38 0 -62.5 27t-21.5 65z" />
<glyph unicode="&#xe5;" horiz-adv-x="1464" d="M143 594q18 170 118.5 314.5t254.5 228.5t324 84q304 0 458 -275l25 240h141l-123 -1186h-141l25 240q-213 -275 -516 -275q-170 0 -307 84t-207 229t-52 316zM285 594q-11 -100 18.5 -190.5t88 -155.5t145 -103.5t186.5 -38.5q202 0 359.5 142.5t179.5 345.5 q14 133 -40 245t-159.5 177t-237.5 65q-203 0 -360.5 -142.5t-179.5 -344.5zM717 1489q6 61 56.5 105t113.5 44q60 0 99.5 -44t33.5 -105q-6 -63 -56 -108.5t-110 -45.5q-63 0 -103 45.5t-34 108.5zM805 1489q-3 -28 14 -46t45 -18q25 0 45 18.5t23 45.5q3 26 -13.5 43.5 t-41.5 17.5q-28 0 -48.5 -17.5t-23.5 -43.5z" />
<glyph unicode="&#xe6;" horiz-adv-x="2533" d="M143 594q18 170 118 314.5t253.5 228.5t323.5 84q304 0 462 -275l25 240h137l-24 -240q91 120 220 197.5t294 77.5q127 0 238 -49.5t186.5 -133.5t113 -200.5t23.5 -243.5q-3 -39 -14 -70h-1100q8 -180 130.5 -299t305.5 -119q138 0 259 70.5t194 188.5l116 -72 q-99 -150 -253.5 -239t-329.5 -89q-169 0 -283 69t-176 185l-23 -219h-137l23 219q-204 -254 -518 -254q-170 0 -306.5 84t-206 229t-51.5 316zM285 594q-11 -100 18.5 -190.5t88 -155.5t144.5 -103.5t185 -38.5q204 0 362.5 142t180.5 346q14 133 -40 245t-160.5 177 t-240.5 65q-201 0 -358.5 -142.5t-179.5 -344.5zM1415 664h961q-8 178 -132 296.5t-307 118.5t-330 -118.5t-192 -296.5z" />
<glyph unicode="&#xe7;" horiz-adv-x="1230" d="M143 594q18 170 117.5 314.5t253 228.5t324.5 84q129 0 239 -48t189 -137l-111 -98q-61 67 -147 105t-185 38q-201 0 -358.5 -142.5t-179.5 -344.5q-11 -100 18.5 -190.5t88 -155.5t144.5 -103.5t185 -38.5q100 0 193.5 37.5t166.5 104.5l90 -98q-208 -185 -464 -185h-11 l-28 -74q38 2 69.5 -16.5t46.5 -52.5q24 -47 3.5 -101.5t-72.5 -82.5q-51 -30 -104.5 -16t-78.5 65l54 26q14 -28 44.5 -36.5t61.5 8.5q30 15 42 47t-1 63q-14 29 -45 37.5t-63 -8.5l-21 49l35 96q-154 16 -273.5 102.5t-179.5 224.5t-43 298z" />
<glyph unicode="&#xe8;" horiz-adv-x="1415" d="M143 594q18 170 117 314.5t252 228.5t322 84q127 0 238 -49.5t186.5 -133.5t113 -200.5t23.5 -243.5q-3 -35 -15 -70h-1099q8 -180 130.5 -299t305.5 -119q138 0 258.5 70t193.5 189l117 -72q-99 -150 -254 -239t-330 -89q-169 0 -304.5 84.5t-204 229.5t-50.5 315z M297 664h960q-8 178 -131.5 296.5t-306.5 118.5t-330 -118.5t-192 -296.5zM686 1454l12 117l338 -121l-8 -82z" />
<glyph unicode="&#xe9;" horiz-adv-x="1415" d="M143 594q18 170 117 314.5t252 228.5t322 84q127 0 238 -49.5t186.5 -133.5t113 -200.5t23.5 -243.5q-3 -35 -15 -70h-1099q8 -180 130.5 -299t305.5 -119q138 0 258.5 70t193.5 189l117 -72q-99 -150 -254 -239t-330 -89q-169 0 -304.5 84.5t-204 229.5t-50.5 315z M297 664h960q-8 178 -131.5 296.5t-306.5 118.5t-330 -118.5t-192 -296.5zM678 1368l8 82l363 121l-13 -117z" />
<glyph unicode="&#xea;" horiz-adv-x="1415" d="M143 594q18 170 117 314.5t252 228.5t322 84q127 0 238 -49.5t186.5 -133.5t113 -200.5t23.5 -243.5q-3 -35 -15 -70h-1099q8 -180 130.5 -299t305.5 -119q138 0 258.5 70t193.5 189l117 -72q-99 -150 -254 -239t-330 -89q-169 0 -304.5 84.5t-204 229.5t-50.5 315z M297 664h960q-8 178 -131.5 296.5t-306.5 118.5t-330 -118.5t-192 -296.5zM649 1432l230 206l184 -206l-76 -70l-125 137l-151 -137z" />
<glyph unicode="&#xeb;" horiz-adv-x="1415" d="M143 594q18 170 117 314.5t252 228.5t322 84q127 0 238 -49.5t186.5 -133.5t113 -200.5t23.5 -243.5q-3 -35 -15 -70h-1099q8 -180 130.5 -299t305.5 -119q138 0 258.5 70t193.5 189l117 -72q-99 -150 -254 -239t-330 -89q-169 0 -304.5 84.5t-204 229.5t-50.5 315z M297 664h960q-8 178 -131.5 296.5t-306.5 118.5t-330 -118.5t-192 -296.5zM567 1481q4 37 35 63.5t68 26.5t60.5 -26.5t19.5 -63.5q-3 -38 -32.5 -65t-66.5 -27t-62 27t-22 65zM973 1481q5 37 34.5 63.5t67.5 26.5q37 0 60 -26.5t18 -63.5q-3 -38 -31 -65t-65 -27 q-38 0 -62.5 27t-21.5 65z" />
<glyph unicode="&#xec;" d="M123 0l123 1186h141l-123 -1186h-141zM170 1454l12 117l338 -121l-8 -82z" />
<glyph unicode="&#xed;" d="M123 0l123 1186h141l-123 -1186h-141zM162 1368l8 82l362 121l-12 -117z" />
<glyph unicode="&#xee;" d="M123 0l123 1186h141l-123 -1186h-141zM135 1432l230 206l184 -206l-76 -70l-125 137l-151 -137z" />
<glyph unicode="&#xef;" d="M92 1481q5 37 34.5 63.5t66.5 26.5t61 -26.5t20 -63.5q-3 -38 -33 -65t-67 -27t-61 27t-21 65zM123 0l123 1186h141l-123 -1186h-141zM422 1481q5 37 34 63.5t68 26.5q37 0 60 -26.5t18 -63.5q-3 -38 -31 -65t-65 -27q-39 0 -63 26.5t-21 65.5z" />
<glyph unicode="&#xf0;" horiz-adv-x="1384" d="M141 575q12 115 73.5 223t150 184.5t197 122.5t212.5 46q48 0 105 -17t94 -47l4 5l-219 229l-174 -47l-19 98l117 35l-115 127h197l76 -86l182 53l14 -102l-121 -35l304 -346q77 -91 116.5 -205t26.5 -238q-17 -166 -113.5 -306.5t-245.5 -222t-315 -81.5t-298 81.5 t-199 222t-50 306.5zM281 575q-20 -196 103.5 -333.5t317.5 -137.5q195 0 348 137.5t175 333.5q13 120 -43.5 221.5t-159.5 157.5t-225 56q-117 0 -229.5 -54t-193 -155.5t-93.5 -225.5z" />
<glyph unicode="&#xf1;" horiz-adv-x="1257" d="M123 0l123 1186h141l-22 -219q37 88 160 171t263 83q218 0 332 -130.5t92 -342.5l-77 -748h-138l78 748q15 151 -67.5 242t-233.5 91q-98 0 -193 -46t-161.5 -127.5t-79.5 -176.5l-76 -731h-141zM565 1425q6 60 52 103t106 43q41 0 73 -22t44 -56q14 -27 51 -27 q25 0 44.5 17t22.5 43h80q-6 -60 -52 -103t-105 -43q-39 0 -70 21.5t-45 54.5q-17 31 -51 31q-26 0 -46.5 -18t-21.5 -44h-82z" />
<glyph unicode="&#xf2;" horiz-adv-x="1423" d="M143 594q18 170 118 314.5t253.5 228.5t323.5 84q171 0 307.5 -84t206 -228.5t51.5 -314.5q-18 -171 -117.5 -316t-253.5 -229t-325 -84q-170 0 -306.5 84t-206 229t-51.5 316zM285 594q-11 -100 18.5 -190.5t88 -155.5t144.5 -103.5t185 -38.5q204 0 362.5 142 t180.5 346q14 133 -40 245t-160.5 177t-240.5 65q-201 0 -358.5 -142.5t-179.5 -344.5zM686 1454l12 117l338 -121l-8 -82z" />
<glyph unicode="&#xf3;" horiz-adv-x="1423" d="M143 594q18 170 118 314.5t253.5 228.5t323.5 84q171 0 307.5 -84t206 -228.5t51.5 -314.5q-18 -171 -117.5 -316t-253.5 -229t-325 -84q-170 0 -306.5 84t-206 229t-51.5 316zM285 594q-11 -100 18.5 -190.5t88 -155.5t144.5 -103.5t185 -38.5q204 0 362.5 142 t180.5 346q14 133 -40 245t-160.5 177t-240.5 65q-201 0 -358.5 -142.5t-179.5 -344.5zM682 1368l8 82l363 121l-13 -117z" />
<glyph unicode="&#xf4;" horiz-adv-x="1423" d="M143 594q18 170 118 314.5t253.5 228.5t323.5 84q171 0 307.5 -84t206 -228.5t51.5 -314.5q-18 -171 -117.5 -316t-253.5 -229t-325 -84q-170 0 -306.5 84t-206 229t-51.5 316zM285 594q-11 -100 18.5 -190.5t88 -155.5t144.5 -103.5t185 -38.5q204 0 362.5 142 t180.5 346q14 133 -40 245t-160.5 177t-240.5 65q-201 0 -358.5 -142.5t-179.5 -344.5zM653 1432l230 206l184 -206l-76 -70l-125 137l-151 -137z" />
<glyph unicode="&#xf5;" horiz-adv-x="1423" d="M143 594q18 170 118 314.5t253.5 228.5t323.5 84q171 0 307.5 -84t206 -228.5t51.5 -314.5q-18 -171 -117.5 -316t-253.5 -229t-325 -84q-170 0 -306.5 84t-206 229t-51.5 316zM285 594q-11 -100 18.5 -190.5t88 -155.5t144.5 -103.5t185 -38.5q204 0 362.5 142 t180.5 346q14 133 -40 245t-160.5 177t-240.5 65q-201 0 -358.5 -142.5t-179.5 -344.5zM627 1425q6 60 51.5 103t105.5 43q41 0 73 -22t44 -56q6 -12 21 -19.5t30 -7.5q25 0 45 17t23 43h80q-6 -60 -52.5 -103t-105.5 -43q-39 0 -70 21.5t-45 54.5q-17 31 -51 31 q-26 0 -46 -18t-21 -44h-82z" />
<glyph unicode="&#xf6;" horiz-adv-x="1423" d="M143 594q18 170 118 314.5t253.5 228.5t323.5 84q171 0 307.5 -84t206 -228.5t51.5 -314.5q-18 -171 -117.5 -316t-253.5 -229t-325 -84q-170 0 -306.5 84t-206 229t-51.5 316zM285 594q-11 -100 18.5 -190.5t88 -155.5t144.5 -103.5t185 -38.5q204 0 362.5 142 t180.5 346q14 133 -40 245t-160.5 177t-240.5 65q-201 0 -358.5 -142.5t-179.5 -344.5zM571 1481q4 37 35 63.5t68 26.5t60.5 -26.5t19.5 -63.5q-3 -38 -32.5 -65t-66.5 -27t-62 27t-22 65zM977 1481q5 37 34.5 63.5t67.5 26.5q37 0 60 -26.5t18 -63.5q-3 -38 -31 -65 t-65 -27q-38 0 -62.5 27t-21.5 65z" />
<glyph unicode="&#xf7;" horiz-adv-x="1390" d="M102 524v138h1186v-138h-1186zM592 94q0 42 31 72.5t73 30.5q44 0 74.5 -30.5t30.5 -72.5q0 -44 -30.5 -75t-74.5 -31q-43 0 -73.5 31t-30.5 75zM592 1096q0 44 30.5 75t73.5 31q44 0 74.5 -31t30.5 -75q0 -43 -30.5 -74t-74.5 -31q-43 0 -73.5 31t-30.5 74z" />
<glyph unicode="&#xf8;" horiz-adv-x="1439" d="M137 98l113 105q-58 79 -84 180.5t-14 210.5q18 170 117.5 314.5t253 228.5t323.5 84q109 0 207.5 -36.5t169.5 -101.5l114 103l88 -99l-110 -102q119 -176 96 -391q-18 -171 -117.5 -316t-253.5 -229t-325 -84q-221 0 -377 137l-113 -102zM293 594q-18 -163 65 -293 l756 684q-116 96 -283 96q-201 0 -358.5 -142.5t-179.5 -344.5zM446 203q124 -97 283 -97q100 0 194.5 38.5t167 103.5t120.5 155.5t59 190.5q17 161 -68 293z" />
<glyph unicode="&#xf9;" horiz-adv-x="1261" d="M168 440l78 746h141l-78 -746q-15 -152 67.5 -243t233.5 -91q101 0 197.5 48.5t162.5 133t77 183.5l73 715h142l-123 -1186h-142l21 211q-36 -88 -159 -167t-263 -79q-220 0 -335 131.5t-93 343.5zM608 1454l13 117l337 -121l-8 -82z" />
<glyph unicode="&#xfa;" horiz-adv-x="1261" d="M168 440l78 746h141l-78 -746q-15 -152 67.5 -243t233.5 -91q101 0 197.5 48.5t162.5 133t77 183.5l73 715h142l-123 -1186h-142l21 211q-36 -88 -159 -167t-263 -79q-220 0 -335 131.5t-93 343.5zM600 1368l8 82l363 121l-13 -117z" />
<glyph unicode="&#xfb;" horiz-adv-x="1261" d="M168 440l78 746h141l-78 -746q-15 -152 67.5 -243t233.5 -91q101 0 197.5 48.5t162.5 133t77 183.5l73 715h142l-123 -1186h-142l21 211q-36 -88 -159 -167t-263 -79q-220 0 -335 131.5t-93 343.5zM573 1432l230 206l184 -206l-76 -70l-125 137l-151 -137z" />
<glyph unicode="&#xfc;" horiz-adv-x="1261" d="M168 440l78 746h141l-78 -746q-15 -152 67.5 -243t233.5 -91q101 0 197.5 48.5t162.5 133t77 183.5l73 715h142l-123 -1186h-142l21 211q-36 -88 -159 -167t-263 -79q-220 0 -335 131.5t-93 343.5zM492 1481q4 37 34.5 63.5t67.5 26.5t60.5 -26.5t19.5 -63.5 q-3 -38 -32.5 -65t-66.5 -27t-61.5 27t-21.5 65zM897 1481q5 37 34.5 63.5t67.5 26.5q37 0 60 -26.5t18 -63.5q-3 -38 -31 -65t-65 -27q-38 0 -62.5 27t-21.5 65z" />
<glyph unicode="&#xfd;" horiz-adv-x="1189" d="M154 1186h151l307 -993l518 993h152l-799 -1536h-153l190 364zM563 1368l8 82l363 121l-12 -117z" />
<glyph unicode="&#xfe;" horiz-adv-x="1464" d="M86 -350l197 1886h141l-62 -590q210 275 517 275q102 0 195 -31.5t164.5 -89.5t122 -135.5t72.5 -173t11 -197.5q-18 -171 -118 -316t-254 -229t-324 -84q-303 0 -459 275l-62 -590h-141zM326 594q-11 -100 18.5 -190.5t88 -155.5t144.5 -103.5t185 -38.5 q100 0 194.5 38.5t167 103.5t120.5 155.5t59 190.5q14 133 -40 245t-160 177t-239 65q-201 0 -358.5 -142.5t-179.5 -344.5z" />
<glyph unicode="&#xff;" horiz-adv-x="1191" d="M154 1186h151l307 -993l518 993h152l-799 -1536h-153l190 364zM453 1481q4 37 34.5 63.5t67.5 26.5t60.5 -26.5t19.5 -63.5q-3 -38 -32 -65t-66 -27t-62 27t-22 65zM858 1481q5 37 35 63.5t68 26.5q37 0 59.5 -26.5t17.5 -63.5q-3 -38 -31 -65t-65 -27q-38 0 -62.5 27 t-21.5 65z" />
<glyph unicode="&#x152;" horiz-adv-x="2725" d="M152 768q23 218 149.5 402.5t322.5 292.5t414 108q202 0 367 -95t258 -255l33 315h1118l-14 -139h-977l-60 -559h836l-14 -142h-836l-57 -555h977l-15 -141h-1118l33 315q-126 -162 -311 -256t-388 -94q-163 0 -305.5 64t-238.5 171.5t-143.5 256t-30.5 311.5zM291 768 q-19 -180 53.5 -332.5t216 -241t324.5 -88.5q135 0 263 52t226 141t163 211.5t79 257.5q19 181 -53 333t-215 240.5t-324 88.5t-342.5 -88.5t-266.5 -240.5t-124 -333z" />
<glyph unicode="&#x153;" horiz-adv-x="2533" d="M143 594q18 170 118 314.5t253.5 228.5t323.5 84q180 0 320 -93.5t204 -248.5q95 155 253 248.5t337 93.5q127 0 238 -49.5t186.5 -133.5t113 -200.5t23.5 -243.5q-3 -39 -14 -70h-1100q8 -180 130.5 -299t305.5 -119q138 0 259 70.5t194 188.5l116 -72 q-99 -150 -253.5 -239t-329.5 -89q-179 0 -318 93.5t-203 248.5q-93 -156 -252.5 -249t-340.5 -93q-170 0 -306.5 84t-206 229t-51.5 316zM285 594q-11 -100 18.5 -190.5t88 -155.5t144.5 -103.5t185 -38.5q204 0 362.5 142t180.5 346q14 133 -40 245t-160.5 177t-240.5 65 q-201 0 -358.5 -142.5t-179.5 -344.5zM1415 664h961q-8 178 -132 296.5t-307 118.5t-330 -118.5t-192 -296.5z" />
<glyph unicode="&#x178;" horiz-adv-x="1372" d="M190 1536h172l414 -678l553 678h172l-672 -819l-73 -717h-140l74 717zM565 1712q4 37 35 63.5t68 26.5t60.5 -26.5t19.5 -63.5q-3 -38 -32.5 -65t-66.5 -27t-62 27t-22 65zM973 1712q5 37 33.5 63.5t66.5 26.5q37 0 60 -26.5t18 -63.5q-3 -38 -31 -65t-65 -27 q-38 0 -61.5 26.5t-20.5 65.5z" />
<glyph unicode="&#x2c6;" horiz-adv-x="823" d="M354 1432l230 206l184 -206l-76 -70l-125 137l-151 -137z" />
<glyph unicode="&#x2dc;" horiz-adv-x="872" d="M354 1425q6 60 52 103t106 43q41 0 73 -22t44 -56q6 -12 21 -19.5t30 -7.5q25 0 45 17t23 43h79q-6 -60 -52 -103t-105 -43q-39 0 -70 21.5t-45 54.5q-17 31 -51 31q-26 0 -46.5 -18t-21.5 -44h-82z" />
<glyph unicode="&#x2000;" horiz-adv-x="983" />
<glyph unicode="&#x2001;" horiz-adv-x="1966" />
<glyph unicode="&#x2002;" horiz-adv-x="983" />
<glyph unicode="&#x2003;" horiz-adv-x="1966" />
<glyph unicode="&#x2004;" horiz-adv-x="655" />
<glyph unicode="&#x2005;" horiz-adv-x="491" />
<glyph unicode="&#x2006;" horiz-adv-x="327" />
<glyph unicode="&#x2007;" horiz-adv-x="327" />
<glyph unicode="&#x2008;" horiz-adv-x="245" />
<glyph unicode="&#x2009;" horiz-adv-x="393" />
<glyph unicode="&#x200a;" horiz-adv-x="109" />
<glyph unicode="&#x2010;" horiz-adv-x="952" d="M197 524l14 138h666l-15 -138h-665z" />
<glyph unicode="&#x2011;" horiz-adv-x="952" d="M197 524l14 138h666l-15 -138h-665z" />
<glyph unicode="&#x2012;" horiz-adv-x="952" d="M197 524l14 138h666l-15 -138h-665z" />
<glyph unicode="&#x2013;" horiz-adv-x="1196" d="M145 524l15 138h1011l-14 -138h-1012z" />
<glyph unicode="&#x2014;" horiz-adv-x="1720" d="M145 524l15 138h1536l-15 -138h-1536z" />
<glyph unicode="&#x2018;" horiz-adv-x="413" d="M231 1235l15 137q8 74 59 126t115 52h22l-10 -98h-22q-28 0 -51.5 -24t-26.5 -56l-4 -35q6 4 18 4q44 0 71.5 -31t22.5 -75q-5 -43 -37.5 -74t-76.5 -31q-43 0 -71 31t-24 74z" />
<glyph unicode="&#x2019;" horiz-adv-x="413" d="M252 1130l10 99h23q27 0 49.5 23.5t27.5 56.5l3 34q-6 -4 -19 -4q-44 0 -70.5 31t-21.5 76q5 43 38 73.5t77 30.5q43 0 70.5 -30.5t23.5 -73.5l-14 -137q-8 -74 -59.5 -126.5t-115.5 -52.5h-22z" />
<glyph unicode="&#x201a;" horiz-adv-x="413" d="M109 -225l10 98h22q28 0 51.5 24t26.5 56l4 35q-6 -4 -18 -4q-44 0 -71.5 31t-22.5 75q5 43 37.5 74t76.5 31q43 0 70.5 -31t23.5 -74l-14 -137q-8 -74 -59 -126t-115 -52h-22z" />
<glyph unicode="&#x201c;" horiz-adv-x="622" d="M231 1235l15 137q8 74 59 126t115 52h22l-10 -98h-22q-28 0 -51.5 -24t-26.5 -56l-4 -35q6 4 18 4q44 0 71.5 -31t22.5 -75q-5 -43 -37.5 -74t-76.5 -31q-43 0 -71 31t-24 74zM481 1235l15 137q8 74 59 126t115 52h22l-10 -98h-23q-28 0 -51 -24t-26 -56l-4 -35q6 4 18 4 q44 0 71.5 -31t22.5 -75q-5 -43 -38 -74t-77 -31q-43 0 -70.5 31t-23.5 74z" />
<glyph unicode="&#x201d;" horiz-adv-x="622" d="M211 1130l10 99h23q28 0 50.5 24t27.5 56l2 34q-6 -4 -19 -4q-44 0 -70.5 31t-21.5 76q5 43 38 73.5t77 30.5q43 0 70.5 -30.5t23.5 -73.5l-14 -137q-8 -74 -59.5 -126.5t-115.5 -52.5h-22zM461 1130l10 99h23q27 0 49.5 23.5t27.5 56.5l2 34q-6 -4 -18 -4 q-44 0 -70.5 31t-21.5 76q5 43 38 73.5t77 30.5q43 0 70.5 -30.5t23.5 -73.5l-15 -137q-8 -74 -59 -126.5t-115 -52.5h-22z" />
<glyph unicode="&#x201e;" horiz-adv-x="622" d="M68 -225l10 98h22q28 0 51.5 24t26.5 56l4 35q-6 -4 -18 -4q-44 0 -71.5 31t-22.5 75q5 43 37.5 74t76.5 31q43 0 71 -31t24 -74l-15 -137q-8 -74 -59 -126t-115 -52h-22zM317 -225l11 98h22q28 0 51.5 24t26.5 56l4 35q-6 -4 -18 -4q-44 0 -72 31t-23 75q5 43 38 74 t77 31q43 0 70.5 -31t23.5 -74l-14 -137q-8 -74 -59 -126t-115 -52h-23z" />
<glyph unicode="&#x2022;" horiz-adv-x="827" d="M205 594q0 86 61.5 147.5t147.5 61.5q87 0 148 -61t61 -148q0 -88 -60.5 -148.5t-148.5 -60.5q-87 0 -148 61t-61 148z" />
<glyph unicode="&#x2026;" horiz-adv-x="1587" d="M90 88q5 43 39 74t78 31q43 0 70.5 -31t23.5 -74t-38 -73.5t-77 -30.5q-44 0 -72.5 30.5t-23.5 73.5zM698 88q5 43 38 74t77 31q43 0 70.5 -31t23.5 -74q-5 -43 -38 -73.5t-76 -30.5q-44 0 -72 30.5t-23 73.5zM1305 88q5 43 38 74t74 31q44 0 72.5 -31t23.5 -74 t-38.5 -73.5t-77.5 -30.5q-41 0 -68.5 30.5t-23.5 73.5z" />
<glyph unicode="&#x202f;" horiz-adv-x="393" />
<glyph unicode="&#x2039;" horiz-adv-x="546" d="M143 594l424 383l-20 -197l-207 -186l166 -188l-21 -197z" />
<glyph unicode="&#x203a;" horiz-adv-x="546" d="M102 209l21 197l207 188l-166 186l20 197l342 -383z" />
<glyph unicode="&#x205f;" horiz-adv-x="491" />
<glyph unicode="&#x20ac;" horiz-adv-x="1480" d="M129 559l14 137h179q1 13 2 36t2 36q1 11 5 34.5t5 35.5h-178l16 139h197q84 264 268 429t416 165q313 0 475 -305l-127 -72q-124 236 -363 236q-177 0 -316 -124.5t-210 -328.5h846l-17 -139h-868q-4 -22 -8 -70q0 -3 -3 -30t-3 -42h694l-14 -137h-672q30 -205 143 -329 t289 -124q242 0 412 234l112 -70q-225 -305 -538 -305q-155 0 -276.5 77.5t-193 211t-91.5 305.5h-197z" />
<glyph unicode="&#x2122;" horiz-adv-x="739" d="M82 1507v29h240v-29h-107v-278h-27v278h-106zM350 1229v307h29l125 -270l125 270h28v-307h-28v241l-111 -241h-26l-113 241v-241h-29z" />
<glyph unicode="&#x25fc;" horiz-adv-x="1187" d="M0 0v1188h1188v-1188h-1188z" />
<glyph unicode="&#xfb01;" horiz-adv-x="1075" d="M150 1047l14 139h139l12 104q12 117 102 199t206 82q117 0 190 -80l-111 -98q-36 39 -94 39q-57 0 -101 -41t-50 -101l-13 -104h631l-123 -1186h-141l109 1047h-490l-108 -1047h-142l109 1047h-139zM942 1479q5 37 35 64.5t67 27.5q38 0 61.5 -27.5t18.5 -64.5 q-3 -37 -31.5 -63.5t-66.5 -26.5q-37 0 -62 26.5t-22 63.5z" />
<glyph unicode="&#xfb02;" horiz-adv-x="1058" d="M150 1047l14 139h141l8 69q12 117 101.5 199t203.5 82h478l-160 -1536h-141l145 1397h-336q-57 0 -101 -41.5t-50 -100.5l-9 -69h244l-14 -139h-244l-108 -1047h-140l109 1047h-141z" />
<glyph unicode="&#xfb03;" horiz-adv-x="1705" d="M150 1047l14 139h139l12 104q12 117 102 199t206 82q117 0 190 -80l-111 -98q-36 39 -94 39q-57 0 -101 -41t-50 -101l-13 -104h490l12 104q12 117 101.5 199t205.5 82q118 0 191 -80l-111 -98q-36 39 -94 39q-57 0 -101.5 -41t-50.5 -101l-12 -104h631l-123 -1186h-141 l108 1047h-489l-109 -1047h-141l109 1047h-490l-108 -1047h-142l109 1047h-139zM1573 1479q5 37 35 64.5t67 27.5q38 0 61.5 -27.5t18.5 -64.5q-3 -37 -31.5 -63.5t-66.5 -26.5q-37 0 -62 26.5t-22 63.5z" />
<glyph unicode="&#xfb04;" horiz-adv-x="1671" d="M150 1047l14 139h139l12 104q12 117 102 199t206 82q117 0 190 -80l-111 -98q-36 39 -94 39q-57 0 -101 -41t-50 -101l-13 -104h474l8 69q12 117 102.5 199t204.5 82h475l-160 -1536h-139l145 1397h-335q-57 0 -101.5 -41.5t-50.5 -100.5l-8 -69h244l-15 -139h-244 l-108 -1047h-141l108 1047h-473l-108 -1047h-142l109 1047h-139z" />
</font>
</defs>
</svg>
