<?xml version="1.0" standalone="no"?>
<!DOCTYPE svg PUBLIC "-//W3C//DTD SVG 1.1//EN" "http://www.w3.org/Graphics/SVG/1.1/DTD/svg11.dtd" >
<svg xmlns="http://www.w3.org/2000/svg">
<metadata></metadata>
<defs>
<font id="kessel_105light_oblique" horiz-adv-x="315" >
<font-face units-per-em="2048" ascent="1536" descent="-512" />
<missing-glyph horiz-adv-x="552" />
<glyph horiz-adv-x="2048" />
<glyph horiz-adv-x="2048" />
<glyph unicode="&#xd;" horiz-adv-x="2048" />
<glyph unicode=" "  horiz-adv-x="552" />
<glyph unicode="&#x09;" horiz-adv-x="552" />
<glyph unicode="&#xa0;" horiz-adv-x="552" />
<glyph unicode="!" d="M104 41q2 23 19.5 39t42.5 16q23 0 38.5 -16t14.5 -39q-3 -23 -21.5 -39t-41.5 -16q-25 0 -40 16t-12 39zM168 350l115 1186h69l-135 -1186h-49z" />
<glyph unicode="&#x22;" horiz-adv-x="364" d="M102 1186v350h58v-350h-58zM209 1186v350h53v-350h-53z" />
<glyph unicode="#" horiz-adv-x="1269" d="M98 559l8 70h357l86 280h-414l8 68h430l175 559h71l-176 -559h279l176 559h71l-178 -559h340l-8 -68h-354l-88 -280h413l-8 -70h-428l-176 -559h-70l176 559h-280l-176 -559h-68l174 559h-340zM530 629h281l88 280h-278z" />
<glyph unicode="$" horiz-adv-x="1210" d="M94 125l47 55q88 -69 208 -108t257 -39q189 0 332 104t158 252q13 119 -63.5 211.5t-209.5 128.5l-284 78q-144 39 -228 141t-71 230q17 155 159 266.5t334 122.5l10 106h70l-10 -104q250 -9 434 -139l-45 -58q-173 125 -432 125q-114 0 -214.5 -42.5t-164 -116 t-72.5 -160.5q-10 -103 60.5 -187t191.5 -117l283 -75q158 -40 248 -153t75 -257q-17 -168 -171.5 -289.5t-360.5 -132.5l-12 -108h-70l12 106q-279 12 -471 160z" />
<glyph unicode="%" horiz-adv-x="1175" d="M217 1290q12 117 102.5 199t206.5 82q74 0 132.5 -34.5t89.5 -94.5q40 -64 108 -64q42 0 79.5 23t59.5 61l54 109l63 -27l-823 -1579l-62 27l693 1329q-46 -12 -70 -12q-35 0 -72 16q0 -6 -1 -17.5t-1 -17.5q-12 -115 -102.5 -196.5t-206.5 -81.5t-189 81.5t-61 196.5z M289 1290q-9 -88 45.5 -148.5t140.5 -60.5q88 0 156.5 61t77.5 148q9 86 -47 147.5t-144 61.5q-86 0 -153 -61.5t-76 -147.5zM561 244q12 117 102 198.5t207 81.5q114 0 187 -81.5t61 -198.5q-12 -115 -101.5 -197t-203.5 -82q-117 0 -190.5 81.5t-61.5 197.5zM631 244 q-9 -87 46 -148t142 -61q86 0 154.5 61.5t77.5 147.5t-46 147.5t-141 61.5q-88 0 -156 -61.5t-77 -147.5z" />
<glyph unicode="&#x26;" horiz-adv-x="1327" d="M131 471q17 164 125.5 295t265.5 184q-70 43 -107 120.5t-28 168.5q15 138 122 235t245 97q137 0 223.5 -97t71.5 -235q-13 -136 -120.5 -233t-244.5 -97q-181 0 -322.5 -129t-160.5 -309q-13 -118 34.5 -218.5t142.5 -159t214 -58.5q117 0 223.5 58.5t176.5 159 t83 218.5l27 262q11 100 90 172t180 72l-8 -68q-72 0 -130 -52t-65 -124l-51 -489q-7 -72 39.5 -123t118.5 -51l-6 -70q-95 0 -158 63t-63 154q-77 -115 -201 -183.5t-262 -68.5t-248.5 68t-166 184.5t-40.5 253.5zM455 1239q-10 -109 59 -185.5t178 -76.5q108 0 192.5 77 t94.5 185q12 108 -57 184t-177 76q-109 0 -193.5 -75.5t-96.5 -184.5z" />
<glyph unicode="'" horiz-adv-x="262" d="M102 1186v350h58v-350h-58z" />
<glyph unicode="(" horiz-adv-x="559" d="M225 592q28 261 124 517.5t243 461.5h70q-149 -196 -239.5 -451t-119.5 -528q-29 -270 9 -524.5t145 -452.5h-68q-106 205 -149 462t-15 515z" />
<glyph unicode=")" horiz-adv-x="559" d="M20 -385q149 197 239.5 451.5t119.5 525.5t-9 526.5t-145 452.5h70q104 -206 147 -463t15 -516q-28 -260 -124.5 -516.5t-244.5 -460.5h-68z" />
<glyph unicode="*" horiz-adv-x="755" d="M291 1227l168 84l-150 80l39 61l144 -94l10 178h69l-22 -178l160 94l28 -61l-166 -80l148 -84l-41 -62l-139 97l-15 -181h-69l26 181l-164 -97z" />
<glyph unicode="+" horiz-adv-x="1392" d="M102 559v70h560v557h69v-557h559v-70h-559v-559h-69v559h-560z" />
<glyph unicode="," horiz-adv-x="370" d="M68 -213l4 51h12q17 0 31.5 13t15.5 30l12 103h-10q-27 0 -43.5 19t-13.5 46q3 25 23 43.5t46 18.5t42.5 -18.5t13.5 -43.5l-19 -168q-3 -39 -33 -66.5t-69 -27.5h-12z" />
<glyph unicode="-" horiz-adv-x="950" d="M201 559l8 70h663l-8 -70h-663z" />
<glyph unicode="." horiz-adv-x="370" d="M76 49q3 25 23 43.5t46 18.5t42.5 -18.5t13.5 -43.5q-3 -28 -22.5 -46.5t-45.5 -18.5q-27 0 -43.5 19t-13.5 46z" />
<glyph unicode="/" horiz-adv-x="964" d="M121 -10l823 1581l60 -29l-822 -1577z" />
<glyph unicode="0" horiz-adv-x="1224" d="M156 471l61 592q14 138 94 255t204.5 185t262.5 68q137 0 246 -68t164 -185t41 -255l-62 -592q-15 -137 -94.5 -253.5t-202.5 -184.5t-260 -68q-138 0 -248 68t-165.5 184.5t-40.5 253.5zM229 471q-20 -180 94 -308t295 -128t322.5 128t161.5 308l61 592 q19 181 -95 308.5t-296 127.5q-181 0 -321.5 -127t-159.5 -309z" />
<glyph unicode="1" horiz-adv-x="559" d="M221 1325l8 82l375 205l-168 -1612h-69l155 1491z" />
<glyph unicode="2" horiz-adv-x="1212" d="M147 0l857 729q145 132 163 320q20 188 -98 321t-305 133q-124 0 -235.5 -61t-183.5 -165.5t-85 -227.5q-18 -191 100 -322l-55 -49q-136 152 -115 371q11 106 63 203t130 167t179 111t208 41q141 0 254.5 -69.5t171.5 -190t43 -262.5q-10 -105 -61.5 -201t-133.5 -170 l-712 -606h755l-6 -72h-934z" />
<glyph unicode="3" horiz-adv-x="1206" d="M129 487h70q-13 -123 36.5 -227.5t147.5 -165.5t221 -61t234.5 61t184 165.5t85.5 227.5q12 123 -38 228t-148.5 166t-221.5 61q-161 0 -294 -102l-56 -43l-41 51l750 616h-721l6 72h903l-647 -537q72 13 107 13q142 0 255 -70.5t170.5 -191.5t43.5 -263 q-11 -106 -63 -203t-129 -167t-178.5 -111t-207.5 -41q-142 0 -255.5 69.5t-171 190t-42.5 262.5z" />
<glyph unicode="4" horiz-adv-x="1212" d="M55 385l1004 1225l-121 -1155h281l-9 -70h-280l-39 -385h-70l39 385h-805zM199 455h669l99 936z" />
<glyph unicode="5" horiz-adv-x="1206" d="M129 489h72q-20 -189 97 -321.5t306 -132.5q124 0 235 60.5t182.5 165t84.5 228.5q19 188 -99.5 320.5t-306.5 132.5q-109 0 -207.5 -47.5t-168.5 -130.5v2l-70 10l213 760h668l-7 -68h-608l-164 -581q154 123 351 123q142 0 255 -70t170.5 -190t43.5 -261 q-15 -143 -98 -263.5t-210.5 -190.5t-269.5 -70q-143 0 -256.5 70t-170.5 190.5t-42 263.5z" />
<glyph unicode="6" horiz-adv-x="1210" d="M133 489q15 160 123 293l580 754h84l-447 -580q114 54 238 54q142 0 255 -70t170.5 -190t43.5 -261q-15 -143 -98 -263.5t-210.5 -190.5t-269.5 -70q-143 0 -256.5 70t-170.5 190.5t-42 263.5zM205 489q-20 -189 97 -321.5t306 -132.5q124 0 235 60.5t182.5 165 t84.5 228.5q19 188 -99 320.5t-306 132.5q-189 0 -335 -132.5t-165 -320.5z" />
<glyph unicode="7" horiz-adv-x="1118" d="M207 1464l6 72h1020l-799 -1536h-78l764 1464h-913z" />
<glyph unicode="8" horiz-adv-x="1175" d="M131 471q17 164 125.5 295t265.5 184q-70 44 -108 121t-29 168q15 138 122 235t245 97q137 0 224.5 -97t72.5 -235q-9 -90 -63.5 -167.5t-135.5 -121.5q147 -53 228.5 -183.5t64.5 -295.5q-15 -137 -95 -253.5t-203.5 -184.5t-260.5 -68q-138 0 -248 68t-165 184.5 t-40 253.5zM201 471q-20 -180 94.5 -308t294.5 -128t321.5 128t161.5 308q12 118 -36 219t-142.5 160t-212.5 59q-180 0 -321 -129t-160 -309zM455 1239q-10 -109 59 -185.5t176 -76.5q108 0 193.5 77t95.5 185q12 108 -58 184t-178 76t-192 -76t-96 -184z" />
<glyph unicode="9" horiz-adv-x="1210" d="M190 1047q15 143 98 263.5t210.5 190.5t269.5 70q143 0 256.5 -70t170.5 -190.5t42 -263.5q-15 -155 -123 -293l-579 -754h-84l446 580q-117 -54 -238 -54q-142 0 -255.5 70t-171 190t-42.5 261zM260 1047q-13 -123 36.5 -227.5t147.5 -165t222 -60.5q188 0 333.5 132.5 t165.5 320.5q20 189 -97 321.5t-306 132.5q-124 0 -235 -60.5t-182.5 -165t-84.5 -228.5z" />
<glyph unicode=":" horiz-adv-x="370" d="M76 49q3 25 23 43.5t46 18.5t42.5 -18.5t13.5 -43.5q-3 -28 -22.5 -46.5t-45.5 -18.5q-27 0 -43.5 19t-13.5 46zM190 1141q3 25 23.5 43t46.5 18t42 -18t13 -43q-3 -28 -22 -47t-45 -19q-27 0 -44 19.5t-14 46.5z" />
<glyph unicode=";" horiz-adv-x="370" d="M68 -213l4 51h12q17 0 31.5 13t15.5 30l12 103h-10q-27 0 -43.5 19t-13.5 46q3 25 23 43.5t46 18.5t42.5 -18.5t13.5 -43.5l-19 -168q-3 -39 -33 -66.5t-69 -27.5h-12zM190 1141q3 25 23.5 43t46.5 18t42 -18t13 -43q-3 -28 -22 -47t-45 -19q-27 0 -44 19.5t-14 46.5z " />
<glyph unicode="&#x3c;" horiz-adv-x="864" d="M82 559v70l700 557v-88l-630 -504l630 -506v-88z" />
<glyph unicode="=" horiz-adv-x="1390" d="M102 385v70h1186v-70h-1186zM102 733v70h1186v-70h-1186z" />
<glyph unicode="&#x3e;" horiz-adv-x="864" d="M82 0v88l631 506l-631 504v88l700 -557v-70z" />
<glyph unicode="?" horiz-adv-x="1030" d="M209 1210q43 155 174.5 258t292.5 103q118 0 212.5 -58.5t142.5 -158.5t36 -217q-13 -119 -82.5 -220t-176 -160t-224.5 -59q-59 0 -103.5 -40.5t-50.5 -98.5t30 -98.5t95 -40.5q29 0 59 12l23 -61q-47 -21 -90 -21q-86 0 -142 61.5t-47 147.5q9 87 78 149t156 62 q152 0 269 106.5t134 260.5q15 151 -79 257.5t-246 106.5q-136 0 -247 -86.5t-147 -216.5zM459 37q3 25 20.5 41t40.5 16t37.5 -16t11.5 -41q-2 -22 -19 -37.5t-40 -15.5t-38 15.5t-13 37.5z" />
<glyph unicode="@" horiz-adv-x="1789" d="M162 768q17 163 96.5 311.5t198 256t274 171.5t318.5 64t305 -64t238 -171.5t144 -256t31 -311.5l-26 -244q-7 -86 -75.5 -147.5t-156.5 -61.5q-86 0 -141 61t-47 148l2 2q-72 -97 -179 -154t-226 -57q-189 0 -307.5 132t-98.5 321t165.5 321t334.5 132q123 0 221 -60 t147.5 -164.5t36.5 -228.5l-26 -244q-6 -58 31 -98.5t94 -40.5q59 0 104 40.5t51 98.5l27 244q16 148 -28.5 283.5t-133 233.5t-218.5 156t-278 58q-198 0 -377 -98t-295 -266.5t-137 -366.5q-16 -149 28 -285t132 -234t217.5 -156t278.5 -58q176 0 338 78l22 -64 q-182 -84 -366 -84q-218 0 -392 108t-262 293t-65 402zM580 768q-17 -158 83.5 -270.5t260.5 -112.5q158 0 282.5 112.5t141.5 270.5t-83.5 271.5t-258.5 113.5q-159 0 -284 -113t-142 -272z" />
<glyph unicode="A" horiz-adv-x="1388" d="M31 0l831 1606l496 -1606h-78l-117 385h-856l-198 -385h-78zM342 455h799l-297 968z" />
<glyph unicode="B" horiz-adv-x="1357" d="M123 0l160 1536h698q159 0 260 -112q88 -98 88 -231q0 -20 -2 -40q-12 -110 -78 -201t-164 -139q117 -45 182 -153q54 -90 54 -198q0 -22 -2 -44q-19 -173 -154.5 -295.5t-308.5 -122.5h-733zM199 70h663q144 0 257 102.5t128 245.5q2 21 2 40q0 120 -78 208 q-91 102 -235 102h-664zM279 838h628q131 0 233 91.5t115 223.5q2 19 2 37q0 106 -70 184q-82 92 -212 92h-629z" />
<glyph unicode="C" horiz-adv-x="1515" d="M152 768q23 217 150 402t323 293t413 108q162 0 303 -63.5t242 -174.5l-55 -49q-91 102 -219.5 158.5t-278.5 56.5q-198 0 -376.5 -98t-294 -266.5t-136.5 -366.5q-4 -40 -4 -79q0 -107 32 -206q44 -136 131.5 -234t216.5 -156t278 -58t289.5 57t252.5 156l45 -49 q-124 -111 -277.5 -172.5t-316.5 -61.5t-305 64t-238 171.5t-144 255.5q-35 110 -35 228q0 41 4 84z" />
<glyph unicode="D" horiz-adv-x="1486" d="M123 0l160 1536h524q209 0 375 -103t250 -280q67 -140 67 -300q0 -42 -4 -85q-22 -209 -143.5 -385.5t-308.5 -279.5t-396 -103h-524zM199 70h454q142 0 276.5 55t237.5 148.5t172 222.5t84 272q4 39 4 78q0 145 -60 272q-76 161 -226.5 254.5t-339.5 93.5h-455z" />
<glyph unicode="E" horiz-adv-x="1312" d="M123 0l160 1536h1118l-6 -70h-1049l-70 -663h908l-8 -70h-908l-69 -663h1048l-6 -70h-1118z" />
<glyph unicode="F" horiz-adv-x="1234" d="M123 0l160 1536h1081l-6 -72h-1012l-70 -661h873l-8 -70h-873l-75 -733h-70z" />
<glyph unicode="G" horiz-adv-x="1587" d="M152 768q23 217 150 402t323 293t413 108q162 0 303 -63.5t242 -174.5l-55 -49q-91 102 -219.5 158.5t-278.5 56.5q-198 0 -376.5 -98t-294 -266.5t-136.5 -366.5q-4 -40 -4 -79q0 -106 32 -206q44 -136 131.5 -234t216.5 -156t278 -58q159 0 306 62.5t261 174.5l49 461 h-543l8 70h611l-60 -557q-127 -132 -293 -206.5t-346 -74.5q-163 0 -305 64t-238 171.5t-144 255.5q-35 110 -35 228q0 41 4 84z" />
<glyph unicode="H" horiz-adv-x="1431" d="M123 0l160 1536h69l-76 -733h1047l76 733h69l-159 -1536h-70l76 733h-1047l-75 -733h-70z" />
<glyph unicode="I" d="M123 0l160 1536h69l-159 -1536h-70z" />
<glyph unicode="J" horiz-adv-x="880" d="M49 88l55 49q89 -102 236 -102q145 0 258.5 102.5t128.5 247.5l121 1151h70l-121 -1151q-19 -173 -155 -296.5t-308 -123.5q-85 0 -159 32.5t-126 90.5z" />
<glyph unicode="K" horiz-adv-x="1370" d="M123 0l160 1536h69l-108 -1049l1157 1049h98l-848 -768l688 -768h-98l-645 719l-365 -330l-38 -389h-70z" />
<glyph unicode="L" horiz-adv-x="1200" d="M123 0l160 1536h69l-153 -1466h977l-7 -70h-1046z" />
<glyph unicode="M" horiz-adv-x="1781" d="M123 0l168 1610l688 -768l848 768l-168 -1610h-70l150 1440l-770 -697l-627 697l-149 -1440h-70z" />
<glyph unicode="N" horiz-adv-x="1433" d="M123 0l168 1610l964 -1477l148 1403h67l-167 -1610l-965 1475l-145 -1401h-70z" />
<glyph unicode="O" horiz-adv-x="1748" d="M152 768q23 218 149.5 402.5t322.5 292.5t414 108q163 0 305 -64t238.5 -171.5t144.5 -255.5q35 -110 35 -228q0 -42 -4 -84q-23 -217 -150 -402t-323.5 -293t-413.5 -108q-163 0 -305.5 64t-238.5 171.5t-144 255.5q-35 109 -34 227q0 42 4 85zM223 768q-4 -40 -4 -79 q0 -107 32 -206q44 -136 131.5 -234t216.5 -156t278 -58q198 0 377 98t295 266.5t137 368.5q4 39 4 78q0 106 -32 206q-44 136 -132 233.5t-218 155.5t-278 58q-198 0 -376.5 -98t-294 -266.5t-136.5 -366.5z" />
<glyph unicode="P" horiz-adv-x="1347" d="M123 0l160 1536h682q127 0 229 -63t154 -172q41 -86 41 -184q0 -26 -3 -54q-13 -127 -88 -235t-190 -171t-242 -63h-612l-61 -594h-70zM262 664h612q109 0 206.5 53.5t160.5 145t74 200.5q2 23 2 46q1 137 -89 239q-104 118 -270 118h-612z" />
<glyph unicode="Q" horiz-adv-x="1748" d="M152 768q23 218 149.5 402.5t322.5 292.5t414 108q163 0 305 -64t238.5 -171.5t144.5 -255.5q35 -110 35 -228q0 -41 -4 -84q-17 -155 -87.5 -294.5t-182.5 -246.5l176 -196l-10 -97l-219 244q-121 -102 -265.5 -157.5t-298.5 -55.5q-163 0 -305.5 64t-238.5 171.5 t-144 255.5q-34 110 -34 227q0 42 4 85zM221 768q-4 -42 -4 -82q0 -183 89 -336q110 -186 312 -266q-66 78 -66 187q0 23 3 46q15 146 129 249.5t260 103.5q144 0 238 -101l262 -293q101 99 165 226t79 266q4 39 4 77q0 107 -32 207q-45 135 -133.5 233t-218.5 156t-278 58 q-198 0 -377 -98t-295 -266.5t-137 -366.5zM623 317q-2 -16 -2 -32q0 -96 65 -167q74 -83 191 -83q139 0 271 50.5t241 141.5l-263 289q-68 84 -190 84q-117 0 -209 -82.5t-104 -200.5z" />
<glyph unicode="R" horiz-adv-x="1357" d="M123 0l160 1536h682q127 0 229 -63t154 -172q41 -86 41 -184q0 -26 -3 -54q-19 -173 -146.5 -305t-299.5 -160l240 -598h-80l-234 594h-612l-61 -594h-70zM262 664h612q109 0 206.5 53.5t160.5 145t74 200.5q2 23 2 46q1 137 -89 239q-104 118 -270 118h-612z" />
<glyph unicode="S" horiz-adv-x="1210" d="M94 125l47 55q88 -69 208 -108t257 -39q189 0 332 104t158 252q2 17 2 34q0 97 -66 177q-76 92 -209 129l-284 78q-144 39 -228 141q-73 88 -73 196q0 17 2 34q11 107 85.5 197t192 142t250.5 52q273 0 469 -139l-45 -58q-173 125 -432 125q-114 0 -214 -42.5 t-163 -115.5t-72 -161l-2 -26q-1 -89 61 -162q70 -84 191 -116l283 -75q158 -40 248 -153q77 -97 77 -216q0 -20 -2 -41q-19 -175 -185 -299.5t-382 -124.5q-147 0 -277.5 42.5t-228.5 117.5z" />
<glyph unicode="T" horiz-adv-x="1247" d="M184 1466l6 70h1186l-6 -70h-557l-154 -1466h-71l153 1466h-557z" />
<glyph unicode="U" horiz-adv-x="1431" d="M180 559l103 977h69l-102 -977q-3 -30 -4 -58q0 -110 46 -206q58 -121 171.5 -190.5t255.5 -69.5t269.5 70t210 190.5t97.5 263.5l103 977h69l-102 -977q-17 -161 -110.5 -298t-238 -216.5t-304.5 -79.5q-161 0 -290 79.5t-195 216.5q-52 109 -52 233q0 32 4 65z" />
<glyph unicode="V" horiz-adv-x="1394" d="M190 1536h78l441 -1423l737 1423h78l-834 -1606z" />
<glyph unicode="W" horiz-adv-x="1898" d="M190 1536h76l266 -1368l586 1442l281 -1442l555 1368h74l-654 -1610l-280 1444l-586 -1444z" />
<glyph unicode="X" horiz-adv-x="1282" d="M31 0l649 768l-490 768h89l448 -709l598 709h86l-645 -768l485 -768h-86l-450 709l-596 -709h-88z" />
<glyph unicode="Y" horiz-adv-x="1320" d="M190 1536h91l462 -731l617 731h90l-680 -803l-76 -733h-69l75 733z" />
<glyph unicode="Z" horiz-adv-x="1312" d="M25 0l1273 1464h-1083l6 72h1227l-1274 -1466h1081l-6 -70h-1224z" />
<glyph unicode="[" horiz-adv-x="505" d="M127 -350l197 1886h280l-6 -70h-211l-184 -1747h211l-6 -69h-281z" />
<glyph unicode="\" horiz-adv-x="964" d="M285 1542l63 29l492 -1581l-66 -25z" />
<glyph unicode="]" horiz-adv-x="505" d="M25 -350l6 69h211l184 1747h-211l6 70h281l-197 -1886h-280z" />
<glyph unicode="^" horiz-adv-x="1222" d="M123 768l455 768h69l453 -768h-82l-406 690l-409 -690h-80z" />
<glyph unicode="_" horiz-adv-x="1062" d="M0 -186h1186v-52h-1186v52z" />
<glyph unicode="`" horiz-adv-x="718" d="M340 1495l8 76l338 -121l-4 -41z" />
<glyph unicode="a" horiz-adv-x="1462" d="M143 594q18 170 118 314.5t253.5 228.5t323.5 84q181 0 321.5 -93t202.5 -247l31 305h69l-123 -1186h-69l30 305q-94 -154 -253 -247t-340 -93q-170 0 -306.5 84t-206.5 229q-55 115 -55 247q0 34 4 69zM215 594q-3 -30 -3 -60q0 -82 24 -158q33 -104 100 -178.5 t165.5 -118.5t211.5 -44q152 0 288.5 75t225 203.5t104.5 280.5q3 30 3 60q0 80 -24 156q-33 104 -100 179t-166 119.5t-213 44.5q-151 0 -287 -75t-224.5 -204t-104.5 -280z" />
<glyph unicode="b" horiz-adv-x="1462" d="M123 0l160 1536h69l-65 -655q93 154 253 247t339 93q127 0 238.5 -49.5t187 -133.5t113.5 -200q28 -85 28 -176q0 -33 -4 -68q-18 -171 -117.5 -316t-253 -229t-323.5 -84q-179 0 -320 93t-203 247l-32 -305h-70zM254 594q-3 -30 -3 -59q0 -117 49 -221 q61 -128 181.5 -203.5t272.5 -75.5t288 75t224 203.5t104 280.5q3 30 3 60q0 80 -24 156q-33 104 -99.5 179t-165 119.5t-212.5 44.5q-152 0 -288.5 -75t-225 -204t-104.5 -280z" />
<glyph unicode="c" horiz-adv-x="1232" d="M143 594q18 170 118 314.5t254 228.5t325 84q129 0 239 -48t189 -137l-58 -49q-70 78 -166 122t-210 44q-113 0 -221.5 -44.5t-191.5 -119.5t-138.5 -178.5t-67.5 -216.5q-3 -30 -3 -59q0 -83 24 -159q34 -104 101 -178.5t166 -118.5t212 -44q114 0 220.5 43.5 t192.5 120.5l46 -49q-208 -185 -465 -185q-171 0 -308 84t-207 229q-55 115 -55 247q0 34 4 69z" />
<glyph unicode="d" horiz-adv-x="1462" d="M143 594q18 170 118 314.5t253.5 228.5t323.5 84q179 0 319.5 -93t202.5 -247l70 655h69l-160 -1536h-69l28 305q-93 -154 -252.5 -247t-338.5 -93q-170 0 -306.5 84t-206.5 229q-55 115 -55 247q0 34 4 69zM215 594q-3 -32 -4 -63q1 -115 49 -217q60 -128 180.5 -203.5 t272.5 -75.5t288 75t224.5 203.5t105.5 280.5q3 30 3 60q0 80 -24 156q-33 104 -100 179t-166 119.5t-213 44.5q-152 0 -288 -75t-224 -204t-104 -280z" />
<glyph unicode="e" horiz-adv-x="1417" d="M143 594q14 127 76 243.5t154.5 200.5t214 133.5t248.5 49.5t238 -49.5t186.5 -133.5t113.5 -200q27 -85 27 -176q0 -34 -4 -68l-4 -35h-1184q0 -11 -1 -21q0 -133 60 -244q64 -120 180.5 -189.5t262.5 -69.5q154 0 291 78.5t225 210.5l57 -35q-99 -148 -252.5 -236 t-326.5 -88q-170 0 -306 84.5t-205 229.5q-55 115 -55 246q0 34 4 69zM217 629h1112q1 12 1 25q0 130 -58 239q-64 120 -181 189t-262 69q-146 0 -278 -69t-220.5 -188.5t-113.5 -264.5z" />
<glyph unicode="f" horiz-adv-x="659" d="M158 1116l6 70h139l14 125q10 107 95 183.5t192 76.5q120 0 187 -86l-58 -49q-51 67 -135 67q-78 0 -141 -56.5t-70 -135.5l-14 -125h315l-6 -70h-315l-117 -1116h-70l117 1116h-139z" />
<glyph unicode="g" horiz-adv-x="1462" d="M143 594q18 170 118 314.5t253.5 228.5t323.5 84q181 0 321.5 -93t202.5 -247l31 305h69l-98 -942q-18 -170 -117 -315t-252.5 -229.5t-324.5 -84.5q-264 0 -475 131l43 61q196 -122 438 -122q152 0 288.5 75t225 204t104.5 280l6 61q-94 -154 -253 -247t-340 -93 q-170 0 -306.5 84t-206.5 229q-55 115 -55 247q0 34 4 69zM215 594q-3 -30 -3 -60q0 -82 24 -158q33 -103 100 -178t165.5 -119t211.5 -44q152 0 288.5 75t225 203.5t104.5 280.5q3 30 3 60q0 81 -24 156q-33 104 -100 179t-166 119.5t-213 44.5q-151 0 -287 -75 t-224.5 -204t-104.5 -280z" />
<glyph unicode="h" horiz-adv-x="1257" d="M123 0l160 1536h69l-59 -575q80 120 208 190t273 70q132 0 238 -65q104 -66 158 -178q42 -89 43 -191q0 -27 -3 -54l-75 -733h-70l76 733q3 26 3 50q0 141 -94 247q-110 124 -282 123q-93 0 -181 -36t-155.5 -97t-112.5 -145t-55 -177l-71 -698h-70z" />
<glyph unicode="i" d="M123 0l123 1186h69l-122 -1186h-70zM268 1522q1 20 17.5 34.5t36.5 14.5q20 -1 34 -15q12 -13 11 -29v-5q-3 -20 -19.5 -34.5t-36.5 -14.5q-20 1 -33 15q-11 12 -11 27q0 3 1 7z" />
<glyph unicode="j" horiz-adv-x="503" d="M-104 -299l55 49q48 -67 135 -67q78 0 141 57t70 135l137 1311h70l-137 -1311q-10 -109 -94 -184.5t-193 -75.5q-117 0 -184 86zM455 1520q3 20 19 34.5t36 14.5t33 -15q11 -11 11 -27q0 -3 -1 -7q-2 -20 -17.5 -35t-35.5 -15t-34 15q-11 13 -11 30v5z" />
<glyph unicode="k" horiz-adv-x="1085" d="M123 0l160 1536h69l-116 -1118l847 768h101l-656 -592l533 -594h-100l-488 545l-248 -226l-32 -319h-70z" />
<glyph unicode="l" d="M123 0l160 1536h69l-159 -1536h-70z" />
<glyph unicode="m" horiz-adv-x="1779" d="M123 0l123 1186h69l-14 -152q64 86 161 136.5t204 50.5q120 0 209 -65.5t124 -170.5q61 106 169.5 171t232.5 65q159 -1 259 -113q86 -96 86 -225q0 -22 -3 -45l-86 -838h-70l86 838q2 18 2 35q0 107 -70 187q-81 92 -210 91q-145 0 -258.5 -102t-128.5 -246l-84 -803 h-70l86 838q2 19 2 38q0 107 -70 184q-82 91 -213 91q-143 0 -255.5 -102t-127.5 -246l-83 -803h-70z" />
<glyph unicode="n" horiz-adv-x="1257" d="M123 0l123 1186h69l-22 -225q84 118 211.5 189t267.5 71q100 0 187 -39t145.5 -104.5t87.5 -155.5q21 -65 21 -135q0 -27 -3 -54l-75 -733h-70l76 733q3 25 3 50q0 141 -94 245q-110 122 -284 123q-187 0 -334.5 -133.5t-167.5 -321.5l-71 -696h-70z" />
<glyph unicode="o" horiz-adv-x="1423" d="M143 594q18 170 118 314.5t253.5 228.5t323.5 84q171 0 308 -84q136 -85 206 -229q55 -115 55 -245q0 -34 -4 -69q-18 -171 -117.5 -316t-253.5 -229t-325 -84q-170 0 -306.5 84t-206.5 229q-55 115 -55 247q0 34 4 69zM215 594q-3 -30 -3 -60q0 -82 24 -158 q33 -104 100 -178.5t165.5 -118.5t211.5 -44q152 0 288.5 75t225 203.5t104.5 280.5q3 30 3 60q0 80 -24 156q-33 104 -100 179t-166 119.5t-213 44.5q-151 0 -287 -75t-224.5 -204t-104.5 -280z" />
<glyph unicode="p" horiz-adv-x="1462" d="M86 -350l160 1536h69l-28 -305q93 154 253 247t339 93q128 0 239 -49.5t186.5 -134t113.5 -201.5q28 -85 28 -176q0 -34 -4 -68q-18 -170 -117.5 -314.5t-253 -228.5t-323.5 -84q-179 0 -320 93t-203 247l-69 -655h-70zM254 592q-3 -30 -3 -60q0 -81 24 -156 q33 -104 100 -179t166 -119.5t213 -44.5q152 0 288 75t224 204t104 280q3 32 3 63q0 116 -47 217q-61 129 -181.5 204t-272.5 75t-288 -75t-224.5 -203.5t-105.5 -280.5z" />
<glyph unicode="q" horiz-adv-x="1462" d="M143 592q18 171 118 316t253.5 229t323.5 84q179 0 319.5 -93t202.5 -247l33 305h69l-159 -1536h-70l65 655q-93 -154 -252.5 -247t-338.5 -93q-170 0 -306.5 84t-206.5 229q-55 114 -55 245q0 34 4 69zM215 592q-3 -30 -3 -60q0 -81 24 -156q33 -104 99.5 -179 t165 -119.5t212.5 -44.5q152 0 288.5 75t225 204t104.5 280q3 30 3 59q0 118 -49 221q-61 129 -181.5 204t-272.5 75t-288 -75t-224 -203.5t-104 -280.5z" />
<glyph unicode="r" horiz-adv-x="661" d="M123 0l123 1186h69l-16 -164q70 92 172.5 145.5t214.5 53.5q49 0 86 -11l-24 -65q-35 6 -68 6q-151 0 -271 -107.5t-135 -259.5l-81 -784h-70z" />
<glyph unicode="s" horiz-adv-x="1089" d="M90 82l45 57q162 -106 404 -106q178 0 295.5 73.5t130.5 200.5q2 15 2 29q0 90 -66 154q-76 74 -205 92l-196 26q-142 19 -220 104q-66 73 -67 175q0 17 2 35q15 140 140 219.5t317 79.5q224 0 399 -99l-39 -61q-72 40 -170 65t-196 25q-162 0 -264.5 -61t-112.5 -170 q-1 -11 -1 -22q0 -76 56 -136q64 -68 174 -84l199 -27q160 -23 248 -113q75 -77 76 -194q0 -20 -3 -41q-17 -157 -154 -247.5t-352 -90.5q-260 0 -442 117z" />
<glyph unicode="t" horiz-adv-x="606" d="M158 1116l6 70h139l29 268h69l-28 -268h315l-6 -70h-315l-88 -837q-1 -13 -2 -25q1 -72 47 -124q54 -60 141 -60h106l-6 -70h-106q-116 0 -189 80q-63 69 -63 164q0 16 2 32l88 840h-139z" />
<glyph unicode="u" horiz-adv-x="1257" d="M170 453l76 733h69l-75 -733q-3 -26 -3 -50q0 -140 93 -245q109 -123 282 -123q124 0 235.5 60.5t183.5 165t85 228.5l72 697h69l-122 -1186h-70l22 229q-84 -121 -211 -192.5t-270 -71.5q-133 0 -238.5 65.5t-158.5 177.5q-42 89 -42 191q0 26 3 54z" />
<glyph unicode="v" horiz-adv-x="1191" d="M154 1186h77l373 -1090l604 1090h76l-696 -1260z" />
<glyph unicode="w" horiz-adv-x="1705" d="M154 1186h73l256 -1045l502 1119l268 -1119l471 1045h74l-567 -1260l-268 1121l-502 -1121z" />
<glyph unicode="x" horiz-adv-x="1095" d="M31 0l532 594l-409 592h90l370 -537l484 537h90l-535 -592l412 -594h-90l-373 537l-481 -537h-90z" />
<glyph unicode="y" horiz-adv-x="1191" d="M154 1186h77l371 -1092l604 1092h78l-848 -1536h-76l197 358z" />
<glyph unicode="z" horiz-adv-x="1064" d="M25 0l991 1118h-838l6 68h979l-989 -1116h836l-6 -70h-979z" />
<glyph unicode="{" horiz-adv-x="643" d="M221 559l8 70q71 0 128.5 51t64.5 123l51 487q10 101 89 173.5t179 72.5l-6 -72q-72 0 -127.5 -50.5t-62.5 -123.5l-51 -487q-7 -65 -46.5 -121.5t-97.5 -87.5q52 -33 79 -88.5t20 -120.5l-52 -487q-7 -75 37.5 -126t116.5 -51l-6 -71q-100 0 -164.5 73t-54.5 175l51 487 q7 70 -39 122t-117 52z" />
<glyph unicode="|" horiz-adv-x="561" d="M246 -350v1886h69v-1886h-69z" />
<glyph unicode="}" horiz-adv-x="643" d="M25 -350l6 71q72 0 127.5 51t62.5 126l51 487q7 65 46.5 120.5t97.5 88.5q-52 31 -79 87.5t-20 121.5l52 487q7 73 -37.5 123.5t-116.5 50.5l6 72q100 0 164.5 -72.5t54.5 -173.5l-51 -487q-7 -72 39 -123t117 -51l-8 -70q-71 0 -128.5 -52t-64.5 -122l-51 -487 q-10 -103 -89 -175.5t-179 -72.5z" />
<glyph unicode="~" horiz-adv-x="915" d="M123 526q0 80 56.5 136.5t135.5 56.5q56 0 102 -30t70 -79q14 -32 45 -52.5t68 -20.5q49 0 85 36t36 86h72q0 -79 -56.5 -135.5t-136.5 -56.5q-56 0 -103 30t-69 78q-15 33 -45.5 53.5t-67.5 20.5q-51 0 -85.5 -36t-34.5 -87h-72z" />
<glyph unicode="&#xa1;" d="M123 0l133 1186h49l-112 -1186h-70zM256 1495q3 24 21 39.5t42 15.5t39.5 -16t12.5 -39q-1 -23 -20.5 -39t-43.5 -16t-38.5 15.5t-12.5 39.5z" />
<glyph unicode="&#xa2;" horiz-adv-x="1230" d="M143 594q25 240 204.5 418.5t420.5 206.5l14 143h70l-14 -141q129 0 239 -48t189 -137l-58 -49q-70 78 -166.5 122t-210.5 44q-151 0 -287 -75t-224.5 -204t-104.5 -280q-12 -114 21 -217.5t100 -178.5t165.5 -119t211.5 -44q114 0 220.5 43.5t192.5 120.5l45 -49 q-208 -185 -464 -185l-15 -139h-69l14 141q-235 28 -377.5 207t-116.5 420z" />
<glyph unicode="&#xa3;" horiz-adv-x="1239" d="M82 14l115 101q93 90 104 200l43 418h-186l8 70h186l27 260q23 213 186 360q107 97 240.5 131.5t260 0t214.5 -131.5l-55 -49q-115 125 -297 125t-322.5 -127.5t-159.5 -308.5l-26 -260h584l-9 -70h-583l-43 -420q-9 -64 -31 -114q94 34 190.5 12t159.5 -96 q74 -79 190 -79t205 79l35 35l49 -50l-39 -34q-112 -101 -257 -101t-236 101q-72 85 -187 85t-206 -85l-115 -101z" />
<glyph unicode="&#xa4;" horiz-adv-x="1452" d="M98 594q0 117 42.5 225t117.5 193l-125 125l49 49l125 -125q181 160 420 160q240 0 418 -160l125 125l49 -49l-125 -125q160 -178 160 -418q0 -118 -42 -227t-118 -193l125 -125l-49 -49l-125 125q-178 -160 -418 -160q-239 0 -420 160l-125 -125l-49 49l125 125 q-75 85 -117.5 193.5t-42.5 226.5zM170 594q0 -114 44 -217.5t119 -178.5t178 -119t216 -44q151 0 279 75t202 203.5t74 280.5q0 113 -44 216.5t-118 178.5t-177 119.5t-216 44.5t-216 -44.5t-178 -119.5t-119 -178.5t-44 -216.5z" />
<glyph unicode="&#xa5;" horiz-adv-x="1165" d="M190 698l9 70h422l-99 174h-305l6 70h260l-293 524h84l394 -707l542 707h84l-403 -524h260l-6 -70h-307l-133 -174h421l-8 -70l-430 -2l-72 -696h-69l71 696z" />
<glyph unicode="&#xa6;" horiz-adv-x="317" d="M123 -102v591h72v-591h-72zM123 698v594h72v-594h-72z" />
<glyph unicode="&#xa7;" horiz-adv-x="1007" d="M96 -61l70 26q-12 -117 77 -198.5t226 -81.5t243.5 82t118.5 198q12 115 -77 197t-226 82q-167 0 -273 102.5t-91 247.5q10 101 81 186.5t177 128.5q-97 42 -150 126.5t-43 185.5q15 145 143.5 247.5t295.5 102.5q156 0 261 -93t105 -227l-71 -30q12 116 -77.5 197 t-226.5 81t-243.5 -81t-118.5 -197t78 -197.5t227 -81.5q165 0 272.5 -102.5t92.5 -245.5q-10 -103 -81.5 -188t-178.5 -127q98 -43 151 -127.5t43 -186.5q-15 -145 -143.5 -247.5t-294.5 -102.5q-159 0 -264 94t-103 230zM231 594q-12 -116 78.5 -197.5t227.5 -81.5 t242.5 81t117.5 198q12 115 -77 196.5t-226 81.5t-244 -81.5t-119 -196.5z" />
<glyph unicode="&#xa8;" horiz-adv-x="563" d="M190 1522q1 20 17.5 34.5t36.5 14.5t33.5 -14.5t11.5 -34.5q-3 -20 -19.5 -34.5t-36.5 -14.5t-33 14.5t-10 34.5zM596 1522q1 20 17 34.5t36 14.5t32.5 -14.5t10.5 -34.5q-3 -21 -18 -35t-35 -14t-33 14.5t-10 34.5z" />
<glyph unicode="&#xa9;" horiz-adv-x="1419" d="M82 594q0 170 84 314.5t228.5 228.5t314.5 84q171 0 315.5 -84t228.5 -228.5t84 -314.5q0 -171 -84 -316t-228.5 -229t-315.5 -84q-170 0 -314.5 84t-228.5 229t-84 316zM141 594q0 -155 76.5 -286t207.5 -207t284 -76q155 0 286 76t207 207t76 286t-76 285.5t-207 206 t-286 75.5q-153 0 -284 -75.5t-207.5 -206t-76.5 -285.5zM289 594q0 173 123.5 296.5t296.5 123.5q176 0 299 -123l-52 -51q-108 100 -247 100q-143 0 -245 -102t-102 -244q0 -144 102 -246t245 -102q139 0 247 100l52 -51q-123 -123 -299 -123q-174 0 -297 123t-123 299z " />
<glyph unicode="&#xaa;" horiz-adv-x="813" d="M213 1257q14 129 116 221.5t232 92.5q89 0 159.5 -47t100.5 -123l17 151h34l-61 -591h-35l17 151q-48 -77 -128 -123.5t-169 -46.5q-131 0 -213.5 92.5t-69.5 222.5zM250 1257q-12 -117 61 -198.5t189 -81.5t205.5 81.5t101.5 198.5q12 116 -61.5 197.5t-188.5 81.5 t-205 -81.5t-102 -197.5z" />
<glyph unicode="&#xab;" horiz-adv-x="729" d="M143 594l387 348l-10 -98l-278 -250l225 -252l-10 -98zM360 594l385 348l-10 -98l-276 -250l223 -252l-10 -98z" />
<glyph unicode="&#xac;" horiz-adv-x="909" d="M123 559v70h663v-211h-69v141h-594z" />
<glyph unicode="&#xad;" horiz-adv-x="950" d="M201 559l8 70h663l-8 -70h-663z" />
<glyph unicode="&#xae;" horiz-adv-x="653" d="M82 1327q0 100 72.5 172t173.5 72q100 0 171.5 -72t71.5 -172q0 -101 -71.5 -173.5t-171.5 -72.5q-101 0 -173.5 72.5t-72.5 173.5zM96 1327q0 -96 68 -163.5t164 -67.5q94 0 161.5 67.5t67.5 163.5q0 94 -67.5 161.5t-161.5 67.5q-95 0 -163.5 -67.5t-68.5 -161.5z M215 1171v316h141q43 0 73 -29t30 -69q0 -36 -23 -63.5t-57 -35.5l59 -119h-16l-57 117h-136v-117h-14zM229 1303h127q38 0 63 24.5t25 61.5q0 36 -25 61t-63 25h-127v-172z" />
<glyph unicode="&#xaf;" horiz-adv-x="628" d="M276 1466l7 70h383l-7 -70h-383z" />
<glyph unicode="&#xb0;" horiz-adv-x="622" d="M102 1362q0 86 61.5 147.5t147.5 61.5t147.5 -61.5t61.5 -147.5t-61.5 -147.5t-147.5 -61.5t-147.5 61.5t-61.5 147.5zM172 1362q0 -58 41 -98.5t98 -40.5q59 0 99.5 40.5t40.5 98.5q0 57 -41 98t-99 41q-57 0 -98 -41t-41 -98z" />
<glyph unicode="&#xb1;" horiz-adv-x="1392" d="M102 0v70h1188v-70h-1188zM102 733v70h560v383h69v-383h559v-70h-559v-383h-69v383h-560z" />
<glyph unicode="&#xb2;" horiz-adv-x="688" d="M195 768l428 365q73 67 82 159q9 94 -50.5 161t-152.5 67q-95 0 -168 -67t-82 -161q-9 -95 49 -162l-29 -24q-67 80 -55 186q11 107 95.5 183.5t193.5 76.5q107 0 176 -76.5t59 -183.5q-12 -106 -98 -186l-356 -303h379l-4 -35h-467z" />
<glyph unicode="&#xb3;" horiz-adv-x="686" d="M186 1012h35q-9 -94 51 -161t154 -67t167.5 67t82.5 161q10 94 -49.5 160.5t-153.5 66.5q-78 0 -149 -51l-27 -23l-18 27l372 307h-360l4 37h450l-321 -268q48 6 53 6q107 0 175.5 -77.5t56.5 -184.5q-10 -108 -94.5 -185t-192.5 -77q-109 0 -178 76.5t-58 185.5z" />
<glyph unicode="&#xb4;" horiz-adv-x="718" d="M332 1409l4 41l362 121l-8 -76z" />
<glyph unicode="&#xb6;" horiz-adv-x="1150" d="M172 1153q15 158 139 270.5t283 112.5h594l-160 -1536h-70l154 1466h-281l-153 -1466h-70l80 768h-174q-158 0 -258.5 112.5t-83.5 272.5zM244 1153q-13 -132 67 -223.5t209 -91.5h174l68 628h-174q-129 0 -229.5 -92t-114.5 -221z" />
<glyph unicode="&#xb7;" horiz-adv-x="370" d="M133 594q3 25 23.5 43t46.5 18t42 -18t13 -43q-3 -28 -22.5 -47t-45.5 -19t-43 19t-14 47z" />
<glyph unicode="&#xb8;" horiz-adv-x="667" d="M170 -315l37 20q15 -35 55 -47q37 -11 75.5 10t53.5 60q13 40 -3.5 74.5t-53.5 43.5q-42 12 -78 -8l-14 33l59 156l33 -11l-47 -129q23 5 61 -2q53 -15 75.5 -64t2.5 -104q-22 -55 -73.5 -83t-104.5 -13q-51 14 -78 64z" />
<glyph unicode="&#xb9;" horiz-adv-x="401" d="M252 1430l4 40l186 103l-84 -805h-34l77 745z" />
<glyph unicode="&#xba;" horiz-adv-x="792" d="M213 1257q14 129 115.5 221.5t230.5 92.5q130 0 213.5 -92.5t69.5 -221.5q-13 -130 -115 -222.5t-233 -92.5q-129 0 -211.5 92.5t-69.5 222.5zM248 1257q-12 -117 61 -198.5t189 -81.5q117 0 207 81.5t102 198.5q12 116 -61.5 197.5t-190.5 81.5q-115 0 -205 -81.5 t-102 -197.5z" />
<glyph unicode="&#xbb;" horiz-adv-x="729" d="M106 244l11 98l276 252l-223 250l10 98l312 -348zM322 244l10 98l278 252l-225 250l10 98l314 -348z" />
<glyph unicode="&#xbc;" horiz-adv-x="1269" d="M246 -23l821 1594l29 -12l-820 -1594zM252 1430l4 40l186 103l-84 -805h-34l77 745zM690 193l4 34l453 541h35l-58 -541h127l-4 -34h-127l-18 -193h-35l18 193h-395zM737 227h353l51 484z" />
<glyph unicode="&#xbd;" horiz-adv-x="1394" d="M246 -23l821 1594l29 -12l-820 -1594zM252 1430l4 40l186 103l-84 -805h-34l77 745zM821 0l2 35l408 315q42 31 68 76t30 96q11 95 -48 162.5t-153 67.5q-95 0 -167.5 -67t-83.5 -163l-3 -33h-34l2 33q12 109 97 185.5t194 76.5q108 0 176.5 -77t56.5 -185 q-12 -120 -115 -200l-374 -287h413l-2 -35h-467z" />
<glyph unicode="&#xbe;" horiz-adv-x="1470" d="M186 1012h35q-9 -94 51 -161t154 -67t167.5 67t82.5 161q10 94 -49.5 160.5t-153.5 66.5q-78 0 -149 -51l-27 -23l-18 27l372 307h-360l4 37h450l-321 -268q48 6 53 6q107 0 175.5 -77.5t56.5 -184.5q-10 -108 -94.5 -185t-192.5 -77q-109 0 -178 76.5t-58 185.5z M440 -23l822 1594l28 -12l-819 -1594zM870 193l502 612l-61 -578h141l-4 -34h-141l-19 -193h-35l19 193h-402zM942 227h334l49 467z" />
<glyph unicode="&#xbf;" horiz-adv-x="1030" d="M123 399q19 181 160 310t321 129q59 0 104.5 40.5t51.5 98.5t-30 98.5t-95 40.5q-30 0 -60 -12l-22 61q47 21 88 21q87 0 143 -61.5t47 -147.5q-9 -87 -77.5 -149t-155.5 -62q-152 0 -269 -106.5t-134 -260.5q-15 -151 79 -257.5t246 -106.5q135 0 246 86.5t147 216.5 l68 -12q-43 -155 -174.5 -258t-292.5 -103q-118 0 -212.5 58.5t-142.5 158.5t-36 217zM618 1499q3 22 21 37.5t41 15.5t37.5 -15.5t11.5 -37.5q-1 -24 -19 -40.5t-42 -16.5q-23 0 -37.5 16t-12.5 41z" />
<glyph unicode="&#xc0;" horiz-adv-x="1388" d="M31 0l831 1606l496 -1606h-78l-117 385h-856l-198 -385h-78zM342 455h799l-297 968zM696 1683l9 78l337 -121l-6 -43z" />
<glyph unicode="&#xc1;" horiz-adv-x="1388" d="M31 0l831 1606l496 -1606h-78l-117 385h-856l-198 -385h-78zM342 455h799l-297 968zM686 1597l6 43l363 121l-8 -78z" />
<glyph unicode="&#xc2;" horiz-adv-x="1388" d="M31 0l831 1606l496 -1606h-78l-117 385h-856l-198 -385h-78zM342 455h799l-297 968zM659 1647l230 206l182 -204l-43 -39l-147 166l-191 -168z" />
<glyph unicode="&#xc3;" horiz-adv-x="1388" d="M31 0l831 1606l496 -1606h-78l-117 385h-856l-198 -385h-78zM342 455h799l-297 968zM643 1710q6 55 49.5 94t95.5 39q38 0 68.5 -20t44.5 -54q23 -51 70 -51q33 0 55 22t27 56h57q-6 -56 -49 -94.5t-96 -38.5q-37 0 -69 20t-44 54q-8 21 -27 35t-43 14q-31 0 -56 -22.5 t-28 -53.5h-55z" />
<glyph unicode="&#xc4;" horiz-adv-x="1388" d="M31 0l831 1606l496 -1606h-78l-117 385h-856l-198 -385h-78zM342 455h799l-297 968zM621 1712q3 21 18.5 35t36.5 14q22 0 34 -13.5t9 -35.5q-2 -21 -17 -35t-36 -14q-20 0 -33.5 14.5t-11.5 34.5zM1028 1712q3 21 18.5 35t36.5 14q20 0 32 -13.5t9 -35.5 q-2 -20 -16.5 -34.5t-34.5 -14.5t-33.5 14.5t-11.5 34.5z" />
<glyph unicode="&#xc5;" horiz-adv-x="1388" d="M31 0l831 1606l496 -1606h-78l-117 385h-856l-198 -385h-78zM342 455h799l-297 968zM731 1817q6 61 55.5 105t112.5 44q62 0 101.5 -44t33.5 -105q-8 -63 -56.5 -108.5t-109.5 -45.5q-63 0 -103.5 45.5t-33.5 108.5zM788 1817q-5 -40 20.5 -68.5t65.5 -28.5 q38 0 69.5 28.5t35.5 68.5q3 39 -21.5 66.5t-62.5 27.5q-40 0 -72 -28t-35 -66z" />
<glyph unicode="&#xc6;" horiz-adv-x="2373" d="M31 0l1312 1536h1119l-6 -70h-1049l-70 -663h908l-9 -70h-907l-69 -663h1048l-6 -70h-1118l39 385h-777l-325 -385h-90zM508 455h723l100 962z" />
<glyph unicode="&#xc7;" horiz-adv-x="1515" d="M152 768q23 217 150 402t323 293t413 108q162 0 303 -63.5t242 -174.5l-55 -49q-91 102 -219.5 158.5t-278.5 56.5q-198 0 -376.5 -98t-294 -266.5t-136.5 -366.5q-16 -149 28 -285t131.5 -234t216.5 -156t278 -58t289.5 57t252.5 156l45 -49q-124 -111 -277.5 -172.5 t-316.5 -61.5q-36 0 -71 6l-29 -84q22 5 61 -2q53 -15 75.5 -64t2.5 -104q-22 -55 -73.5 -83t-104.5 -13q-55 16 -78 64l37 20q16 -36 55 -47q37 -10 74.5 10t54.5 60q13 40 -3.5 74.5t-53.5 43.5q-44 13 -78 -8l-14 33l37 102q-191 25 -338 136.5t-220 285t-52 373.5z" />
<glyph unicode="&#xc8;" horiz-adv-x="1312" d="M123 0l160 1536h1118l-6 -70h-1049l-70 -663h908l-8 -70h-908l-69 -663h1048l-6 -70h-1118zM688 1683l8 78l338 -121l-6 -43z" />
<glyph unicode="&#xc9;" horiz-adv-x="1312" d="M123 0l160 1536h1118l-6 -70h-1049l-70 -663h908l-8 -70h-908l-69 -663h1048l-6 -70h-1118zM678 1597l6 43l363 121l-9 -78z" />
<glyph unicode="&#xca;" horiz-adv-x="1312" d="M123 0l160 1536h1118l-6 -70h-1049l-70 -663h908l-8 -70h-908l-69 -663h1048l-6 -70h-1118zM647 1647l230 206l182 -204l-43 -39l-148 166l-190 -168z" />
<glyph unicode="&#xcb;" horiz-adv-x="1312" d="M123 0l160 1536h1118l-6 -70h-1049l-70 -663h908l-8 -70h-908l-69 -663h1048l-6 -70h-1118zM584 1712q3 21 18.5 35t36.5 14t33.5 -14t9.5 -35q-1 -20 -17 -34.5t-36 -14.5t-33.5 14.5t-11.5 34.5zM989 1712q3 21 18.5 35t36.5 14q22 0 33 -13.5t8 -35.5q-2 -21 -16 -35 t-35 -14q-20 0 -33.5 14.5t-11.5 34.5z" />
<glyph unicode="&#xcc;" d="M123 0l160 1536h69l-159 -1536h-70zM158 1683l8 78l338 -121l-6 -43z" />
<glyph unicode="&#xcd;" d="M123 0l160 1536h69l-159 -1536h-70zM150 1597l6 43l362 121l-8 -78z" />
<glyph unicode="&#xce;" d="M123 0l160 1536h69l-159 -1536h-70zM123 1647l229 206l183 -204l-43 -39l-148 166l-190 -168z" />
<glyph unicode="&#xcf;" d="M84 1712q3 21 18.5 35t36.5 14t33.5 -14t9.5 -35q-1 -20 -17 -34.5t-36 -14.5t-33.5 14.5t-11.5 34.5zM123 0l160 1536h69l-159 -1536h-70zM489 1712q3 21 19 35t37 14q22 0 33 -13.5t8 -35.5q-2 -21 -16 -35t-35 -14q-20 0 -33.5 14.5t-12.5 34.5z" />
<glyph unicode="&#xd0;" horiz-adv-x="1525" d="M117 735l8 70h121l76 731h524q156 0 291.5 -61t228 -163.5t139 -245t29.5 -298.5q-17 -155 -93 -297.5t-189.5 -245.5t-262 -164t-303.5 -61h-524l76 735h-121zM238 70h454q142 0 276.5 55.5t237.5 149t172 222.5t84 271q20 189 -56 350t-226.5 254.5t-339.5 93.5h-455 l-70 -661h334l-8 -70h-334z" />
<glyph unicode="&#xd1;" horiz-adv-x="1433" d="M123 0l168 1610l964 -1477l148 1403h67l-167 -1610l-965 1475l-145 -1401h-70zM659 1628q6 55 50 94t96 39q38 0 68 -19.5t45 -53.5q23 -52 67 -52q33 0 56 22t26 56h57q-4 -56 -47 -94.5t-96 -38.5q-37 0 -69.5 20t-45.5 54q-6 21 -24.5 35t-42.5 14q-31 0 -56 -22.5 t-28 -53.5h-56z" />
<glyph unicode="&#xd2;" horiz-adv-x="1748" d="M152 768q23 217 150 402t323 293t413 108q218 0 392 -108t262 -293t65 -402q-17 -163 -96.5 -311.5t-198 -256t-274 -171.5t-318.5 -64t-305 64t-238 171.5t-144 256t-31 311.5zM221 768q-16 -149 28 -285t132 -234t217.5 -156t278.5 -58q198 0 377.5 98t296 267 t137.5 368q16 148 -28.5 283.5t-133 233.5t-218.5 156t-278 58q-198 0 -377 -98t-295 -266.5t-137 -366.5zM877 1683l8 78l338 -121l-6 -43z" />
<glyph unicode="&#xd3;" horiz-adv-x="1748" d="M152 768q23 218 149.5 402.5t322.5 292.5t414 108q163 0 305 -64t238.5 -171.5t144.5 -256t31 -311.5q-23 -217 -150 -402t-323.5 -293t-413.5 -108q-163 0 -305.5 64t-238.5 171.5t-143.5 256t-30.5 311.5zM221 768q-16 -149 28 -285t132 -234t217.5 -156t278.5 -58 q198 0 377.5 98t296 267t137.5 368q16 148 -28.5 283.5t-133 233.5t-218.5 156t-278 58q-198 0 -377 -98t-295 -266.5t-137 -366.5zM864 1597l6 43l363 121l-8 -78z" />
<glyph unicode="&#xd4;" horiz-adv-x="1748" d="M152 768q23 218 149.5 402.5t322.5 292.5t414 108q163 0 305 -64t238.5 -171.5t144.5 -256t31 -311.5q-23 -217 -150 -402t-323.5 -293t-413.5 -108q-163 0 -305.5 64t-238.5 171.5t-143.5 256t-30.5 311.5zM221 768q-16 -149 28 -285t132 -234t217.5 -156t278.5 -58 q198 0 377.5 98t296 267t137.5 368q16 148 -28.5 283.5t-133 233.5t-218.5 156t-278 58q-198 0 -377 -98t-295 -266.5t-137 -366.5zM840 1647l229 206l182 -204l-43 -39l-147 166l-191 -168z" />
<glyph unicode="&#xd5;" horiz-adv-x="1748" d="M152 768q23 218 149.5 402.5t322.5 292.5t414 108q163 0 305 -64t238.5 -171.5t144.5 -256t31 -311.5q-23 -217 -150 -402t-323.5 -293t-413.5 -108q-163 0 -305.5 64t-238.5 171.5t-143.5 256t-30.5 311.5zM223 768q-16 -149 28 -285t131.5 -234t216.5 -156t278 -58 q198 0 377 98t295 266.5t137 368.5q16 148 -28 283.5t-132 233.5t-218 156t-278 58q-198 0 -376.5 -98t-294 -266.5t-136.5 -366.5zM823 1710q6 55 50 94t96 39q38 0 68 -20t44 -54q23 -51 70 -51q33 0 55 22t27 56h57q-6 -56 -49 -94.5t-96 -38.5q-37 0 -69 20t-44 54 q-8 21 -26.5 35t-42.5 14q-31 0 -56 -22.5t-28 -53.5h-56z" />
<glyph unicode="&#xd6;" horiz-adv-x="1748" d="M152 768q23 218 149.5 402.5t322.5 292.5t414 108q163 0 305 -64t238.5 -171.5t144.5 -256t31 -311.5q-23 -217 -150 -402t-323.5 -293t-413.5 -108q-163 0 -305.5 64t-238.5 171.5t-143.5 256t-30.5 311.5zM223 768q-16 -149 28 -285t131.5 -234t216.5 -156t278 -58 q198 0 377 98t295 266.5t137 368.5q16 148 -28 283.5t-132 233.5t-218 156t-278 58q-198 0 -376.5 -98t-294 -266.5t-136.5 -366.5zM801 1712q3 20 19 34.5t36 14.5t33 -14.5t10 -34.5q-1 -20 -17 -34.5t-36 -14.5t-33.5 14.5t-11.5 34.5zM1206 1712q3 20 19.5 34.5 t36.5 14.5q21 0 32.5 -14t8.5 -35q-2 -21 -16.5 -35t-35.5 -14q-20 0 -33.5 14.5t-11.5 34.5z" />
<glyph unicode="&#xd7;" horiz-adv-x="1351" d="M82 49l545 545l-545 543l51 49l543 -543l545 543l49 -49l-545 -543l545 -545l-49 -49l-545 545l-543 -545z" />
<glyph unicode="&#xd8;" horiz-adv-x="1767" d="M121 49l194 178q-89 107 -129.5 247t-23.5 294q17 163 96.5 311.5t198 256t274 171.5t318.5 64q153 0 285.5 -55.5t232.5 -155.5l196 176l45 -49l-196 -178q89 -107 129.5 -247t23.5 -294q-23 -218 -149.5 -402.5t-322 -292.5t-412.5 -108q-156 0 -289 55.5t-232 157.5 l-194 -178zM233 768q-15 -141 21.5 -267.5t116.5 -224.5l1142 1033q-91 91 -212.5 140.5t-260.5 49.5q-199 0 -377.5 -98t-293.5 -266t-136 -367zM414 227q91 -91 212 -141.5t261 -50.5q198 0 376.5 98t294 266.5t136.5 368.5q15 141 -21.5 267.5t-116.5 224.5z" />
<glyph unicode="&#xd9;" horiz-adv-x="1431" d="M180 559l103 977h69l-102 -977q-15 -143 42 -263.5t170 -190.5t255 -70t270 70t211 190.5t98 263.5l103 977h69l-102 -977q-17 -161 -110.5 -298t-238.5 -216.5t-306 -79.5q-160 0 -288.5 79.5t-194 216.5t-48.5 298zM717 1683l8 78l338 -121l-6 -43z" />
<glyph unicode="&#xda;" horiz-adv-x="1431" d="M180 559l103 977h69l-102 -977q-15 -143 42.5 -264t171 -190.5t255.5 -69.5t269.5 70t210 190.5t97.5 263.5l103 977h69l-102 -977q-17 -161 -110.5 -298t-238 -216.5t-304.5 -79.5q-161 0 -290 79.5t-194.5 216.5t-48.5 298zM707 1597l6 43l362 121l-8 -78z" />
<glyph unicode="&#xdb;" horiz-adv-x="1431" d="M180 559l103 977h69l-102 -977q-15 -143 42 -263.5t170 -190.5t255 -70t270 70t211 190.5t98 263.5l103 977h69l-102 -977q-17 -161 -110.5 -298t-238.5 -216.5t-306 -79.5q-160 0 -288.5 79.5t-194 216.5t-48.5 298zM680 1647l229 206l183 -204l-43 -39l-148 166 l-190 -168z" />
<glyph unicode="&#xdc;" horiz-adv-x="1431" d="M180 559l103 977h69l-102 -977q-15 -143 42.5 -264t171 -190.5t255.5 -69.5t269.5 70t210 190.5t97.5 263.5l103 977h69l-102 -977q-17 -161 -110.5 -298t-238 -216.5t-304.5 -79.5q-161 0 -290 79.5t-194.5 216.5t-48.5 298zM643 1712q3 21 18.5 35t36.5 14t33.5 -14 t9.5 -35q-1 -20 -17 -34.5t-36 -14.5t-33.5 14.5t-11.5 34.5zM1049 1712q3 21 18.5 35t36.5 14q22 0 33 -13.5t8 -35.5q-2 -21 -16 -35t-35 -14q-20 0 -33.5 14.5t-11.5 34.5z" />
<glyph unicode="&#xdd;" horiz-adv-x="1320" d="M190 1536h91l462 -731l617 731h90l-678 -803l-76 -733h-71l75 733zM651 1597l6 43l363 121l-8 -78z" />
<glyph unicode="&#xde;" horiz-adv-x="1331" d="M123 0l160 1536h69l-20 -193h653q170 0 279 -119t92 -288q-19 -170 -153 -291t-304 -121h-653l-53 -524h-70zM254 594h653q142 0 252 99.5t125 242.5q14 140 -74.5 239t-230.5 99h-653z" />
<glyph unicode="&#xdf;" horiz-adv-x="1097" d="M123 0l123 1186q17 159 142 272t284 113t260 -113t84 -272q-10 -104 -71 -192t-154 -140q133 -39 209 -154.5t61 -263.5q-20 -181 -161 -308.5t-320 -127.5h-281l6 70h281q151 0 268.5 107t134.5 259q15 151 -80 259t-245 108h-281l6 69h209q130 0 231 91.5t115 222.5 t-68 222t-212 91t-233 -91.5t-116 -221.5l-122 -1186h-70z" />
<glyph unicode="&#xe0;" horiz-adv-x="1462" d="M143 594q18 170 118 314.5t253.5 228.5t323.5 84q181 0 321.5 -93t202.5 -247l31 305h69l-123 -1186h-69l30 305q-94 -154 -253 -247t-340 -93q-170 0 -306.5 84t-206 229t-51.5 316zM215 594q-12 -114 21 -217.5t100 -178.5t165.5 -119t211.5 -44q152 0 288.5 75 t225 203.5t104.5 280.5q12 113 -21 216.5t-100 178.5t-166 119.5t-213 44.5q-151 0 -287 -75t-224.5 -204t-104.5 -280zM692 1495l8 76l338 -121l-4 -41z" />
<glyph unicode="&#xe1;" horiz-adv-x="1462" d="M143 594q18 170 118 314.5t253.5 228.5t323.5 84q181 0 321.5 -93t202.5 -247l31 305h69l-123 -1186h-69l30 305q-94 -154 -253 -247t-340 -93q-170 0 -306.5 84t-206 229t-51.5 316zM215 594q-12 -114 21 -217.5t100 -178.5t165.5 -119t211.5 -44q152 0 288.5 75 t225 203.5t104.5 280.5q12 113 -21 216.5t-100 178.5t-166 119.5t-213 44.5q-151 0 -287 -75t-224.5 -204t-104.5 -280zM684 1409l4 41l363 121l-9 -76z" />
<glyph unicode="&#xe2;" horiz-adv-x="1462" d="M143 594q18 170 118 314.5t253.5 228.5t323.5 84q181 0 321.5 -93t202.5 -247l31 305h69l-123 -1186h-69l30 305q-94 -154 -253 -247t-340 -93q-170 0 -306.5 84t-206 229t-51.5 316zM215 594q-12 -114 21 -217.5t100 -178.5t165.5 -119t211.5 -44q152 0 288.5 75 t225 203.5t104.5 280.5q12 113 -21 216.5t-100 178.5t-166 119.5t-213 44.5q-151 0 -287 -75t-224.5 -204t-104.5 -280zM653 1411l230 207l184 -205l-43 -39l-150 166l-190 -168z" />
<glyph unicode="&#xe3;" horiz-adv-x="1462" d="M143 594q18 170 118 314.5t253.5 228.5t323.5 84q181 0 321.5 -93t202.5 -247l31 305h69l-123 -1186h-69l30 305q-94 -154 -253 -247t-340 -93q-170 0 -306.5 84t-206 229t-51.5 316zM215 594q-12 -114 21 -217.5t100 -178.5t165.5 -119t211.5 -44q152 0 288.5 75 t225 203.5t104.5 280.5q12 113 -21 216.5t-100 178.5t-166 119.5t-213 44.5q-151 0 -287 -75t-224.5 -204t-104.5 -280zM627 1438q6 55 49.5 94t95.5 39q38 0 68.5 -20t44.5 -54q23 -51 69 -51q33 0 55 22t27 56h58q-6 -56 -49.5 -94.5t-96.5 -38.5q-37 0 -68.5 19.5 t-43.5 53.5q-8 21 -27 35t-43 14q-31 0 -56 -22t-28 -53h-55z" />
<glyph unicode="&#xe4;" horiz-adv-x="1462" d="M143 594q18 170 118 314.5t253.5 228.5t323.5 84q181 0 321.5 -93t202.5 -247l31 305h69l-123 -1186h-69l30 305q-94 -154 -253 -247t-340 -93q-170 0 -306.5 84t-206 229t-51.5 316zM215 594q-12 -114 21 -217.5t100 -178.5t165.5 -119t211.5 -44q152 0 288.5 75 t225 203.5t104.5 280.5q12 113 -21 216.5t-100 178.5t-166 119.5t-213 44.5q-151 0 -287 -75t-224.5 -204t-104.5 -280zM618 1522q1 20 17.5 34.5t36.5 14.5t33.5 -14.5t11.5 -34.5q-3 -20 -19 -34.5t-36 -14.5t-33.5 14.5t-10.5 34.5zM1024 1522q1 20 17 34.5t36 14.5 t32.5 -14.5t10.5 -34.5q-3 -21 -18 -35t-35 -14t-33 14.5t-10 34.5z" />
<glyph unicode="&#xe5;" horiz-adv-x="1462" d="M143 594q18 170 118 314.5t253.5 228.5t323.5 84q181 0 321.5 -93t202.5 -247l31 305h69l-123 -1186h-69l30 305q-94 -154 -253 -247t-340 -93q-170 0 -306.5 84t-206 229t-51.5 316zM215 594q-12 -114 21 -217.5t100 -178.5t165.5 -119t211.5 -44q152 0 288.5 75 t225 203.5t104.5 280.5q12 113 -21 216.5t-100 178.5t-166 119.5t-213 44.5q-151 0 -287 -75t-224.5 -204t-104.5 -280zM715 1489q6 61 56.5 105t113.5 44q60 0 99.5 -44t33.5 -105q-6 -63 -56 -108.5t-110 -45.5q-63 0 -103 45.5t-34 108.5zM772 1489q-5 -40 20 -68t66 -28 q38 0 68 28t35 68q5 38 -19.5 66t-62.5 28q-41 0 -71.5 -27.5t-35.5 -66.5z" />
<glyph unicode="&#xe6;" horiz-adv-x="2605" d="M143 594q18 170 118 314.5t253.5 228.5t323.5 84q181 0 321.5 -93t202.5 -247l31 305h69l-30 -305q96 154 253.5 247t337.5 93q170 0 306 -84t205 -228.5t51 -314.5l-5 -35h-1183q-5 -145 58 -265t180 -189.5t263 -69.5q154 0 291.5 78.5t225.5 210.5l57 -35 q-99 -148 -252.5 -236t-327.5 -88q-180 0 -319 92.5t-203 247.5l-31 -305h-69l30 305q-94 -154 -253 -247t-340 -93q-170 0 -306.5 84t-206 229t-51.5 316zM215 594q-12 -114 21 -217.5t100 -178.5t165.5 -119t211.5 -44q152 0 288.5 75t225 203.5t104.5 280.5 q12 113 -21 216.5t-100 178.5t-166 119.5t-213 44.5q-151 0 -287 -75t-224.5 -204t-104.5 -280zM1405 629h1112q6 144 -57.5 264t-180.5 189t-262 69q-146 0 -278 -69t-220.5 -188.5t-113.5 -264.5z" />
<glyph unicode="&#xe7;" horiz-adv-x="1232" d="M143 594q18 170 118 314.5t254 228.5t325 84q129 0 239 -48t189 -137l-58 -49q-70 78 -166 122t-210 44q-113 0 -221.5 -44.5t-191.5 -119.5t-138.5 -178.5t-67.5 -216.5q-12 -114 21.5 -217.5t100.5 -178.5t166 -119t212 -44q114 0 220.5 43.5t192.5 120.5l46 -49 q-208 -185 -465 -185h-17l-28 -78q24 5 59 -2q54 -15 77 -63.5t3 -104.5q-22 -54 -74 -82.5t-104 -13.5q-51 14 -78 64l35 20q15 -35 57 -47q37 -11 75.5 10t53.5 60q14 40 -3.5 74.5t-55.5 43.5q-39 13 -76 -8l-17 33l39 96q-242 22 -390 202t-122 425z" />
<glyph unicode="&#xe8;" horiz-adv-x="1417" d="M143 594q14 127 76 243.5t154.5 200.5t214 133.5t248.5 49.5t238 -49.5t186.5 -133.5t113 -200.5t23.5 -243.5l-4 -35h-1184q-5 -145 58.5 -265t180.5 -189.5t263 -69.5q154 0 291 78.5t225 210.5l57 -35q-99 -148 -252.5 -236t-326.5 -88q-170 0 -306 84.5t-205 229.5 t-51 315zM217 629h1112q6 144 -57.5 264t-180.5 189t-262 69q-146 0 -278 -69t-220.5 -188.5t-113.5 -264.5zM690 1495l8 76l338 -121l-4 -41z" />
<glyph unicode="&#xe9;" horiz-adv-x="1417" d="M143 594q14 127 76 243.5t154.5 200.5t214 133.5t248.5 49.5t238 -49.5t186.5 -133.5t113 -200.5t23.5 -243.5l-4 -35h-1184q-5 -145 58.5 -265t180.5 -189.5t263 -69.5q154 0 291 78.5t225 210.5l57 -35q-99 -148 -252.5 -236t-326.5 -88q-170 0 -306 84.5t-205 229.5 t-51 315zM217 629h1112q6 144 -57.5 264t-180.5 189t-262 69q-146 0 -278 -69t-220.5 -188.5t-113.5 -264.5zM682 1409l4 41l363 121l-9 -76z" />
<glyph unicode="&#xea;" horiz-adv-x="1417" d="M143 594q14 127 76 243.5t154.5 200.5t214 133.5t248.5 49.5t238 -49.5t186.5 -133.5t113 -200.5t23.5 -243.5l-4 -35h-1184q-5 -145 58.5 -265t180.5 -189.5t263 -69.5q154 0 291 78.5t225 210.5l57 -35q-99 -148 -252.5 -236t-326.5 -88q-170 0 -306 84.5t-205 229.5 t-51 315zM217 629h1112q6 144 -57.5 264t-180.5 189t-262 69q-146 0 -278 -69t-220.5 -188.5t-113.5 -264.5zM651 1411l230 207l184 -205l-43 -39l-150 166l-190 -168z" />
<glyph unicode="&#xeb;" horiz-adv-x="1417" d="M143 594q14 127 76 243.5t154.5 200.5t214 133.5t248.5 49.5t238 -49.5t186.5 -133.5t113 -200.5t23.5 -243.5l-4 -35h-1184q-5 -145 58.5 -265t180.5 -189.5t263 -69.5q154 0 291 78.5t225 210.5l57 -35q-99 -148 -252.5 -236t-326.5 -88q-170 0 -306 84.5t-205 229.5 t-51 315zM217 629h1112q6 144 -57.5 264t-180.5 189t-262 69q-146 0 -278 -69t-220.5 -188.5t-113.5 -264.5zM618 1522q1 20 17.5 34.5t36.5 14.5t33.5 -14.5t11.5 -34.5q-3 -20 -19 -34.5t-36 -14.5t-33.5 14.5t-10.5 34.5zM1024 1522q1 20 17 34.5t36 14.5t32.5 -14.5 t10.5 -34.5q-3 -21 -18 -35t-35 -14t-33 14.5t-10 34.5z" />
<glyph unicode="&#xec;" d="M123 0l123 1186h69l-122 -1186h-70zM139 1495l8 76l338 -121l-4 -41z" />
<glyph unicode="&#xed;" d="M123 0l123 1186h69l-122 -1186h-70zM131 1409l4 41l363 121l-9 -76z" />
<glyph unicode="&#xee;" d="M98 1411l230 207l184 -205l-43 -39l-150 166l-190 -168zM123 0l123 1186h69l-122 -1186h-70z" />
<glyph unicode="&#xef;" d="M66 1522q1 20 17 34.5t36 14.5t33.5 -14.5t11.5 -34.5q-3 -20 -19 -34.5t-36 -14.5t-33 14.5t-10 34.5zM123 0l123 1186h69l-122 -1186h-70zM471 1522q1 20 17 34.5t36 14.5t32.5 -14.5t10.5 -34.5q-3 -21 -18 -35t-35 -14t-33 14.5t-10 34.5z" />
<glyph unicode="&#xf0;" horiz-adv-x="1384" d="M141 575q16 156 112 288.5t245 210t315 77.5q124 0 248 -72l2 6l-240 267l-202 -56l-15 66l168 47l-117 127h99l96 -104l213 59l10 -68l-174 -49l324 -368q76 -86 113 -198t24 -233q-17 -166 -113.5 -306.5t-245.5 -222t-315 -81.5t-298 81.5t-199 222t-50 306.5z M213 575q-11 -110 21 -210.5t96 -173t159.5 -115.5t204.5 -43q111 0 215.5 43t184 115.5t132.5 173t64 210.5q11 102 -21.5 195t-97 161t-160 108t-206.5 40q-222 0 -396 -148.5t-196 -355.5z" />
<glyph unicode="&#xf1;" horiz-adv-x="1257" d="M123 0l123 1186h69l-22 -225q84 118 211.5 189t267.5 71q100 0 187 -39t145.5 -104.5t87.5 -155.5t18 -189l-75 -733h-70l76 733q19 173 -91.5 295.5t-283.5 122.5q-187 0 -334.5 -133.5t-167.5 -321.5l-71 -696h-70zM567 1438q6 55 50 94t96 39q38 0 68 -20t44 -54 q23 -51 70 -51q33 0 55 22t27 56h57q-6 -56 -49 -94.5t-96 -38.5q-37 0 -69 19.5t-44 53.5q-8 21 -26.5 35t-42.5 14q-31 0 -56 -22t-28 -53h-56z" />
<glyph unicode="&#xf2;" horiz-adv-x="1423" d="M143 594q18 170 118 314.5t253.5 228.5t323.5 84q171 0 307.5 -84t206 -228.5t51.5 -314.5q-18 -171 -117.5 -316t-253.5 -229t-325 -84q-170 0 -306.5 84t-206 229t-51.5 316zM215 594q-12 -114 21 -217.5t100 -178.5t165.5 -119t211.5 -44q152 0 288.5 75t225 203.5 t104.5 280.5q12 113 -21 216.5t-100 178.5t-166 119.5t-213 44.5q-151 0 -287 -75t-224.5 -204t-104.5 -280zM692 1495l8 76l338 -121l-4 -41z" />
<glyph unicode="&#xf3;" horiz-adv-x="1423" d="M143 594q18 170 118 314.5t253.5 228.5t323.5 84q171 0 307.5 -84t206 -228.5t51.5 -314.5q-18 -171 -117.5 -316t-253.5 -229t-325 -84q-170 0 -306.5 84t-206 229t-51.5 316zM215 594q-12 -114 21 -217.5t100 -178.5t165.5 -119t211.5 -44q152 0 288.5 75t225 203.5 t104.5 280.5q12 113 -21 216.5t-100 178.5t-166 119.5t-213 44.5q-151 0 -287 -75t-224.5 -204t-104.5 -280zM684 1409l4 41l363 121l-9 -76z" />
<glyph unicode="&#xf4;" horiz-adv-x="1423" d="M143 594q18 170 118 314.5t253.5 228.5t323.5 84q171 0 307.5 -84t206 -228.5t51.5 -314.5q-18 -171 -117.5 -316t-253.5 -229t-325 -84q-170 0 -306.5 84t-206 229t-51.5 316zM215 594q-12 -114 21 -217.5t100 -178.5t165.5 -119t211.5 -44q152 0 288.5 75t225 203.5 t104.5 280.5q12 113 -21 216.5t-100 178.5t-166 119.5t-213 44.5q-151 0 -287 -75t-224.5 -204t-104.5 -280zM649 1411l230 207l184 -205l-43 -39l-150 166l-190 -168z" />
<glyph unicode="&#xf5;" horiz-adv-x="1423" d="M143 594q18 170 118 314.5t253.5 228.5t323.5 84q171 0 307.5 -84t206 -228.5t51.5 -314.5q-18 -171 -117.5 -316t-253.5 -229t-325 -84q-170 0 -306.5 84t-206 229t-51.5 316zM215 594q-12 -114 21 -217.5t100 -178.5t165.5 -119t211.5 -44q152 0 288.5 75t225 203.5 t104.5 280.5q12 113 -21 216.5t-100 178.5t-166 119.5t-213 44.5q-151 0 -287 -75t-224.5 -204t-104.5 -280zM631 1438q6 55 49.5 94t95.5 39q38 0 68.5 -20t44.5 -54q23 -51 69 -51q33 0 55 22t27 56h58q-6 -56 -49.5 -94.5t-96.5 -38.5q-37 0 -68.5 19.5t-43.5 53.5 q-8 21 -27 35t-43 14q-31 0 -56 -22t-28 -53h-55z" />
<glyph unicode="&#xf6;" horiz-adv-x="1423" d="M143 594q18 170 118 314.5t253.5 228.5t323.5 84q171 0 307.5 -84t206 -228.5t51.5 -314.5q-18 -171 -117.5 -316t-253.5 -229t-325 -84q-170 0 -306.5 84t-206 229t-51.5 316zM215 594q-12 -114 21 -217.5t100 -178.5t165.5 -119t211.5 -44q152 0 288.5 75t225 203.5 t104.5 280.5q12 113 -21 216.5t-100 178.5t-166 119.5t-213 44.5q-151 0 -287 -75t-224.5 -204t-104.5 -280zM618 1522q1 20 17.5 34.5t36.5 14.5t33.5 -14.5t11.5 -34.5q-3 -20 -19 -34.5t-36 -14.5t-33.5 14.5t-10.5 34.5zM1024 1522q1 20 17 34.5t36 14.5t32.5 -14.5 t10.5 -34.5q-3 -21 -18 -35t-35 -14t-33 14.5t-10 34.5z" />
<glyph unicode="&#xf7;" horiz-adv-x="1390" d="M102 559v70h1186v-70h-1186zM641 41q0 22 16 37.5t39 15.5t39.5 -15.5t16.5 -37.5q0 -25 -16 -41t-40 -16q-23 0 -39 16t-16 41zM641 1145q0 25 16 41t39 16q24 0 40 -16t16 -41q0 -22 -16.5 -38.5t-39.5 -16.5t-39 16.5t-16 38.5z" />
<glyph unicode="&#xf8;" horiz-adv-x="1435" d="M113 37l153 137q-66 85 -96 193.5t-18 226.5q18 170 117 314.5t252 228.5t323 84q236 0 403 -160l166 149l43 -49l-166 -149q141 -174 117 -418q-18 -171 -117 -316t-252.5 -229t-324.5 -84q-118 0 -222 42t-180 118l-151 -137zM223 594q-21 -216 99 -371l868 789 q-144 141 -352 141q-113 0 -220.5 -44.5t-190 -119.5t-137.5 -178.5t-67 -216.5zM365 174q69 -66 160.5 -102.5t193.5 -36.5q151 0 287 74.5t224.5 203.5t104.5 281q22 218 -98 369z" />
<glyph unicode="&#xf9;" horiz-adv-x="1257" d="M170 453l76 733h69l-75 -733q-19 -172 90 -295t282 -123q124 0 235.5 60.5t183.5 165t85 228.5l72 697h69l-122 -1186h-70l22 229q-84 -121 -211 -192.5t-270 -71.5q-133 0 -238.5 65.5t-158.5 178t-39 244.5zM608 1495l8 76l338 -121l-4 -41z" />
<glyph unicode="&#xfa;" horiz-adv-x="1257" d="M170 453l76 733h69l-75 -733q-19 -172 90 -295t282 -123q124 0 235.5 60.5t183.5 165t85 228.5l72 697h69l-122 -1186h-70l22 229q-84 -121 -211 -192.5t-270 -71.5q-133 0 -238.5 65.5t-158.5 178t-39 244.5zM600 1409l4 41l363 121l-9 -76z" />
<glyph unicode="&#xfb;" horiz-adv-x="1257" d="M170 453l76 733h69l-75 -733q-19 -172 90 -295t282 -123q124 0 235.5 60.5t183.5 165t85 228.5l72 697h69l-122 -1186h-70l22 229q-84 -121 -211 -192.5t-270 -71.5q-133 0 -238.5 65.5t-158.5 178t-39 244.5zM567 1411l230 207l184 -205l-43 -39l-150 166l-190 -168z " />
<glyph unicode="&#xfc;" horiz-adv-x="1257" d="M170 453l76 733h69l-75 -733q-19 -172 90 -295t282 -123q124 0 235.5 60.5t183.5 165t85 228.5l72 697h69l-122 -1186h-70l22 229q-84 -121 -211 -192.5t-270 -71.5q-133 0 -238.5 65.5t-158.5 178t-39 244.5zM535 1522q1 20 17 34.5t36 14.5t33.5 -14.5t11.5 -34.5 q-3 -20 -19 -34.5t-36 -14.5t-33 14.5t-10 34.5zM940 1522q1 20 17 34.5t36 14.5t32.5 -14.5t10.5 -34.5q-3 -21 -18 -35t-35 -14t-33 14.5t-10 34.5z" />
<glyph unicode="&#xfd;" horiz-adv-x="1191" d="M154 1186h75l373 -1092l604 1092h78l-848 -1536h-76l197 358zM567 1409l4 41l363 121l-8 -76z" />
<glyph unicode="&#xfe;" horiz-adv-x="1462" d="M86 -350l197 1886h69l-67 -655q93 154 253.5 247t340.5 93q127 0 238.5 -49.5t187 -133.5t113.5 -200.5t24 -243.5q-18 -171 -117.5 -316t-253 -229t-323.5 -84q-180 0 -321.5 93t-203.5 247l-67 -655h-70zM256 594q-16 -152 44.5 -280.5t181 -203.5t272.5 -75t288 75 t224 203.5t104 280.5q12 113 -21 216.5t-99.5 178.5t-165 119.5t-212.5 44.5q-152 0 -288 -75t-224 -204t-104 -280z" />
<glyph unicode="&#xff;" horiz-adv-x="1191" d="M154 1186h75l373 -1092l604 1092h78l-848 -1536h-76l197 358zM502 1522q1 20 17 34.5t36 14.5t33.5 -14.5t11.5 -34.5q-3 -20 -19 -34.5t-36 -14.5t-33 14.5t-10 34.5zM907 1522q1 20 17.5 34.5t36.5 14.5t32.5 -14.5t10.5 -34.5q-3 -20 -18.5 -34.5t-35.5 -14.5 t-33 14.5t-10 34.5z" />
<glyph unicode="&#x152;" horiz-adv-x="2793" d="M152 768q23 218 149.5 402.5t322.5 292.5t414 108q243 0 427 -130.5t257 -344.5l45 440h1115l-7 -70h-1044l-70 -663h908l-9 -70h-907l-70 -663h1045l-6 -70h-1114l45 440q-117 -214 -328.5 -344.5t-454.5 -130.5q-163 0 -305.5 64t-238.5 171.5t-143.5 256t-30.5 311.5z M223 768q-16 -149 28 -285t131.5 -234t216.5 -156t278 -58q198 0 377.5 98t296 267t137.5 368q16 148 -28.5 283.5t-133 233.5t-218.5 156t-278 58q-198 0 -376.5 -98t-294 -266.5t-136.5 -366.5z" />
<glyph unicode="&#x153;" horiz-adv-x="2605" d="M143 594q18 170 118 314.5t253.5 228.5t323.5 84q203 0 354 -117t197 -303q85 186 258 303t376 117q170 0 306 -84t205 -228.5t51 -314.5l-5 -35h-1183q-5 -145 58 -265t180 -189.5t263 -69.5q154 0 291.5 78.5t225.5 210.5l57 -35q-99 -148 -252.5 -236t-327.5 -88 q-203 0 -353.5 117.5t-195.5 304.5q-84 -187 -258.5 -304.5t-377.5 -117.5q-170 0 -306.5 84t-206 229t-51.5 316zM215 594q-12 -114 21 -217.5t100 -178.5t165.5 -119t211.5 -44q152 0 288.5 75t225 203.5t104.5 280.5q12 113 -21 216.5t-100 178.5t-166 119.5t-213 44.5 q-151 0 -287 -75t-224.5 -204t-104.5 -280zM1405 629h1112q6 144 -57.5 264t-180.5 189t-262 69q-146 0 -278 -69t-220.5 -188.5t-113.5 -264.5z" />
<glyph unicode="&#x178;" horiz-adv-x="1320" d="M190 1536h91l462 -731l617 731h90l-678 -803l-76 -733h-71l75 733zM586 1712q3 21 18.5 35t36.5 14t33.5 -14t9.5 -35q-1 -20 -17 -34.5t-36 -14.5t-33.5 14.5t-11.5 34.5zM991 1712q3 21 19 35t37 14q22 0 32.5 -13.5t7.5 -35.5q-2 -21 -16 -35t-35 -14 q-20 0 -33.5 14.5t-11.5 34.5z" />
<glyph unicode="&#x2c6;" horiz-adv-x="823" d="M352 1411l230 207l184 -205l-43 -39l-150 166l-190 -168z" />
<glyph unicode="&#x2dc;" horiz-adv-x="866" d="M354 1438q6 55 50 94t96 39q38 0 68 -20t44 -54q23 -51 70 -51q33 0 55 22t27 56h57q-6 -56 -49 -94.5t-96 -38.5q-37 0 -69 19.5t-44 53.5q-8 21 -26.5 35t-42.5 14q-31 0 -56 -22t-28 -53h-56z" />
<glyph unicode="&#x2000;" horiz-adv-x="983" />
<glyph unicode="&#x2001;" horiz-adv-x="1966" />
<glyph unicode="&#x2002;" horiz-adv-x="983" />
<glyph unicode="&#x2003;" horiz-adv-x="1966" />
<glyph unicode="&#x2004;" horiz-adv-x="655" />
<glyph unicode="&#x2005;" horiz-adv-x="491" />
<glyph unicode="&#x2006;" horiz-adv-x="327" />
<glyph unicode="&#x2007;" horiz-adv-x="327" />
<glyph unicode="&#x2008;" horiz-adv-x="245" />
<glyph unicode="&#x2009;" horiz-adv-x="393" />
<glyph unicode="&#x200a;" horiz-adv-x="109" />
<glyph unicode="&#x2010;" horiz-adv-x="950" d="M201 559l8 70h663l-8 -70h-663z" />
<glyph unicode="&#x2011;" horiz-adv-x="950" d="M201 559l8 70h663l-8 -70h-663z" />
<glyph unicode="&#x2012;" horiz-adv-x="950" d="M201 559l8 70h663l-8 -70h-663z" />
<glyph unicode="&#x2013;" horiz-adv-x="1196" d="M150 559l8 70h1011l-8 -70h-1011z" />
<glyph unicode="&#x2014;" horiz-adv-x="1720" d="M150 559l8 70h1536l-8 -70h-1536z" />
<glyph unicode="&#x2018;" horiz-adv-x="329" d="M238 1288l16 168q5 39 35 66.5t69 27.5h13l-6 -51h-13q-17 0 -31.5 -13t-15.5 -30l-10 -102h10q26 0 43 -19t14 -47q-3 -25 -24 -43t-47 -18t-41 18t-12 43z" />
<glyph unicode="&#x2019;" horiz-adv-x="329" d="M248 1227l6 51h12q17 0 31.5 13t15.5 30l13 102h-11q-26 0 -43 19t-14 47q3 25 23.5 43t46.5 18t42 -18t13 -43l-18 -168q-3 -38 -34 -66t-71 -28h-12z" />
<glyph unicode="&#x201a;" horiz-adv-x="288" d="M98 -213l4 51h13q17 0 31.5 13t15.5 30l12 103h-10q-27 0 -44 19t-14 46q3 25 23.5 43.5t46.5 18.5t42 -18.5t13 -43.5l-18 -168q-3 -39 -33 -66.5t-69 -27.5h-13z" />
<glyph unicode="&#x201c;" horiz-adv-x="458" d="M238 1288l16 168q5 39 35 66.5t69 27.5h13l-6 -51h-13q-17 0 -31.5 -13t-15.5 -30l-10 -102h10q26 0 43 -19t14 -47q-3 -25 -24 -43t-47 -18t-41 18t-12 43zM408 1288l16 168q5 39 35 66.5t69 27.5h13l-6 -51h-13q-17 0 -31.5 -13t-15.5 -30l-10 -102h10q26 0 43 -19 t14 -47q-3 -25 -24 -43t-47 -18t-41 18t-12 43z" />
<glyph unicode="&#x201d;" horiz-adv-x="458" d="M207 1227l6 51h12q17 0 31.5 13t15.5 30l13 102h-11q-26 0 -43 19t-14 47q3 25 23.5 43t46.5 18t42 -18t13 -43l-18 -168q-3 -38 -34 -66t-71 -28h-12zM377 1227l6 51h12q17 0 31.5 13t15.5 30l13 102h-11q-26 0 -43 19t-14 47q3 25 23.5 43t46.5 18t42 -18t13 -43 l-18 -168q-3 -38 -34 -66t-71 -28h-12z" />
<glyph unicode="&#x201e;" horiz-adv-x="458" d="M57 -213l4 51h13q17 0 31.5 13t15.5 30l12 103h-10q-27 0 -43.5 19t-13.5 46q3 25 23 43.5t46 18.5t42 -18.5t13 -43.5l-18 -168q-3 -39 -33 -66.5t-69 -27.5h-13zM227 -213l4 51h13q17 0 31.5 13t15.5 30l12 103h-10q-27 0 -43.5 19t-13.5 46q3 25 23 43.5t46 18.5 t42 -18.5t13 -43.5l-18 -168q-3 -39 -33 -66.5t-69 -27.5h-13z" />
<glyph unicode="&#x2022;" horiz-adv-x="690" d="M205 594q0 57 41.5 98t99.5 41q57 0 98 -41t41 -98q0 -58 -41 -99.5t-98 -41.5q-58 0 -99.5 41.5t-41.5 99.5z" />
<glyph unicode="&#x2026;" horiz-adv-x="1263" d="M76 49q3 25 23 43.5t46 18.5t42.5 -18.5t13.5 -43.5q-3 -28 -22.5 -46.5t-45.5 -18.5q-27 0 -43.5 19t-13.5 46zM573 49q3 25 23.5 43.5t46.5 18.5t42 -18.5t13 -43.5q-3 -28 -22 -46.5t-45 -18.5q-27 0 -44 19t-14 46zM1071 49q3 25 23.5 43.5t46.5 18.5t42 -18.5 t13 -43.5q-3 -28 -22.5 -46.5t-45.5 -18.5q-27 0 -43.5 19t-13.5 46z" />
<glyph unicode="&#x202f;" horiz-adv-x="393" />
<glyph unicode="&#x2039;" horiz-adv-x="514" d="M143 594l387 348l-10 -98l-278 -250l225 -252l-10 -98z" />
<glyph unicode="&#x203a;" horiz-adv-x="514" d="M106 244l11 98l278 252l-225 250l10 98l314 -348z" />
<glyph unicode="&#x205f;" horiz-adv-x="491" />
<glyph unicode="&#x20ac;" horiz-adv-x="1480" d="M133 594l6 68h180q0 41 7 106q8 68 16 104h-180l8 70h188q77 272 273 450.5t424 178.5q152 0 276 -82t199 -223l-62 -37q-68 128 -177 199t-244 71q-201 0 -373.5 -157t-243.5 -400h926l-8 -70h-936q-6 -27 -15 -104q-8 -74 -8 -106h762l-6 -68h-752q20 -243 159.5 -401 t340.5 -158q134 0 258.5 72t218.5 198l55 -35q-105 -142 -245.5 -223.5t-292.5 -81.5q-228 0 -386.5 178.5t-178.5 450.5h-189z" />
<glyph unicode="&#x2122;" horiz-adv-x="739" d="M82 1522v14h240v-14h-113v-293h-14v293h-113zM350 1229v307h17l137 -289l137 289h16v-307h-14v274l-133 -274h-12l-133 274v-274h-15z" />
<glyph unicode="&#x25fc;" horiz-adv-x="1187" d="M0 0v1188h1188v-1188h-1188z" />
<glyph unicode="&#xfb01;" horiz-adv-x="997" d="M158 1116l6 70h139l14 125q10 107 95 183.5t192 76.5q120 0 187 -86l-58 -49q-51 67 -135 67q-78 0 -141 -56.5t-70 -135.5l-14 -125h624l-123 -1186h-69l117 1116h-555l-117 -1116h-70l117 1116h-139zM950 1522q1 20 17.5 34.5t36.5 14.5t33.5 -14.5t11.5 -34.5 q-3 -20 -19.5 -34.5t-36.5 -14.5t-33 14.5t-10 34.5z" />
<glyph unicode="&#xfb02;" horiz-adv-x="997" d="M158 1116l6 70h139l8 69q12 117 101.5 199t205.5 82h416l-160 -1536h-69l153 1464h-346q-88 0 -155 -60.5t-76 -148.5l-8 -69h315l-6 -70h-315l-117 -1116h-70l117 1116h-139z" />
<glyph unicode="&#xfb03;" horiz-adv-x="1624" d="M158 1116l6 70h139l14 125q10 107 95 183.5t192 76.5q120 0 187 -86l-58 -49q-51 67 -135 67q-78 0 -141 -56.5t-70 -135.5l-14 -125h557l14 125q10 107 95 183.5t192 76.5q119 0 186 -86l-57 -49q-51 67 -135 67q-78 0 -141 -56.5t-70 -135.5l-15 -125h625l-123 -1186 h-69l116 1116h-555l-116 -1116h-70l117 1116h-557l-117 -1116h-70l117 1116h-139zM1577 1522q1 20 17 34.5t36 14.5t33.5 -14.5t11.5 -34.5q-3 -20 -19 -34.5t-36 -14.5t-33 14.5t-10 34.5z" />
<glyph unicode="&#xfb04;" horiz-adv-x="1626" d="M158 1116l6 70h139l14 125q10 107 95 183.5t192 76.5q120 0 187 -86l-58 -49q-51 67 -135 67q-78 0 -141 -56.5t-70 -135.5l-14 -125h559l8 69q12 117 101.5 199t205.5 82h416l-160 -1536h-69l153 1464h-346q-88 0 -155 -60.5t-76 -148.5l-9 -69h316l-6 -70h-316 l-116 -1116h-70l117 1116h-559l-117 -1116h-70l117 1116h-139z" />
</font>
</defs>
</svg>
