<?xml version="1.0" standalone="no"?>
<!DOCTYPE svg PUBLIC "-//W3C//DTD SVG 1.1//EN" "http://www.w3.org/Graphics/SVG/1.1/DTD/svg11.dtd" >
<svg xmlns="http://www.w3.org/2000/svg">
<metadata></metadata>
<defs>
<font id="kessel_105bold" horiz-adv-x="1341" >
<font-face units-per-em="2048" ascent="1536" descent="-512" />
<missing-glyph horiz-adv-x="552" />
<glyph horiz-adv-x="2048" />
<glyph horiz-adv-x="2048" />
<glyph unicode="&#xd;" horiz-adv-x="2048" />
<glyph unicode=" "  horiz-adv-x="552" />
<glyph unicode="&#x09;" horiz-adv-x="552" />
<glyph unicode="&#xa0;" horiz-adv-x="552" />
<glyph unicode="!" horiz-adv-x="526" d="M106 143q0 64 46.5 109t111.5 45t111.5 -45t46.5 -109q0 -67 -46.5 -112t-111.5 -45t-111.5 45t-46.5 112zM123 1536h280l-30 -1118h-219z" />
<glyph unicode="&#x22;" horiz-adv-x="632" d="M102 977v559h150v-559h-150zM383 977v559h147v-559h-147z" />
<glyph unicode="#" horiz-adv-x="1269" d="M41 524v138h328l45 210h-373v140h401l111 524h141l-110 -524h209l110 524h141l-110 -524h295v-140h-328l-45 -210h373v-138h-402l-110 -524h-142l115 524h-211l-112 -524h-138l111 524h-299zM510 662h209l45 210h-211z" />
<glyph unicode="$" horiz-adv-x="1312" d="M82 164l164 231q73 -72 178 -112.5t225 -40.5q69 0 127.5 23t95 59.5t51 81.5t3.5 88t-56.5 81t-121.5 58l-263 67q-168 45 -272 155t-104 271q0 154 115 271t288 157v105h276v-98q221 -35 386 -162l-162 -230q-147 121 -363 121q-69 0 -127 -25.5t-86 -65.5t-31 -83.5 t37 -84t117 -62.5l246 -64q91 -22 166.5 -61.5t134.5 -96t92 -134.5t33 -169q0 -169 -126.5 -297t-316.5 -167v-136h-276v131q-253 38 -430 189z" />
<glyph unicode="%" horiz-adv-x="1269" d="M82 1292q0 117 81 198t195 81q77 0 142 -37t102 -100q37 -66 111 -66q39 0 71.5 22t46.5 58l52 123l141 -60l-645 -1546l-141 60l497 1192h-22q-43 0 -80 12q-24 -93 -100 -154t-175 -61q-114 0 -195 81t-81 197zM231 1292q0 -53 37.5 -90t89.5 -37q54 0 91.5 36.5 t37.5 90.5t-37.5 91.5t-91.5 37.5q-52 0 -89.5 -37.5t-37.5 -91.5zM631 246q0 115 81 196.5t195 81.5q117 0 199 -81t82 -197q0 -117 -82 -199t-199 -82q-114 0 -195 82t-81 199zM780 246q0 -53 37.5 -90t89.5 -37q54 0 91.5 36.5t37.5 90.5q0 53 -37.5 91t-91.5 38 q-51 0 -89 -38.5t-38 -90.5z" />
<glyph unicode="&#x26;" horiz-adv-x="1366" d="M82 487q0 134 68 242.5t180 185.5q-99 126 -99 254q0 169 120.5 285.5t291.5 116.5t291.5 -116.5t120.5 -285.5q0 -108 -56.5 -201t-151.5 -146.5t-204 -53.5q-108 0 -184 -77t-76 -183q0 -109 76 -186.5t184 -77.5q109 0 185.5 77.5t76.5 186.5v86q0 129 92 222t222 93 h86v-280h-86q-14 0 -25.5 -11t-11.5 -24v-279q0 -15 11.5 -25.5t25.5 -10.5h86v-279h-86q-133 0 -224 94q-148 -129 -352 -129q-155 0 -283.5 67t-203 187t-74.5 268zM504 1153q0 -60 40 -100.5t99 -40.5q58 0 99.5 41t41.5 100q0 57 -42 97t-99 40q-58 0 -98.5 -40 t-40.5 -97z" />
<glyph unicode="'" horiz-adv-x="354" d="M102 977v559h150v-559h-150z" />
<glyph unicode="(" horiz-adv-x="690" d="M164 588q0 261 63 517.5t179 465.5h223q-129 -194 -192.5 -450.5t-63.5 -532.5q0 -274 64 -527.5t192 -445.5h-223q-115 208 -178.5 463t-63.5 510z" />
<glyph unicode=")" horiz-adv-x="690" d="M61 -385q128 192 192 445.5t64 527.5q0 276 -63.5 532.5t-192.5 450.5h224q115 -209 178 -465.5t63 -517.5q0 -256 -63.5 -510.5t-177.5 -462.5h-224z" />
<glyph unicode="*" horiz-adv-x="788" d="M164 1268l121 57l-121 53l69 117l107 -78l-12 133h135l-12 -133l108 78l66 -117l-121 -53l121 -57l-66 -115l-108 76l12 -133h-135l12 133l-107 -76z" />
<glyph unicode="+" horiz-adv-x="1392" d="M102 487v209h492v490h209v-490h487v-209h-487v-487h-209v487h-492z" />
<glyph unicode="," horiz-adv-x="561" d="M72 141q0 65 46.5 111.5t110.5 46.5q65 0 111.5 -46.5t46.5 -111.5v-151q0 -98 -69 -168t-166 -70v133q41 0 72 30t32 73q-10 -4 -27 -4q-65 0 -111 46t-46 111z" />
<glyph unicode="-" horiz-adv-x="952" d="M143 487v209h666v-209h-666z" />
<glyph unicode="." horiz-adv-x="561" d="M72 141q0 65 46.5 111.5t110.5 46.5q65 0 111.5 -46.5t46.5 -111.5q0 -64 -46.5 -110.5t-111.5 -46.5t-111 46t-46 111z" />
<glyph unicode="/" horiz-adv-x="1028" d="M123 25l643 1546l139 -60l-643 -1546z" />
<glyph unicode="0" horiz-adv-x="1312" d="M106 504v526q0 109 44 209.5t118 173t176 115.5t213 43q147 0 273.5 -72.5t201 -197.5t74.5 -271v-526q0 -146 -74.5 -270.5t-201 -196.5t-273.5 -72q-111 0 -213 43t-176 115t-118 172t-44 209zM393 504q0 -107 77.5 -183.5t186.5 -76.5q108 0 185.5 76.5t77.5 183.5 v526q0 107 -77.5 183.5t-185.5 76.5q-109 0 -186.5 -76.5t-77.5 -183.5v-526z" />
<glyph unicode="1" horiz-adv-x="784" d="M102 981v307l560 322v-1610h-279v1141z" />
<glyph unicode="2" horiz-adv-x="1210" d="M74 0l721 895q53 62 53 156q0 100 -71.5 171.5t-172.5 71.5t-172.5 -71.5t-71.5 -171.5q0 -116 93 -193l-179 -217q-89 73 -140.5 180.5t-51.5 229.5q0 106 41.5 202t111.5 166t166.5 111t202.5 41q143 0 263.5 -69.5t190.5 -189.5t70 -261q0 -192 -116 -330l-355 -440 h406v-281h-989z" />
<glyph unicode="3" horiz-adv-x="1226" d="M78 485h276q0 -100 72.5 -171.5t171.5 -71.5q103 0 175.5 71t72.5 172q0 102 -72.5 173t-175.5 71q-116 0 -188 -88l-217 176l354 443h-367v276h953l-431 -535q184 -36 313.5 -182t129.5 -334q0 -140 -75.5 -260.5t-201.5 -190t-270 -69.5q-106 0 -202 41t-166 111 t-111 166t-41 202z" />
<glyph unicode="4" horiz-adv-x="1259" d="M8 279l1036 1331v-1051h175v-280h-175v-279h-280v279h-756zM532 559h232v311h-8l-224 -303v-8z" />
<glyph unicode="5" horiz-adv-x="1273" d="M78 504h289q0 -108 77 -185t185 -77q109 0 186.5 76.5t77.5 185.5q0 108 -77.5 184t-186.5 76q-119 0 -199 -90l-274 47l143 811h735v-277h-502l-38 -227q66 16 135 16q253 0 408 -151.5t155 -388.5q0 -114 -44 -215t-119.5 -171.5t-179.5 -111.5t-220 -41 q-234 0 -392.5 153.5t-158.5 385.5z" />
<glyph unicode="6" horiz-adv-x="1288" d="M82 508q0 141 74 270l458 758h322l-283 -487v-7q109 -2 210 -43t176.5 -110.5t121 -169t45.5 -211.5q0 -153 -75.5 -278t-204.5 -195t-283 -70q-114 0 -217.5 41t-179 112.5t-120 173t-44.5 216.5zM383 508q0 -109 76 -186.5t184 -77.5t184 77.5t76 186.5q0 106 -76 183 t-184 77t-184 -77t-76 -183z" />
<glyph unicode="7" horiz-adv-x="1210" d="M53 1257v279h1116l-616 -1536h-301l502 1257h-701z" />
<glyph unicode="8" horiz-adv-x="1286" d="M82 487q0 139 66 248t178 183q-113 126 -113 260q0 170 124.5 281.5t307.5 111.5q182 0 305 -111.5t123 -281.5q0 -138 -110 -260q111 -73 176 -182t65 -249q0 -149 -74.5 -269t-202.5 -186.5t-282 -66.5q-156 0 -284.5 66.5t-203.5 186.5t-75 269zM383 508 q0 -109 76.5 -186.5t185.5 -77.5q108 0 184 77.5t76 186.5q0 106 -76 183t-184 77t-185 -77t-77 -183zM494 1153q0 -63 44 -107.5t107 -44.5q61 0 105.5 44.5t44.5 107.5q0 60 -45 105t-105 45q-62 0 -106.5 -44.5t-44.5 -105.5z" />
<glyph unicode="9" horiz-adv-x="1288" d="M82 1028q0 153 75.5 278t204.5 195t283 70q114 0 217.5 -41t179 -112.5t120 -173t44.5 -216.5q0 -143 -73 -270l-459 -758h-322l283 487v7q-109 2 -210 43t-176.5 110.5t-121 169t-45.5 211.5zM385 1028q0 -106 76 -183t184 -77t184 77t76 183q0 109 -76 186.5t-184 77.5 t-184 -77.5t-76 -186.5z" />
<glyph unicode=":" horiz-adv-x="561" d="M72 141q0 65 46.5 111.5t110.5 46.5q65 0 111.5 -46.5t46.5 -111.5q0 -64 -46.5 -110.5t-111.5 -46.5t-111 46t-46 111zM72 1044q0 65 46.5 111.5t110.5 46.5q65 0 111.5 -47t46.5 -111t-46.5 -110.5t-111.5 -46.5t-111 46.5t-46 110.5z" />
<glyph unicode=";" horiz-adv-x="561" d="M72 141q0 65 46.5 111.5t110.5 46.5q65 0 111.5 -46.5t46.5 -111.5v-151q0 -98 -69 -168t-166 -70v133q41 0 72 30t32 73q-10 -4 -27 -4q-65 0 -111 46t-46 111zM72 1044q0 65 46.5 111.5t110.5 46.5q65 0 111.5 -47t46.5 -111t-46.5 -110.5t-111.5 -46.5t-111 46.5 t-46 110.5z" />
<glyph unicode="&#x3c;" horiz-adv-x="862" d="M82 487v209l698 490v-256l-497 -332v-10l497 -332v-256z" />
<glyph unicode="=" horiz-adv-x="1390" d="M102 315v209h1186v-209h-1186zM102 662v210h1186v-210h-1186z" />
<glyph unicode="&#x3e;" horiz-adv-x="862" d="M82 0v256l498 332v10l-498 332v256l698 -490v-209z" />
<glyph unicode="?" horiz-adv-x="1071" d="M82 1210q28 154 153.5 257.5t286.5 103.5q126 0 233 -55t170.5 -155.5t63.5 -225.5t-63.5 -226t-170.5 -156t-233 -55q-29 0 -49 -20t-20 -49t20 -49.5t49 -20.5q36 0 56 27l124 -180q-77 -56 -180 -56q-143 0 -238.5 87t-95.5 225q0 140 95.5 227.5t238.5 87.5 q65 0 115.5 47t50.5 111t-50.5 110.5t-115.5 46.5q-59 0 -107 -38t-57 -93zM365 141q0 65 45.5 111.5t111.5 46.5q64 0 110 -46.5t46 -111.5t-46 -111t-110 -46q-66 0 -111.5 46t-45.5 111z" />
<glyph unicode="@" horiz-adv-x="1789" d="M82 768q0 218 107.5 402.5t292.5 292.5t403 108q217 0 402 -108t293 -293t108 -402v-78q0 -133 -95 -228t-229 -95t-223 92q-116 -92 -256 -92q-166 0 -284 117.5t-118 283.5t118 283.5t284 117.5t283.5 -117.5t117.5 -283.5v-86q3 -30 25.5 -51t52.5 -21q34 0 57 23 t23 57v78q0 113 -44.5 216.5t-119.5 178.5t-178.5 119.5t-216.5 44.5q-114 0 -217.5 -44.5t-178.5 -119.5t-119 -178.5t-44 -216.5t44 -216.5t119 -178.5t178.5 -119.5t217.5 -44.5q129 0 250 59l108 -219q-173 -84 -358 -84q-218 0 -403 108t-292.5 292.5t-107.5 402.5z M727 768q0 -64 46.5 -111t111.5 -47q64 0 110.5 46.5t46.5 111.5t-46.5 111.5t-110.5 46.5q-65 0 -111.5 -47t-46.5 -111z" />
<glyph unicode="A" horiz-adv-x="1529" d="M20 0l746 1610l743 -1610h-333l-95 217h-632l-95 -217h-334zM567 489h396l-193 447h-8z" />
<glyph unicode="B" horiz-adv-x="1421" d="M123 0v1536h690q125 0 229.5 -53t166 -149.5t61.5 -215.5q0 -182 -180 -297q105 -48 177 -141t72 -227q0 -127 -66 -231.5t-178.5 -163t-246.5 -58.5h-725zM414 279h434q80 0 136 56.5t56 135.5q0 78 -56.5 134.5t-135.5 56.5h-434v-383zM414 942h399q65 0 110.5 46 t45.5 110q0 66 -45.5 111.5t-110.5 45.5h-399v-313z" />
<glyph unicode="C" horiz-adv-x="1646" d="M72 768q0 223 110.5 408t299 290t413.5 105q210 0 390.5 -101.5t289.5 -273.5l-238 -149q-70 112 -187 177.5t-255 65.5q-106 0 -203 -41t-167 -111t-111 -167t-41 -203q0 -143 69.5 -263.5t190 -190.5t262.5 -70q137 0 254.5 66t187.5 177l238 -147q-109 -173 -289 -274 t-391 -101q-225 0 -413.5 105t-299 290t-110.5 408z" />
<glyph unicode="D" horiz-adv-x="1517" d="M123 0v1536h534q164 0 310 -58t251.5 -159t166.5 -244t61 -307t-61 -307t-166.5 -244t-251.5 -159t-310 -58h-534zM414 279h243q201 0 344.5 143.5t143.5 345.5q0 132 -65.5 244t-178 177.5t-244.5 65.5h-243v-976z" />
<glyph unicode="E" horiz-adv-x="1323" d="M123 0v1536h1128v-281h-837v-346h696v-280h-696v-350h837v-279h-1128z" />
<glyph unicode="F" horiz-adv-x="1245" d="M123 0v1536h1091v-281h-800v-346h661v-282h-661v-627h-291z" />
<glyph unicode="G" horiz-adv-x="1619" d="M72 768q0 223 110.5 408t299 290t413.5 105q162 0 310 -63.5t259 -174.5l-198 -196q-71 73 -167 113t-204 40q-106 0 -202.5 -41.5t-166.5 -111t-111.5 -166.5t-41.5 -203q0 -107 41.5 -204.5t111.5 -167t166.5 -111t202.5 -41.5q187 0 334 118v267h-334v280h610v-663 q-112 -131 -271 -206t-339 -75q-225 0 -413.5 105t-299 290t-110.5 408z" />
<glyph unicode="H" horiz-adv-x="1452" d="M123 0v1536h291v-627h628v627h287v-1536h-287v629h-628v-629h-291z" />
<glyph unicode="I" horiz-adv-x="536" d="M123 0v1536h291v-1536h-291z" />
<glyph unicode="J" horiz-adv-x="1056" d="M41 166l225 166q58 -86 168 -86q88 0 148.5 60.5t60.5 148.5v1081h291v-1081q0 -212 -145 -351t-355 -139q-120 0 -223 53.5t-170 147.5z" />
<glyph unicode="K" horiz-adv-x="1421" d="M123 0v1536h280v-711l619 711h369l-668 -768l668 -768h-369l-483 553l-136 -154v-399h-280z" />
<glyph unicode="L" horiz-adv-x="1210" d="M123 0v1536h291v-1257h766v-279h-1057z" />
<glyph unicode="M" horiz-adv-x="1802" d="M123 0v1610l776 -768h4l776 768v-1610h-278l2 936h-8l-494 -487l-491 487h-9l2 -936h-280z" />
<glyph unicode="N" horiz-adv-x="1452" d="M123 0v1610l913 -965h8l-2 891h287v-1610l-909 965h-8l2 -891h-291z" />
<glyph unicode="O" horiz-adv-x="1789" d="M72 768q0 223 110 408t298.5 290t414.5 105q225 0 413.5 -105t299 -290t110.5 -408t-110.5 -408t-299 -290t-413.5 -105q-226 0 -414.5 105t-298.5 290t-110 408zM373 768q0 -143 69.5 -263.5t190 -190.5t262.5 -70q143 0 263.5 70t190.5 190.5t70 263.5q0 142 -70 262.5 t-190.5 190t-263.5 69.5q-106 0 -203 -41t-167 -111t-111 -167t-41 -203z" />
<glyph unicode="P" horiz-adv-x="1411" d="M123 0v1536h676q148 0 271.5 -67.5t196 -188t72.5 -268.5t-72.5 -268.5t-196 -188.5t-271.5 -68h-385v-487h-291zM414 768h385q100 0 171.5 71.5t71.5 172.5t-71.5 172t-171.5 71h-385v-487z" />
<glyph unicode="Q" horiz-adv-x="1800" d="M72 768q0 163 66.5 312t178 256.5t263.5 171t317 63.5q163 0 314.5 -63.5t262.5 -171t177.5 -256.5t66.5 -312q0 -194 -141 -426l123 -106v-377l-311 278q-104 -81 -230.5 -126.5t-261.5 -45.5q-164 0 -316.5 64t-264 171.5t-178 256.5t-66.5 311zM373 768 q0 -183 110 -324q17 157 135 263t279 106q164 0 281 -111l186 -167q55 110 55 233q0 106 -41 203t-111 167t-167 111t-203 41q-143 0 -263.5 -69.5t-190.5 -190t-70 -262.5zM752 387q0 -59 41.5 -101t101.5 -42h2q151 0 281 84l-185 168q-42 36 -96 36q-61 0 -103 -42 t-42 -103z" />
<glyph unicode="R" horiz-adv-x="1421" d="M123 0v1536h676q148 0 271.5 -67.5t196 -188t72.5 -268.5q0 -162 -85.5 -287.5t-225.5 -187.5l268 -537h-323l-244 487h-315v-487h-291zM414 768h385q100 0 171.5 71.5t71.5 172.5t-71.5 172t-171.5 71h-385v-487z" />
<glyph unicode="S" horiz-adv-x="1312" d="M82 164l164 231q73 -72 178 -112.5t225 -40.5q69 0 127.5 23t95 59.5t50.5 81.5q8 26 9 51q0 19 -5 37q-11 43 -56.5 81t-121.5 58l-263 67q-168 45 -272 155t-104 271q0 123 73 226t197 161t270 58q149 0 284.5 -45.5t240.5 -126.5l-162 -230q-147 121 -363 121 q-69 0 -127 -25.5t-86 -65.5q-28 -39 -31 -83v-7q0 -39 37 -77q40 -40 117 -63l246 -64q91 -22 166.5 -61.5t134.5 -96t92 -134.5t33 -169q0 -133 -78 -243.5t-211.5 -173t-292.5 -62.5q-163 0 -309.5 52.5t-257.5 146.5z" />
<glyph unicode="T" horiz-adv-x="1259" d="M31 1255v281h1198v-281h-453v-1255h-289v1255h-456z" />
<glyph unicode="U" horiz-adv-x="1468" d="M123 535v1001h291v-1001q0 -134 91 -215.5t230 -81.5t230.5 81.5t91.5 215.5v1001h289v-1001q0 -173 -79.5 -303.5t-217.5 -198.5t-314 -68q-270 0 -441 154.5t-171 415.5z" />
<glyph unicode="V" horiz-adv-x="1488" d="M0 1536h336l405 -936h9l405 936h334l-744 -1610z" />
<glyph unicode="W" horiz-adv-x="2160" d="M0 1536h328l346 -852h8l397 926l402 -926h8l344 852h328l-688 -1610l-390 926h-8l-385 -926z" />
<glyph unicode="X" horiz-adv-x="1423" d="M20 0l508 768l-508 768h349l340 -520h8l338 520h348l-508 -768l508 -768h-348l-338 518h-8l-340 -518h-349z" />
<glyph unicode="Y" horiz-adv-x="1464" d="M31 1536h344l356 -586h8l351 586h344l-555 -891v-645h-287v645z" />
<glyph unicode="Z" horiz-adv-x="1423" d="M25 0l847 1253v4l-753 -2v281h1280l-846 -1255v-5l752 3v-279h-1280z" />
<glyph unicode="[" horiz-adv-x="643" d="M164 -350v1886h418v-209h-209v-1468h209v-209h-418z" />
<glyph unicode="\" horiz-adv-x="1028" d="M123 1511l139 60l643 -1546l-139 -60z" />
<glyph unicode="]" horiz-adv-x="643" d="M61 -141h209v1468h-209v209h418v-1886h-418v209z" />
<glyph unicode="^" horiz-adv-x="1224" d="M123 768l385 768h209l385 -768h-236l-250 510h-4l-254 -510h-235z" />
<glyph unicode="_" horiz-adv-x="1062" d="M0 -186h1186v-52h-1186v52z" />
<glyph unicode="`" horiz-adv-x="718" d="M184 1401v170l351 -121v-135z" />
<glyph unicode="a" horiz-adv-x="1486" d="M82 594q0 176 80 320t216.5 225.5t299.5 81.5q244 0 397 -207h4v172h285v-1186h-285v174h-4q-154 -209 -397 -209q-163 0 -299.5 81.5t-216.5 226t-80 321.5zM383 594q0 -145 101.5 -247.5t246.5 -102.5q146 0 247 102.5t101 247.5q0 143 -101.5 245.5t-246.5 102.5 q-144 0 -246 -102.5t-102 -245.5z" />
<glyph unicode="b" horiz-adv-x="1488" d="M123 0v1536h287v-522h4q157 207 397 207q163 0 299.5 -81.5t216.5 -225.5t80 -320q0 -177 -80 -321.5t-216.5 -226t-299.5 -81.5q-262 0 -420 234h-4v-199h-264zM410 594q0 -145 101.5 -247.5t246.5 -102.5q146 0 247 102.5t101 247.5q0 143 -101.5 245.5t-246.5 102.5 q-144 0 -246 -102.5t-102 -245.5z" />
<glyph unicode="c" horiz-adv-x="1251" d="M82 594q0 176 87 320t235.5 225.5t326.5 81.5q262 0 447 -185l-201 -196q-99 102 -246 102q-144 0 -246 -102.5t-102 -245.5q0 -145 101.5 -247.5t246.5 -102.5q147 0 246 102l201 -196q-90 -88 -204.5 -136.5t-242.5 -48.5q-178 0 -326.5 81.5t-235.5 226t-87 321.5z " />
<glyph unicode="d" horiz-adv-x="1488" d="M82 594q0 176 80 320t216.5 225.5t299.5 81.5q240 0 397 -207h4v522h287v-1536h-264v199h-4q-158 -234 -420 -234q-163 0 -299.5 81.5t-216.5 226t-80 321.5zM383 594q0 -145 101 -247.5t247 -102.5q145 0 246.5 102.5t101.5 247.5q0 143 -102 245.5t-246 102.5 q-145 0 -246.5 -102.5t-101.5 -245.5z" />
<glyph unicode="e" horiz-adv-x="1447" d="M82 594q0 175 87 319.5t235.5 226t324.5 81.5q103 0 200 -31.5t175.5 -89t137.5 -134.5t91.5 -173t32.5 -199q0 -61 -16 -133h-944q37 -107 125 -171.5t198 -64.5q101 0 193 45.5t137 120.5l221 -143q-89 -130 -235 -206.5t-316 -76.5q-176 0 -324.5 82t-235.5 227 t-87 320zM406 713h649q-37 107 -125.5 171t-200.5 64q-110 0 -198 -64t-125 -171z" />
<glyph unicode="f" horiz-adv-x="782" d="M61 932v254h103v35q0 144 105.5 247t250.5 103q135 0 238 -96l-174 -207q-22 22 -64 22q-28 0 -48.5 -20.5t-20.5 -48.5v-35h174v-254h-174v-932h-287v932h-103z" />
<glyph unicode="g" horiz-adv-x="1452" d="M82 621q0 169 80 307t216.5 215.5t299.5 77.5q227 0 383 -187h4v152h264v-926q0 -174 -87.5 -322.5t-237.5 -235.5t-326 -87q-270 0 -500 143l141 242q176 -121 359 -121q131 0 243.5 92t127.5 224q0 1 -2 2q-1 1 -1.5 1t-1.5 1q-166 -183 -366 -183q-163 0 -299.5 79 t-216.5 218t-80 308zM383 610q0 -137 97 -234t233 -97q138 0 234.5 97t96.5 234t-96.5 234.5t-234.5 97.5q-136 0 -233 -97.5t-97 -234.5z" />
<glyph unicode="h" d="M123 0v1536h287v-498h6q52 76 143.5 129.5t200.5 53.5q207 0 333 -139t126 -365v-717h-287v680q0 109 -76.5 185.5t-183.5 76.5q-109 0 -185.5 -76.5t-76.5 -185.5v-680h-287z" />
<glyph unicode="i" horiz-adv-x="532" d="M104 1417q0 67 47 114.5t115 47.5t115 -47.5t47 -114.5t-47 -114.5t-115 -47.5t-115 47.5t-47 114.5zM123 0v1186h287v-1186h-287z" />
<glyph unicode="j" horiz-adv-x="645" d="M-74 -291l172 207q33 -22 66 -22q29 0 49 20t20 51v1221h287v-1221q0 -145 -106 -247.5t-250 -102.5q-141 0 -238 94zM215 1417q0 67 47.5 114.5t114.5 47.5t114.5 -47.5t47.5 -114.5t-47.5 -114.5t-114.5 -47.5t-114.5 47.5t-47.5 114.5z" />
<glyph unicode="k" horiz-adv-x="1286" d="M123 0v1536h278v-840l473 490h388l-533 -551l533 -635h-365l-362 434l-134 -139v-295h-278z" />
<glyph unicode="l" horiz-adv-x="532" d="M123 0v1536h287v-1536h-287z" />
<glyph unicode="m" horiz-adv-x="1941" d="M123 0v1186h264v-162h4q50 85 127.5 141t183.5 56q200 0 330 -205q66 89 153 147t187 58q196 0 321.5 -137.5t125.5 -350.5v-733h-287v733q0 88 -61.5 148.5t-149.5 60.5q-87 0 -148 -61t-61 -148v-733h-285v733q0 88 -60.5 148.5t-148.5 60.5q-86 0 -147 -61t-61 -148 v-733h-287z" />
<glyph unicode="n" d="M123 0v1186h264v-170h4q49 90 144.5 147.5t224.5 57.5q204 0 331.5 -140.5t127.5 -363.5v-717h-287v680q0 109 -76.5 185.5t-183.5 76.5q-109 0 -185.5 -76.5t-76.5 -185.5v-680h-287z" />
<glyph unicode="o" horiz-adv-x="1460" d="M82 594q0 176 86.5 320t235 225.5t325.5 81.5q178 0 326.5 -81.5t235.5 -225.5t87 -320q0 -177 -87 -321.5t-235.5 -226t-326.5 -81.5q-177 0 -325.5 81.5t-235 226t-86.5 321.5zM383 594q0 -145 101.5 -247.5t244.5 -102.5q146 0 248 102.5t102 247.5q0 143 -102 245.5 t-248 102.5q-142 0 -244 -102.5t-102 -245.5z" />
<glyph unicode="p" horiz-adv-x="1488" d="M123 -350v1536h264v-199h4q158 234 420 234q163 0 299.5 -81.5t216.5 -226t80 -321.5q0 -176 -80 -320.5t-216.5 -225.5t-299.5 -81q-240 0 -397 207h-4v-522h-287zM410 592q0 -143 102 -245.5t246 -102.5q145 0 246.5 102.5t101.5 245.5q0 145 -101 247.5t-247 102.5 q-145 0 -246.5 -102.5t-101.5 -247.5z" />
<glyph unicode="q" horiz-adv-x="1488" d="M82 592q0 177 80 321.5t216.5 226t299.5 81.5q262 0 420 -234h4v199h264v-1536h-287v522h-4q-157 -207 -397 -207q-163 0 -299.5 81t-216.5 225.5t-80 320.5zM383 592q0 -143 101.5 -245.5t246.5 -102.5q144 0 246 102.5t102 245.5q0 145 -101.5 247.5t-246.5 102.5 q-146 0 -247 -102.5t-101 -247.5z" />
<glyph unicode="r" horiz-adv-x="1024" d="M123 0v1186h266v-164q51 88 133 143.5t193 55.5q156 0 293 -78l-142 -242q-67 39 -151 39q-126 0 -215.5 -89t-89.5 -216v-635h-287z" />
<glyph unicode="s" horiz-adv-x="1175" d="M82 104l141 224q137 -100 361 -113q12 -1 23 -1q100 0 158 56q36 36 36 76q0 14 -4 27q-20 62 -113 82l-250 37q-152 22 -240 114t-88 242q0 168 133.5 271.5t344.5 103.5q266 0 473 -140l-127 -211q-60 46 -155 73.5t-191 27.5q-137 0 -182 -66q-16 -23 -16 -47 q0 -23 15 -45q30 -43 91 -53l253 -39q66 -12 125 -38t112 -70.5t84.5 -115t31.5 -159.5q0 -114 -71 -201t-186.5 -130.5t-256.5 -43.5q-290 0 -502 139z" />
<glyph unicode="t" horiz-adv-x="704" d="M51 932v254h107v268h286v-268h174v-254h-174v-582q0 -30 20 -50.5t50 -20.5h139v-279h-139q-147 0 -251.5 102t-104.5 248v582h-107z" />
<glyph unicode="u" d="M123 469v717h287v-680q0 -109 76.5 -185.5t183.5 -76.5q109 0 185.5 76.5t76.5 185.5v680h287v-1186h-265v170h-4q-49 -91 -144.5 -148t-223.5 -57q-204 0 -331.5 140.5t-127.5 363.5z" />
<glyph unicode="v" horiz-adv-x="1300" d="M31 1186h311l303 -633h8l303 633h314l-621 -1260z" />
<glyph unicode="w" horiz-adv-x="1957" d="M31 1186h309l301 -623h8l330 697l330 -697h8l301 623h309l-614 -1260l-330 697h-8l-330 -697z" />
<glyph unicode="x" horiz-adv-x="1269" d="M31 0l432 594l-432 592h346l256 -357h4l256 357h346l-430 -592l430 -594h-346l-256 358h-4l-256 -358h-346z" />
<glyph unicode="y" horiz-adv-x="1259" d="M31 1186h301l297 -772h4l297 772h299l-594 -1536h-299l145 377z" />
<glyph unicode="z" horiz-adv-x="1169" d="M25 0l600 903v6h-547v277h1067l-602 -901v-6h547v-279h-1065z" />
<glyph unicode="{" horiz-adv-x="784" d="M164 487v209h72q42 0 72 32t30 75v418q0 132 92 223.5t223 91.5h70v-209h-70q-44 0 -74 -31t-30 -75v-418q0 -108 -90 -209q90 -105 90 -209v-420q0 -44 30 -75t74 -31h70v-209h-70q-131 0 -223 92t-92 223v420q0 42 -30 72t-72 30h-72z" />
<glyph unicode="|" horiz-adv-x="634" d="M246 -350v1886h143v-1886h-143z" />
<glyph unicode="}" horiz-adv-x="784" d="M61 -141h70q44 0 74.5 31t30.5 75v420q0 104 90 209q-90 101 -90 209v418q0 44 -30.5 75t-74.5 31h-70v209h70q131 0 223 -91.5t92 -223.5v-418q0 -43 30.5 -75t72.5 -32h72v-209h-72q-43 0 -73 -30.5t-30 -71.5v-420q0 -131 -92 -223t-223 -92h-70v209z" />
<glyph unicode="~" horiz-adv-x="962" d="M123 526q0 96 67.5 164t163.5 68q65 0 119 -33t84 -88q17 -33 53 -33q25 0 42.5 17.5t17.5 42.5h170q0 -95 -67.5 -163.5t-162.5 -68.5q-65 0 -118.5 33t-83.5 88q-16 33 -54 33q-23 0 -40 -17.5t-17 -42.5h-174z" />
<glyph unicode="&#xa1;" horiz-adv-x="526" d="M106 1393q0 67 46.5 112t111.5 45t111.5 -45t46.5 -112q0 -64 -46.5 -109t-111.5 -45t-111.5 45t-46.5 109zM123 0l31 1118h219l30 -1118h-280z" />
<glyph unicode="&#xa2;" horiz-adv-x="1251" d="M82 594q0 229 143 398t365 214v156h282v-158q179 -41 306 -168l-201 -196q-99 102 -246 102q-144 0 -246 -102.5t-102 -245.5q0 -145 101.5 -247.5t246.5 -102.5q147 0 246 102l201 -196q-130 -130 -306 -168v-156h-282v154q-223 45 -365.5 214.5t-142.5 399.5z" />
<glyph unicode="&#xa3;" horiz-adv-x="1277" d="M82 649v281h164v133q0 139 68.5 255.5t188.5 184.5t265 68q104 0 203.5 -40t169.5 -108l-197 -200q-30 31 -79 49t-97 18q-109 0 -176.5 -61t-67.5 -166v-133h394v-281h-394v-262q134 -16 234 -111q29 -32 72.5 -32t74.5 32l94 93l197 -197l-94 -94q-112 -112 -271 -112 t-272 112q-29 31 -72.5 31t-74.5 -31l-103 -103l-196 197l102 104q31 31 31 74v299h-164z" />
<glyph unicode="&#xa4;" horiz-adv-x="1452" d="M98 594q0 178 97 334l-62 61l197 197l61 -62q156 97 336 97q181 0 334 -97l61 62l197 -197l-62 -61q97 -156 97 -334q0 -183 -97 -336l62 -61l-197 -197l-61 61q-151 -96 -334 -96q-182 0 -336 96l-61 -61l-197 197l62 61q-97 153 -97 336zM379 594q0 -145 101.5 -247.5 t246.5 -102.5q146 0 247 102.5t101 247.5q0 143 -101.5 245.5t-246.5 102.5q-144 0 -246 -102.5t-102 -245.5z" />
<glyph unicode="&#xa5;" horiz-adv-x="1331" d="M31 1536h334l299 -500h4l301 500h331l-284 -473h162v-174h-269l-63 -105h332v-174h-367v-610h-291v610h-366v174h333l-65 105h-268v174h170z" />
<glyph unicode="&#xa6;" horiz-adv-x="454" d="M123 -102v591h209v-591h-209zM123 698v594h209v-594h-209z" />
<glyph unicode="&#xa7;" horiz-adv-x="1179" d="M102 594q0 159 152 293q-71 63 -111.5 130.5t-40.5 151.5q0 173 138.5 287.5t347.5 114.5q162 0 288 -83t168 -212l-264 -107q-9 53 -63 87t-129 34q-78 0 -133.5 -40t-55.5 -97q0 -60 55 -100.5t134 -40.5q212 0 350.5 -115.5t138.5 -302.5q0 -160 -151 -293 q151 -133 151 -285q0 -168 -139.5 -284.5t-349.5 -116.5q-163 0 -289.5 85.5t-165.5 217.5l266 98q9 -51 63.5 -84.5t125.5 -33.5q81 0 136.5 40t55.5 97q0 59 -55 99t-137 40q-208 0 -347 117.5t-139 302.5zM399 594q0 -65 55.5 -111.5t133.5 -46.5q81 0 136.5 46.5 t55.5 111.5t-55.5 111.5t-136.5 46.5q-78 0 -133.5 -46.5t-55.5 -111.5z" />
<glyph unicode="&#xa8;" horiz-adv-x="675" d="M31 1466q0 43 31 74t75 31q41 0 72 -31t31 -74q0 -42 -31 -73t-72 -31q-44 0 -75 30.5t-31 73.5zM436 1466q0 43 31 74t74 31q44 0 74 -31t30 -74t-30 -73.5t-74 -30.5q-43 0 -74 30.5t-31 73.5z" />
<glyph unicode="&#xa9;" horiz-adv-x="1419" d="M82 594q0 170 84 314.5t228.5 228.5t314.5 84q171 0 315.5 -84t228.5 -228.5t84 -314.5q0 -171 -84 -316t-228.5 -229t-315.5 -84q-170 0 -314.5 84t-228.5 229t-84 316zM156 594q0 -112 44 -215t118 -177.5t176.5 -118.5t214.5 -44q114 0 217 44t177 118.5t117.5 177.5 t43.5 215t-43.5 214.5t-117.5 176.5t-177 118t-217 44q-112 0 -214.5 -44t-176.5 -118t-118 -176.5t-44 -214.5zM289 594q0 173 123.5 296.5t296.5 123.5q176 0 299 -123l-109 -109q-77 80 -190 80q-110 0 -189.5 -79t-79.5 -189t79.5 -189t189.5 -79q116 0 190 77l109 -108 q-123 -123 -299 -123q-174 0 -297 123t-123 299z" />
<glyph unicode="&#xaa;" horiz-adv-x="825" d="M82 1257q0 133 86.5 223.5t210.5 90.5q121 0 199 -105h2v86h143v-591h-143v86h-2q-78 -105 -199 -105q-124 0 -210.5 90.5t-86.5 224.5zM231 1257q0 -72 51.5 -124t123.5 -52q73 0 123.5 51.5t50.5 124.5q0 71 -50.5 123t-123.5 52q-72 0 -123.5 -52t-51.5 -123z" />
<glyph unicode="&#xab;" horiz-adv-x="1038" d="M82 594l436 434v-295l-153 -135v-8l153 -137v-295zM520 594l436 434v-295l-153 -135v-8l153 -137v-295z" />
<glyph unicode="&#xac;" horiz-adv-x="909" d="M123 487v209h663v-346h-208v137h-455z" />
<glyph unicode="&#xad;" horiz-adv-x="952" d="M143 487v209h666v-209h-666z" />
<glyph unicode="&#xae;" horiz-adv-x="653" d="M82 1327q0 100 72.5 172t173.5 72q100 0 171.5 -72t71.5 -172q0 -101 -71.5 -173.5t-171.5 -72.5q-101 0 -173.5 72.5t-72.5 173.5zM111 1327q0 -91 63 -154t154 -63q89 0 152 63t63 154q0 89 -63 151t-152 62q-91 0 -154 -62t-63 -151zM215 1174v313h141q43 0 73 -29 t30 -69q0 -65 -62 -95l62 -120h-64l-57 114h-68v-114h-55zM270 1343h86q20 0 32.5 13.5t12.5 32.5q0 18 -12.5 29.5t-32.5 11.5h-86v-87z" />
<glyph unicode="&#xaf;" horiz-adv-x="628" d="M123 1376v160h383v-160h-383z" />
<glyph unicode="&#xb0;" horiz-adv-x="622" d="M102 1362q0 87 61 148t148 61q88 0 148.5 -60.5t60.5 -148.5q0 -87 -61 -148t-148 -61q-86 0 -147.5 61.5t-61.5 147.5zM225 1362q0 -37 25.5 -62.5t60.5 -25.5q37 0 62.5 25.5t25.5 62.5q0 35 -25.5 60.5t-62.5 25.5q-35 0 -60.5 -25.5t-25.5 -60.5z" />
<glyph unicode="&#xb1;" horiz-adv-x="1392" d="M102 0v209h1188v-209h-1188zM102 662v210h492v314h209v-314h487v-210h-487v-312h-209v312h-492z" />
<glyph unicode="&#xb2;" horiz-adv-x="686" d="M78 766l360 446q27 34 27 78q0 51 -36 87t-87 36t-86 -36t-35 -87q0 -57 45 -96l-88 -109q-96 80 -96 205q0 107 76.5 183.5t183.5 76.5q109 0 185.5 -76.5t76.5 -183.5q0 -98 -57 -164l-178 -221h202v-139h-493z" />
<glyph unicode="&#xb3;" horiz-adv-x="698" d="M82 1012h139q0 -51 35.5 -87t85.5 -36q52 0 88.5 36t36.5 87t-36 86t-89 35q-57 0 -94 -43l-109 88l178 221h-184v137h477l-215 -266q92 -19 156.5 -92t64.5 -166q0 -106 -82 -183t-192 -77q-107 0 -183.5 76.5t-76.5 183.5z" />
<glyph unicode="&#xb4;" horiz-adv-x="718" d="M184 1315v135l351 121v-170z" />
<glyph unicode="&#xb6;" horiz-adv-x="1241" d="M51 1118q0 181 128 299.5t313 118.5h626v-1536h-209v1255h-137v-1255h-209v696h-71q-185 0 -313 120.5t-128 301.5zM352 1118q0 -59 41 -100t99 -41h71v278h-71q-57 0 -98.5 -40t-41.5 -97z" />
<glyph unicode="&#xb7;" horiz-adv-x="561" d="M72 594q0 65 46.5 111.5t110.5 46.5q65 0 111.5 -47t46.5 -111t-46.5 -111t-111.5 -47q-64 0 -110.5 46.5t-46.5 111.5z" />
<glyph unicode="&#xb8;" horiz-adv-x="667" d="M205 -315l67 36q12 -22 36.5 -28t47.5 6q22 14 28 38t-7 46q-12 23 -36.5 29t-45.5 -7l-39 66l47 176l72 -20l-37 -138q66 -6 106 -69q28 -47 13 -102t-64 -83q-50 -29 -104.5 -14.5t-83.5 64.5z" />
<glyph unicode="&#xb9;" horiz-adv-x="444" d="M61 1274v153l281 160v-821h-139v588z" />
<glyph unicode="&#xba;" horiz-adv-x="813" d="M82 1260q0 132 94.5 222.5t229.5 90.5q136 0 230.5 -90t94.5 -223q0 -134 -94.5 -225t-230.5 -91q-135 0 -229.5 91t-94.5 225zM233 1260q0 -72 51.5 -124.5t121.5 -52.5q73 0 124.5 52.5t51.5 124.5q0 71 -51.5 122.5t-124.5 51.5q-70 0 -121.5 -51.5t-51.5 -122.5z" />
<glyph unicode="&#xbb;" horiz-adv-x="1038" d="M82 158v295l154 137v8l-154 135v295l436 -434zM520 158v295l154 137v8l-154 135v295l436 -434z" />
<glyph unicode="&#xbc;" horiz-adv-x="1239" d="M61 1274v153l281 160v-821h-139v588zM223 10l649 1563l113 -43l-653 -1563zM594 139l518 666v-524h86v-142h-86v-139h-141v139h-377zM856 281h115v155h-4l-111 -151v-4z" />
<glyph unicode="&#xbd;" horiz-adv-x="1361" d="M61 1274v153l281 160v-821h-139v588zM223 10l649 1563l113 -43l-653 -1563zM754 0l360 446q27 34 27 78q0 51 -36 87t-87 36t-86 -36t-35 -87q0 -57 45 -96l-88 -109q-96 80 -96 205q0 107 76.5 183.5t183.5 76.5q109 0 185.5 -76.5t76.5 -183.5q0 -98 -57 -164 l-179 -221h203v-139h-493z" />
<glyph unicode="&#xbe;" horiz-adv-x="1423" d="M82 1012h139q0 -51 35.5 -87t85.5 -36q52 0 88.5 36t36.5 87t-36 86t-89 35q-57 0 -94 -43l-109 88l178 221h-184v137h477l-215 -266q92 -19 156.5 -92t64.5 -166q0 -106 -82 -183t-192 -77q-107 0 -183.5 76.5t-76.5 183.5zM416 10l649 1563l113 -43l-654 -1563z M778 139l518 666v-524h86v-142h-86v-139h-141v139h-377zM1040 281h115v155h-4l-111 -151v-4z" />
<glyph unicode="&#xbf;" horiz-adv-x="1071" d="M82 401q0 125 63.5 226t170.5 156t233 55q29 0 49 20t20 49t-20 49.5t-49 20.5q-35 0 -55 -27l-125 180q77 56 180 56q143 0 238.5 -87t95.5 -225q0 -140 -95.5 -227.5t-238.5 -87.5q-65 0 -115.5 -47t-50.5 -111t50.5 -110.5t115.5 -46.5q59 0 107 38t57 93l276 -49 q-28 -154 -153.5 -257.5t-286.5 -103.5q-126 0 -233 55t-170.5 155.5t-63.5 225.5zM393 1395q0 65 46 111t110 46q66 0 112 -46t46 -111t-46 -111.5t-112 -46.5q-64 0 -110 46.5t-46 111.5z" />
<glyph unicode="&#xc0;" horiz-adv-x="1529" d="M20 0l746 1610l743 -1610h-333l-95 217h-632l-95 -217h-334zM567 489h396l-193 447h-8zM592 1694v170l350 -121v-135z" />
<glyph unicode="&#xc1;" horiz-adv-x="1529" d="M20 0l746 1610l743 -1610h-333l-95 217h-632l-95 -217h-334zM567 489h396l-193 447h-8zM592 1608v135l350 121v-170z" />
<glyph unicode="&#xc2;" horiz-adv-x="1529" d="M20 0l746 1610l743 -1610h-333l-95 217h-632l-95 -217h-334zM557 1690l209 206l207 -208l-84 -86l-123 124l-123 -122zM567 489h396l-193 447h-8z" />
<glyph unicode="&#xc3;" horiz-adv-x="1529" d="M20 0l746 1610l743 -1610h-333l-95 217h-632l-95 -217h-334zM532 1712q0 62 44 107t106 45q42 0 76.5 -22t52.5 -58q12 -21 37 -21q18 0 28.5 10.5t10.5 28.5h110q0 -62 -43.5 -106.5t-105.5 -44.5q-41 0 -76.5 21.5t-56.5 56.5q-3 9 -13 15.5t-20 6.5q-18 0 -28.5 -10.5 t-10.5 -28.5h-111zM567 489h396l-193 447h-8z" />
<glyph unicode="&#xc4;" horiz-adv-x="1529" d="M20 0l746 1610l743 -1610h-333l-95 217h-632l-95 -217h-334zM459 1718q0 44 31 74.5t75 30.5q42 0 72.5 -30.5t30.5 -74.5q0 -42 -31 -73t-72 -31q-44 0 -75 30.5t-31 73.5zM567 489h396l-193 447h-8zM864 1718q0 44 31 74.5t74 30.5q44 0 75 -30.5t31 -74.5 q0 -43 -31 -73.5t-75 -30.5q-43 0 -74 30.5t-31 73.5z" />
<glyph unicode="&#xc5;" horiz-adv-x="1529" d="M20 0l746 1610l743 -1610h-333l-95 217h-632l-95 -217h-334zM567 489h396l-193 447h-8zM614 1817q0 61 45 105t107 44t107 -44t45 -105q0 -63 -45 -108.5t-107 -45.5t-107 45.5t-45 108.5zM711 1817q0 -25 16 -41.5t39 -16.5t39 16.5t16 41.5q0 22 -16 37.5t-39 15.5 t-39 -15.5t-16 -37.5z" />
<glyph unicode="&#xc6;" horiz-adv-x="2260" d="M31 0l997 1536h1161v-281h-837v-346h698v-280h-698v-350h837v-279h-1128v279h-492l-184 -279h-354zM754 559h307v510h-8z" />
<glyph unicode="&#xc7;" horiz-adv-x="1646" d="M72 768q0 223 110.5 408t299 290t413.5 105q210 0 390.5 -101.5t289.5 -273.5l-238 -149q-70 112 -187 177.5t-255 65.5q-106 0 -203 -41t-167 -111t-111 -167t-41 -203q0 -143 69.5 -263.5t190 -190.5t262.5 -70q137 0 254.5 66t187.5 177l238 -147q-109 -173 -289 -274 t-391 -101h-2l-21 -76q67 -6 107 -69q28 -47 13 -102t-64 -83q-50 -29 -105 -14.5t-84 64.5l68 36q12 -22 36.5 -28t47.5 6q22 14 27.5 38t-7.5 46q-12 23 -36.5 29t-45.5 -7l-38 66l26 98q-155 14 -292.5 81t-237 171.5t-157.5 246.5t-58 300z" />
<glyph unicode="&#xc8;" horiz-adv-x="1323" d="M123 0v1536h1128v-281h-837v-346h696v-280h-696v-350h837v-279h-1128zM516 1694v170l350 -121v-135z" />
<glyph unicode="&#xc9;" horiz-adv-x="1323" d="M123 0v1536h1128v-281h-837v-346h696v-280h-696v-350h837v-279h-1128zM516 1608v135l350 121v-170z" />
<glyph unicode="&#xca;" horiz-adv-x="1323" d="M123 0v1536h1128v-281h-837v-346h696v-280h-696v-350h837v-279h-1128zM477 1690l209 206l207 -208l-84 -86l-123 124l-123 -122z" />
<glyph unicode="&#xcb;" horiz-adv-x="1323" d="M123 0v1536h1128v-281h-837v-346h696v-280h-696v-350h837v-279h-1128zM360 1718q0 44 31.5 74.5t75.5 30.5q42 0 72 -30.5t30 -74.5q0 -43 -30.5 -73.5t-71.5 -30.5q-44 0 -75.5 30.5t-31.5 73.5zM766 1718q0 44 30.5 74.5t73.5 30.5q44 0 75.5 -30.5t31.5 -74.5 q0 -43 -31.5 -73.5t-75.5 -30.5q-43 0 -73.5 30.5t-30.5 73.5z" />
<glyph unicode="&#xcc;" horiz-adv-x="536" d="M94 1694v170l350 -121v-135zM123 0v1536h291v-1536h-291z" />
<glyph unicode="&#xcd;" horiz-adv-x="536" d="M94 1608v135l350 121v-170zM123 0v1536h291v-1536h-291z" />
<glyph unicode="&#xce;" horiz-adv-x="536" d="M61 1690l209 206l207 -208l-84 -86l-123 124l-123 -122zM123 0v1536h291v-1536h-291z" />
<glyph unicode="&#xcf;" horiz-adv-x="536" d="M-27 1716q0 44 31.5 75.5t75.5 31.5q43 0 72.5 -31.5t29.5 -75.5q0 -42 -30 -72t-72 -30q-44 0 -75.5 30.5t-31.5 71.5zM123 0v1536h291v-1536h-291zM354 1716q0 44 30 75.5t73 31.5q44 0 75 -31.5t31 -75.5q0 -42 -31 -72t-75 -30q-43 0 -73 30t-30 72z" />
<glyph unicode="&#xd0;" horiz-adv-x="1546" d="M41 629v280h121v627h524q217 0 397.5 -99.5t286 -276t105.5 -392.5t-105.5 -392.5t-286 -276t-397.5 -99.5h-524v629h-121zM442 279h244q133 0 245.5 65.5t177.5 178t65 245.5q0 201 -143 344t-345 143h-244v-346h332v-280h-332v-350z" />
<glyph unicode="&#xd1;" horiz-adv-x="1452" d="M123 0v1610l913 -965h8l-2 891h287v-1610l-909 965h-8l2 -891h-291zM496 1610q0 62 43.5 106.5t105.5 44.5q42 0 76.5 -22t52.5 -58q11 -20 37 -20q18 0 28.5 10.5t10.5 28.5h111q0 -62 -44 -107t-106 -45q-41 0 -76.5 21.5t-56.5 56.5q-3 9 -13 16t-20 7 q-18 0 -28.5 -10.5t-10.5 -28.5h-110z" />
<glyph unicode="&#xd2;" horiz-adv-x="1789" d="M72 768q0 223 110 408t298.5 290t414.5 105q225 0 413.5 -105t299 -290t110.5 -408t-110.5 -408t-299 -290t-413.5 -105q-226 0 -414.5 105t-298.5 290t-110 408zM373 768q0 -143 69.5 -263.5t190 -190.5t262.5 -70q143 0 263.5 70t190.5 190.5t70 263.5q0 142 -70 262.5 t-190.5 190t-263.5 69.5q-106 0 -203 -41t-167 -111t-111 -167t-41 -203zM719 1694v170l350 -121v-135z" />
<glyph unicode="&#xd3;" horiz-adv-x="1789" d="M72 768q0 223 110 408t298.5 290t414.5 105q225 0 413.5 -105t299 -290t110.5 -408t-110.5 -408t-299 -290t-413.5 -105q-226 0 -414.5 105t-298.5 290t-110 408zM373 768q0 -143 69.5 -263.5t190 -190.5t262.5 -70q143 0 263.5 70t190.5 190.5t70 263.5q0 142 -70 262.5 t-190.5 190t-263.5 69.5q-106 0 -203 -41t-167 -111t-111 -167t-41 -203zM719 1608v135l350 121v-170z" />
<glyph unicode="&#xd4;" horiz-adv-x="1789" d="M72 768q0 223 110 408t298.5 290t414.5 105q225 0 413.5 -105t299 -290t110.5 -408t-110.5 -408t-299 -290t-413.5 -105q-226 0 -414.5 105t-298.5 290t-110 408zM373 768q0 -143 69.5 -263.5t190 -190.5t262.5 -70q143 0 263.5 70t190.5 190.5t70 263.5q0 142 -70 262.5 t-190.5 190t-263.5 69.5q-106 0 -203 -41t-167 -111t-111 -167t-41 -203zM686 1690l209 206l207 -208l-84 -86l-123 124l-123 -122z" />
<glyph unicode="&#xd5;" horiz-adv-x="1789" d="M72 768q0 223 110 408t298.5 290t414.5 105q225 0 413.5 -105t299 -290t110.5 -408t-110.5 -408t-299 -290t-413.5 -105q-226 0 -414.5 105t-298.5 290t-110 408zM373 768q0 -143 69.5 -263.5t190 -190.5t262.5 -70q143 0 263.5 70t190.5 190.5t70 263.5q0 142 -70 262.5 t-190.5 190t-263.5 69.5q-106 0 -203 -41t-167 -111t-111 -167t-41 -203zM662 1712q0 62 43.5 107t105.5 45q42 0 76.5 -22t52.5 -58q12 -21 37 -21q18 0 28.5 10.5t10.5 28.5h110q0 -62 -43.5 -106.5t-105.5 -44.5q-41 0 -76.5 21.5t-56.5 56.5q-3 9 -12.5 15.5t-20.5 6.5 q-18 0 -28.5 -10.5t-10.5 -28.5h-110z" />
<glyph unicode="&#xd6;" horiz-adv-x="1789" d="M72 768q0 223 110 408t298.5 290t414.5 105q225 0 413.5 -105t299 -290t110.5 -408t-110.5 -408t-299 -290t-413.5 -105q-226 0 -414.5 105t-298.5 290t-110 408zM373 768q0 -143 69.5 -263.5t190 -190.5t262.5 -70q143 0 263.5 70t190.5 190.5t70 263.5q0 142 -70 262.5 t-190.5 190t-263.5 69.5q-106 0 -203 -41t-167 -111t-111 -167t-41 -203zM586 1718q0 43 31 74t75 31q43 0 74 -31t31 -74t-31 -73.5t-74 -30.5q-44 0 -75 30.5t-31 73.5zM993 1718q0 43 31 74t72 31q44 0 75 -31t31 -74t-31 -73.5t-75 -30.5q-42 0 -72.5 31t-30.5 73z" />
<glyph unicode="&#xd7;" horiz-adv-x="1349" d="M82 197l395 397l-395 395l197 197l395 -395l397 395l197 -197l-396 -395l396 -397l-197 -197l-397 397l-395 -397z" />
<glyph unicode="&#xd8;" horiz-adv-x="1810" d="M82 768q0 223 110 408t298.5 290t414.5 105q277 0 496 -160l160 160l147 -148l-156 -155q85 -103 131 -231.5t46 -268.5q0 -167 -65 -316.5t-176 -256t-263 -168.5t-320 -62q-277 0 -497 158l-158 -158l-148 148l154 153q-174 219 -174 502zM383 768q0 -161 86 -289 l725 725q-136 86 -289 86q-106 0 -203 -41t-167 -111t-111 -167t-41 -203zM614 330q131 -86 291 -86q143 0 264 70t191 190.5t70 263.5q0 156 -89 289z" />
<glyph unicode="&#xd9;" horiz-adv-x="1468" d="M123 535v1001h291v-1001q0 -134 91 -215.5t230 -81.5t230.5 81.5t91.5 215.5v1001h289v-1001q0 -173 -79.5 -303.5t-217.5 -198.5t-314 -68q-270 0 -441 154.5t-171 415.5zM561 1694v170l350 -121v-135z" />
<glyph unicode="&#xda;" horiz-adv-x="1468" d="M123 535v1001h291v-1001q0 -134 91 -215.5t230 -81.5t230.5 81.5t91.5 215.5v1001h289v-1001q0 -173 -79.5 -303.5t-217.5 -198.5t-314 -68q-270 0 -441 154.5t-171 415.5zM561 1608v135l350 121v-170z" />
<glyph unicode="&#xdb;" horiz-adv-x="1468" d="M123 535v1001h291v-1001q0 -134 91 -215.5t230 -81.5t230.5 81.5t91.5 215.5v1001h289v-1001q0 -173 -79.5 -303.5t-217.5 -198.5t-314 -68q-270 0 -441 154.5t-171 415.5zM526 1690l209 206l207 -208l-84 -86l-123 124l-123 -122z" />
<glyph unicode="&#xdc;" horiz-adv-x="1468" d="M123 535v1001h291v-1001q0 -134 91 -215.5t230 -81.5t230.5 81.5t91.5 215.5v1001h289v-1001q0 -173 -79.5 -303.5t-217.5 -198.5t-314 -68q-270 0 -441 154.5t-171 415.5zM424 1718q0 44 31 74.5t75 30.5q42 0 72.5 -30.5t30.5 -74.5q0 -42 -30.5 -73t-72.5 -31 q-44 0 -75 30.5t-31 73.5zM829 1718q0 44 31 74.5t74 30.5q44 0 75 -30.5t31 -74.5q0 -43 -31 -73.5t-75 -30.5q-43 0 -74 30.5t-31 73.5z" />
<glyph unicode="&#xdd;" horiz-adv-x="1464" d="M31 1536h344l356 -586h8l351 586h344l-555 -891v-645h-287v645zM555 1608v135l348 121v-170z" />
<glyph unicode="&#xde;" horiz-adv-x="1411" d="M123 0v1536h291v-193h479q121 0 222.5 -53.5t162.5 -152.5t61 -222q0 -121 -61 -219.5t-163 -152.5t-222 -54h-479v-489h-291zM414 768h479q63 0 106 43t43 104q0 63 -43 107.5t-106 44.5h-479v-299z" />
<glyph unicode="&#xdf;" horiz-adv-x="1249" d="M123 0v1153q0 113 61.5 210t164.5 152.5t220 55.5q195 0 327 -116.5t132 -301.5q0 -81 -32.5 -144t-92.5 -130q118 -67 191 -170.5t73 -237.5q0 -135 -68 -243.5t-183.5 -168t-256.5 -59.5h-141v279h141q86 0 147.5 61t61.5 147t-61.5 147.5t-147.5 61.5h-141v281h51 q67 0 112.5 46t45.5 112q0 65 -45.5 110t-112.5 45q-59 0 -103 -39.5t-50 -97.5v-1153h-293z" />
<glyph unicode="&#xe0;" horiz-adv-x="1486" d="M82 594q0 176 80 320t216.5 225.5t299.5 81.5q244 0 397 -207h4v172h285v-1186h-285v174h-4q-154 -209 -397 -209q-163 0 -299.5 81.5t-216.5 226t-80 321.5zM383 594q0 -145 101.5 -247.5t246.5 -102.5q146 0 247 102.5t101 247.5q0 143 -101.5 245.5t-246.5 102.5 q-144 0 -246 -102.5t-102 -245.5zM537 1401v170l350 -121v-135z" />
<glyph unicode="&#xe1;" horiz-adv-x="1486" d="M82 594q0 176 80 320t216.5 225.5t299.5 81.5q244 0 397 -207h4v172h285v-1186h-285v174h-4q-154 -209 -397 -209q-163 0 -299.5 81.5t-216.5 226t-80 321.5zM383 594q0 -145 101.5 -247.5t246.5 -102.5q146 0 247 102.5t101 247.5q0 143 -101.5 245.5t-246.5 102.5 q-144 0 -246 -102.5t-102 -245.5zM537 1315v135l350 121v-170z" />
<glyph unicode="&#xe2;" horiz-adv-x="1486" d="M82 594q0 176 80 320t216.5 225.5t299.5 81.5q244 0 397 -207h4v172h285v-1186h-285v174h-4q-154 -209 -397 -209q-163 0 -299.5 81.5t-216.5 226t-80 321.5zM383 594q0 -145 101.5 -247.5t246.5 -102.5q146 0 247 102.5t101 247.5q0 143 -101.5 245.5t-246.5 102.5 q-144 0 -246 -102.5t-102 -245.5zM487 1473l209 206l207 -209l-84 -86l-123 125l-123 -123z" />
<glyph unicode="&#xe3;" horiz-adv-x="1486" d="M82 594q0 176 80 320t216.5 225.5t299.5 81.5q244 0 397 -207h4v172h285v-1186h-285v174h-4q-154 -209 -397 -209q-163 0 -299.5 81.5t-216.5 226t-80 321.5zM383 594q0 -145 101.5 -247.5t246.5 -102.5q146 0 247 102.5t101 247.5q0 143 -101.5 245.5t-246.5 102.5 q-144 0 -246 -102.5t-102 -245.5zM473 1419q0 62 44 107t106 45q42 0 76.5 -22t52.5 -58q12 -21 36 -21q18 0 28.5 10.5t10.5 28.5h111q0 -62 -43.5 -106.5t-106.5 -44.5q-41 0 -76.5 21.5t-56.5 56.5q-3 9 -12.5 15.5t-19.5 6.5q-18 0 -28.5 -10.5t-10.5 -28.5h-111z" />
<glyph unicode="&#xe4;" horiz-adv-x="1486" d="M82 594q0 176 80 320t216.5 225.5t299.5 81.5q244 0 397 -207h4v172h285v-1186h-285v174h-4q-154 -209 -397 -209q-163 0 -299.5 81.5t-216.5 226t-80 321.5zM383 594q0 -145 101.5 -247.5t246.5 -102.5q146 0 247 102.5t101 247.5q0 143 -101.5 245.5t-246.5 102.5 q-144 0 -246 -102.5t-102 -245.5zM399 1466q0 43 31.5 74t75.5 31q42 0 72 -31t30 -74t-29.5 -73.5t-72.5 -30.5q-44 0 -75.5 30.5t-31.5 73.5zM807 1466q0 43 30 74t72 31q44 0 75.5 -31t31.5 -74t-31.5 -73.5t-75.5 -30.5q-43 0 -72.5 30.5t-29.5 73.5z" />
<glyph unicode="&#xe5;" horiz-adv-x="1486" d="M82 594q0 176 80 320t216.5 225.5t299.5 81.5q244 0 397 -207h4v172h285v-1186h-285v174h-4q-154 -209 -397 -209q-163 0 -299.5 81.5t-216.5 226t-80 321.5zM383 594q0 -145 101.5 -247.5t246.5 -102.5q146 0 247 102.5t101 247.5q0 143 -101.5 245.5t-246.5 102.5 q-144 0 -246 -102.5t-102 -245.5zM559 1489q0 61 45.5 105t108.5 44q60 0 104.5 -44t44.5 -105q0 -63 -44.5 -108.5t-104.5 -45.5q-63 0 -108.5 45.5t-45.5 108.5zM655 1489q0 -25 16.5 -41t41.5 -16q22 0 37.5 16.5t15.5 40.5q0 22 -15.5 37.5t-37.5 15.5 q-25 0 -41.5 -15.5t-16.5 -37.5z" />
<glyph unicode="&#xe6;" horiz-adv-x="2498" d="M82 594q0 176 80 320t216.5 225.5t299.5 81.5q244 0 397 -207h4v172h285v-172q145 207 416 207q103 0 200 -31.5t175.5 -89t137.5 -134.5t91.5 -173t32.5 -199q0 -56 -17 -133h-944q37 -107 125.5 -171.5t198.5 -64.5q101 0 192.5 45.5t136.5 120.5l222 -143 q-89 -130 -235 -206.5t-316 -76.5q-271 0 -416 207v-172h-285v174h-4q-154 -209 -397 -209q-163 0 -299.5 81.5t-216.5 226t-80 321.5zM383 594q0 -145 101.5 -247.5t246.5 -102.5q146 0 247 102.5t101 247.5q0 143 -101.5 245.5t-246.5 102.5q-144 0 -246 -102.5 t-102 -245.5zM1456 713h649q-37 107 -125 171t-200 64q-110 0 -198.5 -64t-125.5 -171z" />
<glyph unicode="&#xe7;" horiz-adv-x="1251" d="M82 594q0 176 87 320t235.5 225.5t326.5 81.5q262 0 447 -185l-201 -196q-99 102 -246 102q-144 0 -246 -102.5t-102 -245.5q0 -145 101.5 -247.5t246.5 -102.5q147 0 246 102l201 -196q-90 -88 -204.5 -136.5t-242.5 -48.5h-2l-20 -76q66 -6 106 -69q28 -47 13 -102 t-64 -83q-50 -29 -105 -14.5t-84 64.5l68 36q12 -22 36.5 -28t47.5 6q22 14 28 38t-7 46q-12 23 -36.5 29t-45.5 -7l-39 66l26 98q-120 13 -225.5 66t-181.5 134t-120 191.5t-44 233.5z" />
<glyph unicode="&#xe8;" horiz-adv-x="1447" d="M82 594q0 175 87 319.5t235.5 226t324.5 81.5q103 0 200 -31.5t175.5 -89t137.5 -134.5t91.5 -173t32.5 -199q0 -61 -16 -133h-944q37 -107 125 -171.5t198 -64.5q101 0 193 45.5t137 120.5l221 -143q-89 -130 -235 -206.5t-316 -76.5q-176 0 -324.5 82t-235.5 227 t-87 320zM406 713h649q-37 107 -125.5 171t-200.5 64q-110 0 -198 -64t-125 -171zM551 1401v170l350 -121v-135z" />
<glyph unicode="&#xe9;" horiz-adv-x="1447" d="M82 594q0 175 87 319.5t235.5 226t324.5 81.5q103 0 200 -31.5t175.5 -89t137.5 -134.5t91.5 -173t32.5 -199q0 -61 -16 -133h-944q37 -107 125 -171.5t198 -64.5q101 0 193 45.5t137 120.5l221 -143q-89 -130 -235 -206.5t-316 -76.5q-176 0 -324.5 82t-235.5 227 t-87 320zM406 713h649q-37 107 -125.5 171t-200.5 64q-110 0 -198 -64t-125 -171zM549 1315v135l350 121v-170z" />
<glyph unicode="&#xea;" horiz-adv-x="1447" d="M82 594q0 175 87 319.5t235.5 226t324.5 81.5q103 0 200 -31.5t175.5 -89t137.5 -134.5t91.5 -173t32.5 -199q0 -61 -16 -133h-944q37 -107 125 -171.5t198 -64.5q101 0 193 45.5t137 120.5l221 -143q-89 -130 -235 -206.5t-316 -76.5q-176 0 -324.5 82t-235.5 227 t-87 320zM406 713h649q-37 107 -125.5 171t-200.5 64q-110 0 -198 -64t-125 -171zM520 1473l209 206l207 -209l-84 -86l-123 125l-123 -123z" />
<glyph unicode="&#xeb;" horiz-adv-x="1447" d="M82 594q0 175 87 319.5t235.5 226t324.5 81.5q103 0 200 -31.5t175.5 -89t137.5 -134.5t91.5 -173t32.5 -199q0 -61 -16 -133h-944q37 -107 125 -171.5t198 -64.5q101 0 193 45.5t137 120.5l221 -143q-89 -130 -235 -206.5t-316 -76.5q-176 0 -324.5 82t-235.5 227 t-87 320zM406 713h649q-37 107 -125.5 171t-200.5 64q-110 0 -198 -64t-125 -171zM422 1466q0 43 31 74t75 31q41 0 72 -31t31 -74q0 -42 -30.5 -73t-72.5 -31q-44 0 -75 30.5t-31 73.5zM827 1466q0 43 31 74t74 31q44 0 75 -31t31 -74t-31 -73.5t-75 -30.5q-43 0 -74 30.5 t-31 73.5z" />
<glyph unicode="&#xec;" horiz-adv-x="526" d="M88 1401v170l350 -121v-135zM123 0v1186h280v-1186h-280z" />
<glyph unicode="&#xed;" horiz-adv-x="528" d="M90 1315v135l348 121v-170zM123 0v1186h283v-1186h-283z" />
<glyph unicode="&#xee;" horiz-adv-x="526" d="M55 1473l209 206l207 -209l-84 -86l-123 125l-123 -123zM123 0v1186h280v-1186h-280z" />
<glyph unicode="&#xef;" horiz-adv-x="526" d="M-33 1466q0 43 31.5 74t75.5 31q41 0 71.5 -31t30.5 -74t-30.5 -73.5t-71.5 -30.5q-44 0 -75.5 30.5t-31.5 73.5zM123 0v1186h280v-1186h-280zM350 1466q0 43 31 74t74 31t73.5 -31t30.5 -74t-30.5 -73.5t-73.5 -30.5t-74 30.5t-31 73.5z" />
<glyph unicode="&#xf0;" horiz-adv-x="1384" d="M82 575q0 141 67.5 261t184.5 190t256 70q108 0 219 -58h6l-37 39l-155 156l-121 -82l-56 88l101 68l-228 229h396l67 -72l107 70l57 -88l-86 -55l178 -207q43 -50 84.5 -112t84.5 -143t69.5 -174.5t26.5 -179.5q0 -166 -81.5 -306.5t-222.5 -222t-307 -81.5 q-164 0 -302.5 79.5t-221 220t-86.5 310.5zM362 575q0 -137 97 -235t233 -98q138 0 235 98t97 235t-97 234.5t-235 97.5q-136 0 -233 -97.5t-97 -234.5z" />
<glyph unicode="&#xf1;" d="M123 0v1186h264v-170h4q49 90 144.5 147.5t224.5 57.5q204 0 331.5 -140.5t127.5 -363.5v-717h-287v680q0 109 -76.5 185.5t-183.5 76.5q-109 0 -185.5 -76.5t-76.5 -185.5v-680h-287z" />
<glyph unicode="&#xf2;" horiz-adv-x="1460" d="M82 594q0 176 86.5 320t235 225.5t325.5 81.5q178 0 326.5 -81.5t235.5 -225.5t87 -320q0 -177 -87 -321.5t-235.5 -226t-326.5 -81.5q-177 0 -325.5 81.5t-235 226t-86.5 321.5zM383 594q0 -145 101.5 -247.5t244.5 -102.5q146 0 248 102.5t102 247.5q0 143 -102 245.5 t-248 102.5q-142 0 -244 -102.5t-102 -245.5zM557 1401v170l350 -121v-135z" />
<glyph unicode="&#xf3;" horiz-adv-x="1460" d="M82 594q0 176 86.5 320t235 225.5t325.5 81.5q178 0 326.5 -81.5t235.5 -225.5t87 -320q0 -177 -87 -321.5t-235.5 -226t-326.5 -81.5q-177 0 -325.5 81.5t-235 226t-86.5 321.5zM383 594q0 -145 101.5 -247.5t244.5 -102.5q146 0 248 102.5t102 247.5q0 143 -102 245.5 t-248 102.5q-142 0 -244 -102.5t-102 -245.5zM557 1315v135l350 121v-170z" />
<glyph unicode="&#xf4;" horiz-adv-x="1460" d="M82 594q0 176 86.5 320t235 225.5t325.5 81.5q178 0 326.5 -81.5t235.5 -225.5t87 -320q0 -177 -87 -321.5t-235.5 -226t-326.5 -81.5q-177 0 -325.5 81.5t-235 226t-86.5 321.5zM383 594q0 -145 101.5 -247.5t244.5 -102.5q146 0 248 102.5t102 247.5q0 143 -102 245.5 t-248 102.5q-142 0 -244 -102.5t-102 -245.5zM520 1473l209 206l207 -209l-84 -86l-123 125l-123 -123z" />
<glyph unicode="&#xf5;" horiz-adv-x="1460" d="M82 594q0 176 86.5 320t235 225.5t325.5 81.5q178 0 326.5 -81.5t235.5 -225.5t87 -320q0 -177 -87 -321.5t-235.5 -226t-326.5 -81.5q-177 0 -325.5 81.5t-235 226t-86.5 321.5zM383 594q0 -145 101.5 -247.5t244.5 -102.5q146 0 248 102.5t102 247.5q0 143 -102 245.5 t-248 102.5q-142 0 -244 -102.5t-102 -245.5zM498 1419q0 62 43.5 107t105.5 45q42 0 76.5 -22t52.5 -58q12 -21 37 -21q18 0 28.5 10.5t10.5 28.5h111q0 -62 -43.5 -106.5t-106.5 -44.5q-41 0 -76.5 21.5t-56.5 56.5q-3 9 -12.5 15.5t-20.5 6.5q-18 0 -28.5 -10.5 t-10.5 -28.5h-110z" />
<glyph unicode="&#xf6;" horiz-adv-x="1460" d="M82 594q0 176 86.5 320t235 225.5t325.5 81.5q178 0 326.5 -81.5t235.5 -225.5t87 -320q0 -177 -87 -321.5t-235.5 -226t-326.5 -81.5q-177 0 -325.5 81.5t-235 226t-86.5 321.5zM383 594q0 -145 101.5 -247.5t244.5 -102.5q146 0 248 102.5t102 247.5q0 143 -102 245.5 t-248 102.5q-142 0 -244 -102.5t-102 -245.5zM422 1466q0 43 31 74t75 31q41 0 72 -31t31 -74q0 -42 -30.5 -73t-72.5 -31q-44 0 -75 30.5t-31 73.5zM827 1466q0 43 31 74t74 31q44 0 75 -31t31 -74t-31 -73.5t-75 -30.5q-43 0 -74 30.5t-31 73.5z" />
<glyph unicode="&#xf7;" horiz-adv-x="1390" d="M102 487v209h1186v-209h-1186zM557 123q0 58 40 98.5t97 40.5q60 0 101 -40t41 -99t-41 -99t-101 -40q-57 0 -97 40.5t-40 98.5zM557 1061q0 60 40 100.5t97 40.5q60 0 101 -40.5t41 -100.5q0 -57 -41 -97t-101 -40q-57 0 -97 40t-40 97z" />
<glyph unicode="&#xf8;" horiz-adv-x="1476" d="M90 594q0 176 86.5 320t235 225.5t325.5 81.5q206 0 371 -111l111 111l147 -150l-104 -104q124 -162 124 -373q0 -177 -87 -321.5t-235.5 -226t-326.5 -81.5q-206 0 -368 109l-109 -109l-147 150l102 102q-125 159 -125 377zM391 594q0 -89 39 -162l469 469 q-71 41 -162 41q-142 0 -244 -102.5t-102 -245.5zM578 283q68 -39 159 -39q146 0 248 102.5t102 247.5q0 86 -38 160z" />
<glyph unicode="&#xf9;" d="M123 469v717h287v-680q0 -109 76.5 -185.5t183.5 -76.5q109 0 185.5 76.5t76.5 185.5v680h287v-1186h-265v170h-4q-49 -91 -144.5 -148t-223.5 -57q-204 0 -331.5 140.5t-127.5 363.5zM500 1401v170l350 -121v-135z" />
<glyph unicode="&#xfa;" d="M123 469v717h287v-680q0 -109 76.5 -185.5t183.5 -76.5q109 0 185.5 76.5t76.5 185.5v680h287v-1186h-265v170h-4q-49 -91 -144.5 -148t-223.5 -57q-204 0 -331.5 140.5t-127.5 363.5zM500 1315v135l350 121v-170z" />
<glyph unicode="&#xfb;" d="M123 469v717h287v-680q0 -109 76.5 -185.5t183.5 -76.5q109 0 185.5 76.5t76.5 185.5v680h287v-1186h-265v170h-4q-49 -91 -144.5 -148t-223.5 -57q-204 0 -331.5 140.5t-127.5 363.5zM461 1473l209 206l207 -209l-84 -86l-123 125l-123 -123z" />
<glyph unicode="&#xfc;" d="M123 469v717h287v-680q0 -109 76.5 -185.5t183.5 -76.5q109 0 185.5 76.5t76.5 185.5v680h287v-1186h-265v170h-4q-49 -91 -144.5 -148t-223.5 -57q-204 0 -331.5 140.5t-127.5 363.5zM362 1466q0 43 31.5 74t75.5 31q41 0 71.5 -31t30.5 -74t-30.5 -73.5t-71.5 -30.5 q-44 0 -75.5 30.5t-31.5 73.5zM768 1466q0 43 30.5 74t73.5 31q44 0 75.5 -31t31.5 -74t-31.5 -73.5t-75.5 -30.5q-43 0 -73.5 30.5t-30.5 73.5z" />
<glyph unicode="&#xfd;" horiz-adv-x="1259" d="M31 1186h301l297 -772h4l297 772h299l-594 -1536h-299l145 377zM457 1315v135l350 121v-170z" />
<glyph unicode="&#xfe;" horiz-adv-x="1488" d="M123 -350v1886h287v-549h4q74 110 167 172t230 62q163 0 299.5 -81.5t216.5 -226t80 -321.5q0 -176 -80 -320.5t-216.5 -225.5t-299.5 -81q-240 0 -397 207h-4v-522h-287zM410 592q0 -143 102 -245.5t246 -102.5q145 0 246.5 102.5t101.5 245.5q0 145 -101 247.5 t-247 102.5q-145 0 -246.5 -102.5t-101.5 -247.5z" />
<glyph unicode="&#xff;" horiz-adv-x="1259" d="M31 1186h301l297 -772h4l297 772h299l-594 -1536h-299l145 377zM324 1446q0 43 31 73.5t75 30.5q41 0 71.5 -30.5t30.5 -73.5t-30.5 -74t-71.5 -31q-44 0 -75 31t-31 74zM729 1446q0 43 31 73.5t74 30.5q44 0 75 -30.5t31 -73.5t-31 -74t-75 -31q-43 0 -74 31t-31 74z " />
<glyph unicode="&#x152;" horiz-adv-x="2619" d="M72 768q0 223 110 408t298.5 290t414.5 105q303 0 524 -195v160h1129v-281h-838v-346h696v-280h-696v-350h838v-279h-1129v158q-219 -193 -524 -193q-226 0 -414.5 105t-298.5 290t-110 408zM373 768q0 -143 69.5 -263.5t190 -190.5t262.5 -70q143 0 263.5 70 t190.5 190.5t70 263.5q0 142 -70 262.5t-190.5 190t-263.5 69.5q-106 0 -203 -41t-167 -111t-111 -167t-41 -203z" />
<glyph unicode="&#x153;" horiz-adv-x="2426" d="M82 594q0 176 86.5 320t235 225.5t325.5 81.5q148 0 276.5 -58.5t217.5 -161.5q88 104 213.5 162t271.5 58q103 0 200 -31.5t175.5 -89t137.5 -134.5t91.5 -173t32.5 -199q0 -61 -16 -133h-945q37 -107 125.5 -171.5t198.5 -64.5q101 0 193 45.5t137 120.5l221 -143 q-89 -130 -235 -206.5t-316 -76.5q-147 0 -272 58t-211 161q-89 -103 -218 -161t-278 -58q-177 0 -325.5 81.5t-235 226t-86.5 321.5zM383 594q0 -145 101.5 -247.5t244.5 -102.5q146 0 248 102.5t102 247.5q0 143 -102 245.5t-248 102.5q-142 0 -244 -102.5t-102 -245.5z M1384 713h650q-37 107 -125.5 171t-200.5 64q-110 0 -198.5 -64t-125.5 -171z" />
<glyph unicode="&#x178;" horiz-adv-x="1464" d="M31 1536h344l356 -586h8l351 586h344l-555 -891v-645h-287v645zM426 1718q0 44 31 74.5t75 30.5q42 0 72.5 -30.5t30.5 -74.5q0 -42 -30.5 -73t-72.5 -31q-44 0 -75 30.5t-31 73.5zM831 1718q0 44 31 74.5t74 30.5q44 0 74 -30.5t30 -74.5q0 -43 -30 -73.5t-74 -30.5 q-43 0 -74 30.5t-31 73.5z" />
<glyph unicode="&#x2c6;" horiz-adv-x="825" d="M205 1473l209 206l207 -209l-84 -86l-123 125l-123 -123z" />
<glyph unicode="&#x2dc;" horiz-adv-x="874" d="M205 1419q0 62 43.5 107t105.5 45q42 0 76.5 -22t52.5 -58q12 -21 37 -21q18 0 28.5 10.5t10.5 28.5h111q0 -62 -43.5 -106.5t-106.5 -44.5q-41 0 -76.5 21.5t-56.5 56.5q-3 9 -13 15.5t-20 6.5q-18 0 -28.5 -10.5t-10.5 -28.5h-110z" />
<glyph unicode="&#x2000;" horiz-adv-x="983" />
<glyph unicode="&#x2001;" horiz-adv-x="1966" />
<glyph unicode="&#x2002;" horiz-adv-x="983" />
<glyph unicode="&#x2003;" horiz-adv-x="1966" />
<glyph unicode="&#x2004;" horiz-adv-x="655" />
<glyph unicode="&#x2005;" horiz-adv-x="491" />
<glyph unicode="&#x2006;" horiz-adv-x="327" />
<glyph unicode="&#x2007;" horiz-adv-x="327" />
<glyph unicode="&#x2008;" horiz-adv-x="245" />
<glyph unicode="&#x2009;" horiz-adv-x="393" />
<glyph unicode="&#x200a;" horiz-adv-x="109" />
<glyph unicode="&#x2010;" horiz-adv-x="952" d="M143 487v209h666v-209h-666z" />
<glyph unicode="&#x2011;" horiz-adv-x="952" d="M143 487v209h666v-209h-666z" />
<glyph unicode="&#x2012;" horiz-adv-x="952" d="M143 487v209h666v-209h-666z" />
<glyph unicode="&#x2013;" horiz-adv-x="1267" d="M92 487v209h1084v-209h-1084z" />
<glyph unicode="&#x2014;" horiz-adv-x="1861" d="M92 489v209h1677v-209h-1677z" />
<glyph unicode="&#x2018;" horiz-adv-x="479" d="M102 1161v154q0 98 69.5 166.5t166.5 68.5h33v-133h-33q-42 0 -73 -29t-32 -71q8 2 27 2q65 0 111.5 -45.5t46.5 -112.5q0 -64 -46.5 -108.5t-111.5 -44.5t-111.5 44.5t-46.5 108.5z" />
<glyph unicode="&#x2019;" horiz-adv-x="479" d="M61 1397q0 64 46.5 108.5t111.5 44.5t111.5 -44.5t46.5 -108.5v-154q0 -98 -69 -166.5t-167 -68.5h-32v133h32q42 0 72.5 29t30.5 71q-6 -2 -25 -2q-65 0 -111.5 45.5t-46.5 112.5z" />
<glyph unicode="&#x201a;" horiz-adv-x="479" d="M102 141q0 65 47 111.5t111 46.5t111 -46.5t47 -111.5v-151q0 -98 -69.5 -168t-166.5 -70v133q41 0 72.5 30t32.5 73q-10 -4 -27 -4q-65 0 -111.5 46.5t-46.5 110.5z" />
<glyph unicode="&#x201c;" horiz-adv-x="856" d="M102 1161v154q0 98 69.5 166.5t166.5 68.5h33v-133h-33q-42 0 -73 -29t-32 -71q8 2 27 2q65 0 111.5 -45.5t46.5 -112.5q0 -64 -46.5 -108.5t-111.5 -44.5t-111.5 44.5t-46.5 108.5zM479 1161v154q0 98 69 166.5t167 68.5h33v-133h-33q-42 0 -72.5 -29t-30.5 -71 q6 2 25 2q65 0 111.5 -45.5t46.5 -112.5q0 -64 -46.5 -108.5t-111.5 -44.5t-111.5 44.5t-46.5 108.5z" />
<glyph unicode="&#x201d;" horiz-adv-x="856" d="M61 1397q0 64 46.5 108.5t111.5 44.5t111.5 -44.5t46.5 -108.5v-154q0 -98 -69 -166.5t-167 -68.5h-32v133h32q42 0 72.5 29t30.5 71q-6 -2 -25 -2q-65 0 -111.5 45.5t-46.5 112.5zM438 1397q0 64 46.5 108.5t111.5 44.5t111.5 -44.5t46.5 -108.5v-154 q0 -98 -69.5 -166.5t-166.5 -68.5h-33v133h33q42 0 73 29t32 71q-8 -2 -27 -2q-65 0 -111.5 45.5t-46.5 112.5z" />
<glyph unicode="&#x201e;" horiz-adv-x="856" d="M61 141q0 64 46.5 109t111.5 45t111.5 -45t46.5 -109v-153q0 -98 -69 -167t-167 -69h-32v133h32q42 0 72.5 29.5t30.5 71.5q-6 -2 -25 -2q-65 0 -111.5 45t-46.5 112zM438 141q0 64 46.5 109t111.5 45t111.5 -45t46.5 -109v-153q0 -98 -69.5 -167t-166.5 -69h-33v133h33 q42 0 73 29.5t32 71.5q-8 -2 -27 -2q-65 0 -111.5 45t-46.5 112z" />
<glyph unicode="&#x2022;" horiz-adv-x="899" d="M205 594q0 101 72.5 172.5t173.5 71.5q100 0 171.5 -71.5t71.5 -172.5t-71.5 -172.5t-171.5 -71.5q-101 0 -173.5 71.5t-72.5 172.5z" />
<glyph unicode="&#x2026;" horiz-adv-x="2037" d="M72 141q0 65 46.5 111.5t110.5 46.5q65 0 111.5 -46.5t46.5 -111.5q0 -64 -46.5 -110.5t-111.5 -46.5t-111 46t-46 111zM862 141q0 65 47 111.5t111 46.5t111 -46.5t47 -111.5q0 -64 -46.5 -110.5t-111.5 -46.5t-111.5 46.5t-46.5 110.5zM1653 141q0 65 45.5 111.5 t111.5 46.5q65 0 110.5 -46.5t45.5 -111.5t-45 -111t-111 -46t-111.5 46t-45.5 111z" />
<glyph unicode="&#x202f;" horiz-adv-x="393" />
<glyph unicode="&#x2039;" horiz-adv-x="600" d="M82 594l436 434v-295l-153 -135v-8l153 -137v-295z" />
<glyph unicode="&#x203a;" horiz-adv-x="600" d="M82 158v295l154 137v8l-154 135v295l436 -434z" />
<glyph unicode="&#x205f;" horiz-adv-x="491" />
<glyph unicode="&#x20ac;" horiz-adv-x="1480" d="M72 541v176h157q-2 16 -2 51t2 51h-157v176h182q61 260 227 418t412 158q121 0 216.5 -39.5t160.5 -103t129 -162.5l-238 -142q-109 166 -268 166q-117 0 -204.5 -79t-127.5 -216h699v-176h-732v-102h555v-176h-522q40 -138 127.5 -217.5t204.5 -79.5q157 0 268 166 l238 -140q-97 -152 -213 -228.5t-293 -76.5q-246 0 -412 158t-227 418h-182z" />
<glyph unicode="&#x2122;" horiz-adv-x="743" d="M82 1479v57h240v-57h-91v-250h-57v250h-92zM354 1229v307h56l96 -231h4l94 231h58v-307h-58v168h-2l-65 -168h-58l-67 168h-2v-168h-56z" />
<glyph unicode="&#x25fc;" horiz-adv-x="1187" d="M0 0v1188h1188v-1188h-1188z" />
<glyph unicode="&#xfb01;" horiz-adv-x="1273" d="M61 932v254h103v35q0 144 105.5 247t250.5 103q135 0 238 -96l-174 -207q-22 22 -64 22q-28 0 -48.5 -20.5t-20.5 -48.5v-35h700v-1186h-279v932h-421v-932h-287v932h-103zM856 1413q0 65 45.5 111.5t110.5 46.5t110 -46.5t45 -111.5t-45 -111.5t-110 -46.5t-110.5 46.5 t-45.5 111.5z" />
<glyph unicode="&#xfb02;" horiz-adv-x="1284" d="M61 932v254h107v20q0 137 101 233.5t247 96.5h645v-1536h-282v1278h-357q-29 0 -50 -21.5t-21 -50.5v-20h176v-254h-176v-932h-283v932h-107z" />
<glyph unicode="&#xfb03;" horiz-adv-x="1980" d="M61 932v254h103v35q0 144 105.5 247t250.5 103q135 0 238 -96l-174 -207q-22 22 -64 22q-28 0 -48.5 -20.5t-20.5 -48.5v-35h419v35q0 144 106 247t251 103q134 0 237 -96l-174 -207q-22 22 -63 22q-28 0 -49 -20.5t-21 -48.5v-35h701v-1186h-279v932h-422v-932h-287v932 h-419v-932h-287v932h-103zM1563 1413q0 65 45 111.5t110 46.5t110.5 -46.5t45.5 -111.5t-45.5 -111.5t-110.5 -46.5t-110 46.5t-45 111.5z" />
<glyph unicode="&#xfb04;" horiz-adv-x="1996" d="M61 932v254h103v35q0 144 105.5 247t250.5 103q135 0 238 -96l-174 -207q-22 22 -64 22q-28 0 -48.5 -20.5t-20.5 -48.5v-35h430v20q0 137 101 233.5t247 96.5h645v-1536h-283v1278h-356q-29 0 -50.5 -21.5t-21.5 -50.5v-20h176v-254h-176v-932h-282v932h-430v-932h-287 v932h-103z" />
</font>
</defs>
</svg>
