<?xml version="1.0" standalone="no"?>
<!DOCTYPE svg PUBLIC "-//W3C//DTD SVG 1.1//EN" "http://www.w3.org/Graphics/SVG/1.1/DTD/svg11.dtd" >
<svg xmlns="http://www.w3.org/2000/svg">
<metadata></metadata>
<defs>
<font id="kessel_105thin" horiz-adv-x="1419" >
<font-face units-per-em="2048" ascent="1536" descent="-512" />
<missing-glyph horiz-adv-x="552" />
<glyph horiz-adv-x="2048" />
<glyph horiz-adv-x="2048" />
<glyph unicode="&#xd;" horiz-adv-x="2048" />
<glyph unicode=" "  horiz-adv-x="552" />
<glyph unicode="&#x09;" horiz-adv-x="552" />
<glyph unicode="&#xa0;" horiz-adv-x="552" />
<glyph unicode="!" horiz-adv-x="280" d="M111 14q0 12 9 21.5t21 9.5t21.5 -9.5t9.5 -21.5t-9.5 -21t-21.5 -9t-21 9t-9 21zM123 1536h35l-4 -1188h-27z" />
<glyph unicode="&#x22;" horiz-adv-x="301" d="M102 1286v250h31v-250h-31zM168 1286v250h31v-250h-31z" />
<glyph unicode="#" horiz-adv-x="1269" d="M41 575v35h371l65 316h-436v35h444l123 575h35l-123 -575h314l120 575h35l-121 -575h361v-35h-367l-67 -316h434v-35h-441l-124 -575h-33l119 575h-312l-123 -575h-34l122 575h-362zM444 610h314l69 316h-315z" />
<glyph unicode="$" horiz-adv-x="1210" d="M82 125l18 27q101 -72 231 -113t273 -41q133 0 245.5 51.5t177.5 140t65 193.5q0 126 -93 226t-241 139l-307 77q-148 37 -241 137t-93 226q0 155 136.5 266t334.5 115v104h35v-104q234 -6 428 -115l-21 -31q-186 111 -426 111q-189 0 -319.5 -100.5t-130.5 -245.5 q0 -114 85.5 -204t221.5 -124l299 -78q161 -40 264.5 -150.5t103.5 -248.5q0 -111 -67.5 -206t-183.5 -151.5t-254 -60.5v-104h-35v104q-304 6 -506 160z" />
<glyph unicode="%" horiz-adv-x="1138" d="M82 1290q0 117 81.5 199t198.5 82q73 0 135 -35t99 -94q19 -28 51 -46t66 -18q40 0 74 22.5t53 59.5l45 111l30 -15l-661 -1591l-31 15l578 1388q-45 -25 -88 -25q-41 0 -82 23q10 -31 10 -76q0 -115 -81.5 -196.5t-197.5 -81.5q-117 0 -198.5 81t-81.5 197zM117 1290 q0 -100 72 -171.5t173 -71.5q100 0 172 71.5t72 171.5q0 101 -72 173.5t-172 72.5q-101 0 -173 -72.5t-72 -173.5zM498 244q0 117 81.5 198.5t198.5 81.5q116 0 197.5 -81.5t81.5 -198.5q0 -116 -81.5 -197.5t-197.5 -81.5q-117 0 -198.5 81.5t-81.5 197.5zM532 244 q0 -101 72.5 -172.5t173.5 -71.5q100 0 172 71.5t72 172.5t-72 172t-172 71q-102 0 -174 -71t-72 -172z" />
<glyph unicode="&#x26;" horiz-adv-x="1314" d="M82 463q0 173 107.5 308t273.5 175q-92 34 -149.5 116.5t-57.5 184.5q0 133 95 228.5t229 95.5q132 0 226.5 -95.5t94.5 -228.5t-94.5 -227t-226.5 -94q-192 0 -326.5 -135.5t-134.5 -327.5t134.5 -327.5t326.5 -135.5t327 135.5t135 327.5v278q0 91 63.5 155.5 t151.5 64.5v-35q-75 0 -128.5 -55t-53.5 -130v-522q0 -75 53.5 -129.5t128.5 -54.5v-35q-88 0 -151.5 64.5t-63.5 154.5v60q-58 -139 -183 -226.5t-279 -87.5q-135 0 -249.5 66.5t-181.5 181t-67 250.5zM291 1247q0 -119 85 -202.5t204 -83.5q120 0 203 83t83 203 q0 119 -83.5 204t-202.5 85q-118 0 -203.5 -85t-85.5 -204z" />
<glyph unicode="'" horiz-adv-x="235" d="M102 1286v250h31v-250h-31z" />
<glyph unicode="(" horiz-adv-x="552" d="M164 592q0 262 73.5 519t208.5 460h46q-138 -203 -214.5 -460t-76.5 -519q0 -260 77 -516.5t214 -460.5h-46q-135 203 -208.5 459t-73.5 518z" />
<glyph unicode=")" horiz-adv-x="552" d="M61 -385q137 204 214 460.5t77 516.5q0 262 -76.5 519t-214.5 460h45q135 -204 209 -461t74 -518t-74 -517t-209 -460h-45z" />
<glyph unicode="*" horiz-adv-x="739" d="M164 1210l180 99l-180 96l18 33l174 -107l-2 205h35l-6 -205l174 107l18 -33l-178 -96l178 -99l-18 -32l-174 106l6 -205h-35l2 205l-174 -106z" />
<glyph unicode="+" horiz-adv-x="1392" d="M102 578v34h578v576h35v-576h575v-34h-575v-578h-35v578h-578z" />
<glyph unicode="," horiz-adv-x="327" d="M72 27q0 16 12.5 28.5t30.5 12.5q17 0 28 -12.5t11 -28.5v-144q0 -26 -18 -44.5t-44 -18.5h-8v35h8q11 0 20 8t9 20v101h-6q-19 0 -31 12t-12 31z" />
<glyph unicode="-" horiz-adv-x="950" d="M143 578v34h664v-34h-664z" />
<glyph unicode="." horiz-adv-x="327" d="M72 25q0 17 12 29t29 12t29 -12t12 -29t-12 -29t-29 -12t-29 12t-12 29z" />
<glyph unicode="/" horiz-adv-x="944" d="M123 -20l665 1591l33 -15l-665 -1591z" />
<glyph unicode="0" horiz-adv-x="1226" d="M106 471v592q0 138 68 255t185 185t255 68q137 0 253.5 -68t184.5 -185t68 -255v-592q0 -209 -148.5 -357.5t-357.5 -148.5q-138 0 -255 68t-185 184.5t-68 253.5zM141 471q0 -128 63.5 -236.5t172.5 -171.5t237 -63q127 0 235.5 63t172 171.5t63.5 236.5v592 q0 129 -63.5 238t-172 172t-235.5 63q-195 0 -334 -138.5t-139 -334.5v-592z" />
<glyph unicode="1" horiz-adv-x="524" d="M82 1382v43l319 185v-1610h-34v1548z" />
<glyph unicode="2" horiz-adv-x="1210" d="M82 1051q0 106 41 202t111 166t167 111t203 41q143 0 263.5 -69.5t190.5 -189.5t70 -261q0 -121 -49.5 -225.5t-136.5 -176.5l-729 -616h868v-33h-964l803 676q80 68 127 166t47 209q0 201 -144 344t-346 143q-132 0 -244 -65.5t-177.5 -177.5t-65.5 -244 q0 -102 37.5 -192t105.5 -157l-24 -24q-72 74 -113 170.5t-41 202.5z" />
<glyph unicode="3" horiz-adv-x="1206" d="M78 489h35q0 -133 65.5 -246t178 -179t245.5 -66q201 0 344.5 144.5t143.5 346.5t-143.5 345t-344.5 143q-100 0 -189 -38t-155 -105l-27 24l2 2l37 35l674 606h-760v35h852l-618 -557q87 35 184 35q142 0 262.5 -71t190 -192t69.5 -262q0 -107 -41 -203.5t-111 -167 t-167 -112t-203 -41.5q-143 0 -263.5 70t-190.5 191t-70 263z" />
<glyph unicode="4" horiz-adv-x="1212" d="M16 401l842 1209v-1174h297v-35h-297v-401h-35v401h-807zM82 436h741v1063z" />
<glyph unicode="5" horiz-adv-x="1206" d="M78 489h35q0 -134 65.5 -247t177.5 -178.5t244 -65.5q202 0 344.5 143.5t142.5 347.5q0 201 -142.5 344.5t-344.5 143.5q-118 0 -221 -53.5t-170 -145.5l-35 8l133 750h664v-33h-635l-115 -655q73 76 171.5 119t207.5 43q143 0 264 -70t190.5 -190t69.5 -261 q0 -143 -70 -263.5t-190.5 -190.5t-263.5 -70q-142 0 -262.5 70t-190 190.5t-69.5 263.5z" />
<glyph unicode="6" horiz-adv-x="1210" d="M82 489q0 159 88 293l504 754h41l-412 -621q131 95 301 95q143 0 264 -70t190.5 -190t69.5 -261q0 -143 -70 -263.5t-190.5 -190.5t-263.5 -70q-142 0 -262.5 70t-190 190.5t-69.5 263.5zM119 489q0 -134 65 -247t176.5 -178.5t243.5 -65.5q99 0 189.5 39t156 104.5 t104 156.5t38.5 191q0 201 -143 344.5t-345 143.5q-132 0 -243.5 -65.5t-176.5 -178t-65 -244.5z" />
<glyph unicode="7" horiz-adv-x="1101" d="M53 1501v35h1004l-639 -1536h-37l625 1501h-953z" />
<glyph unicode="8" horiz-adv-x="1159" d="M82 463q0 173 108.5 308t274.5 175q-92 34 -149.5 116.5t-57.5 184.5q0 134 94.5 229t227.5 95t227 -95t94 -229q0 -102 -57.5 -184.5t-149.5 -116.5q166 -40 274.5 -175t108.5 -308q0 -136 -66 -250.5t-180.5 -181t-250.5 -66.5q-134 0 -248.5 66.5t-182 181.5 t-67.5 250zM117 463q0 -192 135.5 -328.5t327.5 -136.5q126 0 232.5 62.5t168 169.5t61.5 233q0 192 -135 327.5t-327 135.5t-327.5 -135.5t-135.5 -327.5zM291 1247q0 -119 85 -202.5t204 -83.5q120 0 204 83t84 203q0 119 -84.5 205t-203.5 86q-118 0 -203.5 -86 t-85.5 -205z" />
<glyph unicode="9" horiz-adv-x="1210" d="M82 1047q0 143 70 263.5t190.5 190.5t263.5 70q142 0 262.5 -70t190 -190.5t69.5 -263.5q0 -159 -88 -293l-503 -754h-41l411 621q-131 -95 -301 -95q-143 0 -264 70t-190.5 190t-69.5 261zM119 1047q0 -201 142.5 -344.5t344.5 -143.5q99 0 189 39t155 104.5 t103.5 155.5t38.5 189q0 134 -65 247t-177 178.5t-244 65.5q-202 0 -344.5 -143.5t-142.5 -347.5z" />
<glyph unicode=":" horiz-adv-x="327" d="M72 25q0 17 12 29t29 12t29 -12t12 -29t-12 -29t-29 -12t-29 12t-12 29zM72 1159q0 17 12 29t29 12t29 -12t12 -29t-12 -29t-29 -12t-29 12t-12 29z" />
<glyph unicode=";" horiz-adv-x="327" d="M72 27q0 16 12.5 28.5t30.5 12.5q17 0 28 -12.5t11 -28.5v-144q0 -26 -18 -44.5t-44 -18.5h-8v35h8q11 0 20 8t9 20v101h-6q-19 0 -31 12t-12 31zM72 1159q0 17 12 29t29 12t29 -12t12 -29t-12 -29t-29 -12t-29 12t-12 29z" />
<glyph unicode="&#x3c;" horiz-adv-x="864" d="M82 575v33l700 578v-45l-665 -549l665 -549v-45z" />
<glyph unicode="=" horiz-adv-x="1392" d="M102 401v35h1188v-35h-1188zM102 752v34h1188v-34h-1188z" />
<glyph unicode="&#x3e;" horiz-adv-x="864" d="M82 -2v45l666 549l-666 549v45l700 -578v-33z" />
<glyph unicode="?" horiz-adv-x="1030" d="M82 1208q28 156 148.5 259.5t281.5 103.5q181 0 308.5 -128t127.5 -310q0 -180 -127.5 -308.5t-308.5 -128.5q-65 0 -111.5 -44.5t-46.5 -108.5q0 -67 46.5 -112.5t111.5 -45.5q31 0 55 8l11 -33q-25 -10 -66 -10q-79 0 -134.5 56t-55.5 137q0 78 56 133t134 55 q166 0 283.5 118t117.5 284t-117.5 283.5t-283.5 117.5q-147 0 -257.5 -94t-137.5 -236zM481 14q0 12 9.5 21.5t21.5 9.5q13 0 23 -9.5t10 -21.5q0 -13 -9.5 -21.5t-23.5 -8.5q-12 0 -21.5 8.5t-9.5 21.5z" />
<glyph unicode="@" horiz-adv-x="1789" d="M82 768q0 217 108 402t293 293t402 108t402 -108t293 -293t108 -402v-260q0 -81 -56.5 -137t-136.5 -56t-136 56t-56 137v86q-52 -126 -164.5 -202.5t-253.5 -76.5q-189 0 -321 132t-132 321t132 321t321 132t320.5 -132t131.5 -321v-260q0 -67 46.5 -112.5t111.5 -45.5 t111.5 45.5t46.5 112.5v260q0 209 -103 385.5t-279.5 279.5t-385.5 103t-385.5 -103t-279.5 -279.5t-103 -385.5t103 -385.5t279.5 -279.5t385.5 -103q186 0 344 82l14 -33q-168 -84 -358 -84q-217 0 -402 108t-293 293t-108 402zM467 768q0 -173 122.5 -295.5t295.5 -122.5 t295.5 122.5t122.5 295.5t-122.5 295.5t-295.5 122.5t-295.5 -122.5t-122.5 -295.5z" />
<glyph unicode="A" horiz-adv-x="1386" d="M31 0l661 1610l664 -1610h-41l-162 401h-917l-164 -401h-41zM250 436h891l-449 1080z" />
<glyph unicode="B" horiz-adv-x="1355" d="M123 0v1536h723v-2q150 -6 255 -114.5t105 -260.5q0 -118 -69.5 -214t-178.5 -136q137 -32 226.5 -143.5t89.5 -253.5q0 -165 -114 -284.5t-277 -127.5h-760zM158 35h706q157 0 266 110t109 267q0 155 -109 263.5t-266 108.5h-706v-749zM158 819h671q141 0 240.5 100 t99.5 240q0 142 -99.5 242t-240.5 100h-671v-682z" />
<glyph unicode="C" horiz-adv-x="1513" d="M72 768q0 163 63.5 311.5t170.5 256t256 171.5t312 64q162 0 309.5 -63.5t258.5 -174.5l-25 -24q-106 107 -246.5 167t-296.5 60q-208 0 -384.5 -103t-278.5 -279.5t-102 -385.5t102 -385.5t278.5 -279.5t384.5 -103q155 0 296 59t247 164l25 -24q-111 -111 -258 -172.5 t-310 -61.5t-312 64t-256 171.5t-170.5 256t-63.5 311.5z" />
<glyph unicode="D" horiz-adv-x="1486" d="M123 0v1536h524q155 0 297.5 -61t245.5 -163.5t164 -245t61 -298.5q0 -155 -61 -297.5t-164 -245.5t-245.5 -164t-297.5 -61h-524zM158 35h489q198 0 366.5 98t266.5 266.5t98 368.5q0 148 -58 284t-156 234t-233.5 156.5t-283.5 58.5h-489v-1466z" />
<glyph unicode="E" horiz-adv-x="1312" d="M123 0v1536h1118v-35h-1083v-715h942v-34h-942v-717h1083v-35h-1118z" />
<glyph unicode="F" horiz-adv-x="1234" d="M123 0v1536h1081v-35h-1046v-717h907v-34h-907v-750h-35z" />
<glyph unicode="G" horiz-adv-x="1587" d="M72 768q0 217 107.5 402t292.5 293t402 108q162 0 310.5 -63.5t259.5 -174.5l-25 -24q-108 108 -248.5 167.5t-296.5 59.5q-208 0 -384.5 -103t-278.5 -279.5t-102 -385.5t102 -385.5t278.5 -279.5t384.5 -103q169 0 319.5 68.5t256.5 189.5v492h-576v34h611v-538 q-112 -131 -271.5 -206t-339.5 -75q-217 0 -402 108t-292.5 293t-107.5 402z" />
<glyph unicode="H" horiz-adv-x="1433" d="M123 0v1536h35v-750h1118v750h35v-1536h-35v752h-1118v-752h-35z" />
<glyph unicode="I" horiz-adv-x="280" d="M123 0v1536h35v-1536h-35z" />
<glyph unicode="J" horiz-adv-x="878" d="M41 90l25 25q112 -115 272 -115q158 0 270.5 113.5t112.5 271.5v1151h35v-1151q0 -173 -123 -295.5t-295 -122.5q-177 0 -297 123z" />
<glyph unicode="K" horiz-adv-x="1347" d="M123 0v1536h35v-1110l1110 1110h49l-768 -768l768 -768h-49l-744 743l-366 -366v-377h-35z" />
<glyph unicode="L" horiz-adv-x="1200" d="M123 0v1536h35v-1501h1011v-35h-1046z" />
<glyph unicode="M" horiz-adv-x="1781" d="M123 0v1610l768 -809l768 809v-1610h-35v1522l-733 -770l-733 770v-1522h-35z" />
<glyph unicode="N" horiz-adv-x="1398" d="M123 0v1610l1118 -1575v1501h35v-1610l-1118 1573v-1499h-35z" />
<glyph unicode="O" horiz-adv-x="1748" d="M72 768q0 154 56.5 295t158.5 250q113 121 264.5 189.5t322.5 68.5q217 0 402 -108t293 -293t108 -402t-108 -402t-293 -293t-402 -108t-402 108t-292.5 293t-107.5 402zM109 768q0 -209 102 -385.5t278.5 -279.5t384.5 -103t384.5 103t279 279.5t102.5 385.5 t-102.5 385.5t-279 279.5t-384.5 103t-384.5 -103t-278.5 -279.5t-102 -385.5z" />
<glyph unicode="P" horiz-adv-x="1345" d="M123 0v1536h688q192 0 327.5 -135.5t135.5 -327.5t-135.5 -327.5t-327.5 -135.5h-653v-610h-35zM158 645h653q177 0 301.5 125.5t124.5 302.5t-124.5 302.5t-301.5 125.5h-653v-856z" />
<glyph unicode="Q" horiz-adv-x="1748" d="M72 768q0 217 107.5 402t292.5 293t402 108t402 -108t293 -293t108 -402q0 -160 -58 -303t-163 -254l211 -211v-47l-235 233q-111 -105 -254.5 -163t-303.5 -58q-217 0 -402 108t-292.5 293t-107.5 402zM109 768q0 -265 161.5 -471.5t411.5 -271.5q-69 47 -109.5 121.5 t-40.5 160.5q0 143 100 242.5t242 99.5q144 0 244 -100l314 -313q99 106 153.5 243t54.5 289q0 209 -102.5 385.5t-279 279.5t-384.5 103t-384.5 -103t-278.5 -279.5t-102 -385.5zM567 307q0 -127 89.5 -217t217.5 -90q152 0 289 56t244 155l-315 313q-87 90 -218 90 q-128 0 -217.5 -90t-89.5 -217z" />
<glyph unicode="R" horiz-adv-x="1355" d="M123 0v1536h688q192 0 327.5 -135.5t135.5 -327.5q0 -176 -117.5 -307t-290.5 -154l308 -612h-39l-306 610h-671v-610h-35zM158 645h653q177 0 301.5 125.5t124.5 302.5t-124.5 302.5t-301.5 125.5h-653v-856z" />
<glyph unicode="S" horiz-adv-x="1210" d="M82 125l18 27q101 -72 231 -113t273 -41q133 0 245.5 51.5t177.5 140t65 193.5q0 126 -93 226t-241 139l-307 77q-148 37 -241 137t-93 226q0 104 64.5 191.5t176.5 138.5t246 51q247 0 447 -115l-21 -31q-186 111 -426 111q-189 0 -319.5 -100.5t-130.5 -245.5 q0 -114 85.5 -204t221.5 -124l299 -78q161 -40 264.5 -150.5t103.5 -248.5q0 -113 -70.5 -209.5t-191.5 -152.5t-262 -56q-310 0 -522 160z" />
<glyph unicode="T" horiz-adv-x="1247" d="M31 1501v35h1186v-35h-576v-1501h-35v1501h-575z" />
<glyph unicode="U" horiz-adv-x="1431" d="M123 559v977h35v-977q0 -114 44 -217.5t119 -178.5t178.5 -119t217.5 -44q113 0 216 44t178 119t119 178.5t44 217.5v977h35v-977q0 -161 -79 -298t-215.5 -216.5t-297.5 -79.5t-298 79.5t-216.5 216.5t-79.5 298z" />
<glyph unicode="V" horiz-adv-x="1388" d="M31 1536h39l626 -1520l625 1520h37l-662 -1610z" />
<glyph unicode="W" horiz-adv-x="1839" d="M31 1536h37l417 -1483l437 1557l436 -1557l416 1483h34l-450 -1610l-436 1553l-437 -1553z" />
<glyph unicode="X" horiz-adv-x="1263" d="M31 0l579 768l-579 768h43l559 -739l557 739h43l-578 -768l578 -768h-43l-557 739l-559 -739h-43z" />
<glyph unicode="Y" horiz-adv-x="1300" d="M31 1536h45l575 -752l576 752h43l-600 -784v-752h-35v752z" />
<glyph unicode="Z" horiz-adv-x="1257" d="M25 0l1134 1501h-1108v35h1182l-1137 -1501h1108v-35h-1179z" />
<glyph unicode="[" horiz-adv-x="505" d="M164 -350v1886h280v-35h-245v-1816h245v-35h-280z" />
<glyph unicode="\" horiz-adv-x="944" d="M123 1556l33 15l665 -1591l-33 -15z" />
<glyph unicode="]" horiz-adv-x="505" d="M61 -315h246v1816h-246v35h281v-1886h-281v35z" />
<glyph unicode="^" horiz-adv-x="1222" d="M123 770l473 766h35l469 -766h-41l-447 729l-448 -729h-41z" />
<glyph unicode="_" horiz-adv-x="1062" d="M0 -186h1186v-52h-1186v52z" />
<glyph unicode="`" horiz-adv-x="718" d="M184 1516v55l351 -107v-16z" />
<glyph unicode="a" horiz-adv-x="1460" d="M82 594q0 170 84 314.5t228.5 228.5t314.5 84q205 0 367 -116.5t227 -303.5v385h34v-1186h-34v387q-65 -187 -227.5 -304.5t-366.5 -117.5q-170 0 -314.5 84t-228.5 229t-84 316zM119 594q0 -161 79 -298t215 -216.5t296 -79.5q161 0 298 79.5t216.5 216.5t79.5 298 t-79.5 297.5t-216.5 215.5t-298 79q-160 0 -296 -79t-215 -215.5t-79 -297.5z" />
<glyph unicode="b" horiz-adv-x="1462" d="M123 0v1536h35v-735q65 187 228 303.5t366 116.5q127 0 243.5 -49.5t200.5 -133.5t134 -200.5t50 -243.5q0 -128 -50 -244.5t-134 -201t-200 -134t-244 -49.5q-203 0 -366 117.5t-228 304.5v-387h-35zM158 594q0 -161 79.5 -298t216.5 -216.5t298 -79.5q120 0 229.5 47 t188.5 126.5t126 189.5t47 231t-47 230.5t-126 189t-188.5 126t-229.5 46.5q-161 0 -298 -79t-216.5 -215.5t-79.5 -297.5z" />
<glyph unicode="c" horiz-adv-x="1230" d="M82 594q0 170 84 314.5t229 228.5t316 84q261 0 446 -185l-24 -24q-174 174 -422 174q-161 0 -297.5 -79t-215.5 -215.5t-79 -297.5t79 -298t215.5 -216.5t297.5 -79.5q248 0 422 174l24 -24q-90 -88 -204 -136.5t-242 -48.5t-244.5 49.5t-201 134t-134 201t-49.5 244.5z " />
<glyph unicode="d" horiz-adv-x="1462" d="M82 594q0 170 84.5 314.5t230 228.5t316.5 84q202 0 364.5 -117t227.5 -303v735h34v-1536h-34v387q-65 -187 -227.5 -304.5t-364.5 -117.5q-128 0 -245 49.5t-201.5 134t-134.5 201t-50 244.5zM119 594q0 -161 79.5 -298t216.5 -216.5t298 -79.5q160 0 296.5 79.5 t216 216.5t79.5 298t-79.5 297.5t-216 215.5t-296.5 79q-161 0 -298 -79t-216.5 -215.5t-79.5 -297.5z" />
<glyph unicode="e" d="M82 594q0 170 84.5 314.5t229.5 228.5t315 84q127 0 243 -49.5t200 -133.5t133.5 -200.5t49.5 -243.5v-16h-1220q5 -159 85.5 -291.5t215.5 -209.5t293 -77q163 0 300.5 83t213.5 222l32 -16q-84 -148 -228.5 -236t-317.5 -88q-170 0 -315 84.5t-229.5 229.5t-84.5 315z M117 610h1186q-5 158 -85.5 290.5t-215 209t-291.5 76.5q-159 0 -293.5 -76.5t-215 -208.5t-85.5 -291z" />
<glyph unicode="f" horiz-adv-x="657" d="M41 1151v35h137v125q0 108 77.5 184t186.5 76q120 0 191 -84l-25 -25q-69 76 -166 76q-95 0 -162 -66.5t-67 -160.5v-125h348v-35h-348v-1151h-35v1151h-137z" />
<glyph unicode="g" horiz-adv-x="1460" d="M82 594q0 170 84 314.5t229 228.5t316 84q205 0 367 -116.5t227 -303.5l-2 385h34v-942q0 -127 -49.5 -243.5t-133.5 -201t-200 -134.5t-243 -50q-265 0 -488 131l17 33q219 -129 471 -129q161 0 296.5 79.5t214.5 216t81 298.5l2 143q-65 -187 -227.5 -304.5 t-366.5 -117.5q-128 0 -244.5 49.5t-201 134t-134 201t-49.5 244.5zM119 594q0 -161 79 -298t215.5 -216.5t297.5 -79.5t298 79.5t216.5 216.5t79.5 298t-79.5 297.5t-216.5 215.5t-298 79t-297.5 -79t-215.5 -215.5t-79 -297.5z" />
<glyph unicode="h" horiz-adv-x="1257" d="M123 0v1536h35v-635q56 140 196 230t301 90q209 0 344.5 -135.5t135.5 -344.5v-741h-35v741q0 193 -126 319t-319 126q-129 0 -243.5 -63t-184 -171.5t-69.5 -234.5v-717h-35z" />
<glyph unicode="i" horiz-adv-x="280" d="M115 1544q0 11 8 19t18 8q11 0 19 -8.5t8 -18.5t-8 -18t-19 -8t-18.5 8t-7.5 18zM123 0v1186h35v-1186h-35z" />
<glyph unicode="j" horiz-adv-x="501" d="M-74 -299l25 25q63 -76 168 -76q94 0 159.5 65.5t65.5 159.5v1311h35v-1311q0 -106 -76 -183t-184 -77q-120 0 -193 86zM334 1544q0 11 8 19t18 8t18.5 -8.5t8.5 -18.5t-8 -18t-19 -8q-10 0 -18 8t-8 18z" />
<glyph unicode="k" horiz-adv-x="1085" d="M123 0v1536h35v-1202l852 852h51l-594 -592l594 -594h-51l-568 569l-284 -284v-285h-35z" />
<glyph unicode="l" horiz-adv-x="280" d="M123 0v1536h35v-1536h-35z" />
<glyph unicode="m" horiz-adv-x="1781" d="M123 0v1186h35v-197q47 104 152.5 168t226.5 64q132 0 232 -77.5t122 -197.5q37 119 149.5 197t245.5 78q164 0 268.5 -104t104.5 -267v-850h-35v850q0 148 -94.5 242t-243.5 94q-150 0 -263.5 -105.5t-113.5 -251.5v-829h-35v829q0 150 -95 253.5t-242 103.5 q-97 0 -184.5 -47.5t-141 -130.5t-53.5 -179v-829h-35z" />
<glyph unicode="n" horiz-adv-x="1257" d="M123 0v1186h35v-285q56 140 196 230t301 90q209 0 344.5 -135.5t135.5 -344.5v-741h-35v741q0 193 -126 319t-319 126q-129 0 -243.5 -63t-184 -171.5t-69.5 -234.5v-717h-35z" />
<glyph unicode="o" d="M82 594q0 170 84 314.5t228.5 228.5t314.5 84q171 0 315.5 -84t228.5 -228.5t84 -314.5q0 -171 -84 -316t-228.5 -229t-315.5 -84q-170 0 -314.5 84t-228.5 229t-84 316zM119 594q0 -161 79 -298t215 -216.5t296 -79.5q121 0 230.5 47t188.5 126.5t125.5 189.5t46.5 231 q0 161 -79 297.5t-215 215.5t-297 79q-160 0 -296 -79t-215 -215.5t-79 -297.5z" />
<glyph unicode="p" horiz-adv-x="1462" d="M123 -350v1536h35v-387q65 187 227.5 304.5t364.5 117.5q171 0 316 -84t229.5 -229t84.5 -316q0 -170 -84.5 -314.5t-229.5 -228.5t-316 -84q-202 0 -364.5 117t-227.5 303v-735h-35zM158 592q0 -161 79.5 -297.5t216 -215.5t296.5 -79q161 0 297.5 79t216 215.5 t79.5 297.5q0 121 -47 231t-126 189.5t-189 126.5t-231 47q-160 0 -296.5 -79.5t-216 -216.5t-79.5 -298z" />
<glyph unicode="q" horiz-adv-x="1462" d="M82 592q0 128 50 244.5t134.5 201t201.5 134t245 49.5q202 0 364.5 -117.5t227.5 -304.5v387h34v-1536h-34v735q-65 -186 -227.5 -303t-364.5 -117q-171 0 -316.5 84t-230 228.5t-84.5 314.5zM119 592q0 -161 79.5 -297.5t216.5 -215.5t298 -79q160 0 296.5 79t216 215.5 t79.5 297.5t-79.5 298t-216 216.5t-296.5 79.5q-161 0 -298 -79.5t-216.5 -216.5t-79.5 -298z" />
<glyph unicode="r" horiz-adv-x="602" d="M123 0v1186h35v-232q52 120 160 193.5t241 73.5h27l-8 -35h-19q-166 0 -283.5 -117.5t-117.5 -284.5v-784h-35z" />
<glyph unicode="s" horiz-adv-x="1069" d="M82 84l20 29q189 -113 433 -113q189 0 302 82t113 221q0 119 -90 199.5t-235 99.5l-189 25q-142 19 -231.5 101t-89.5 194q0 133 118 216t302 83q207 0 387 -91l-21 -26q-167 82 -366 82q-168 0 -275.5 -73t-107.5 -191q0 -97 84.5 -171t203.5 -89l193 -25 q160 -20 257 -111t97 -223q0 -153 -125 -245.5t-327 -92.5q-260 0 -453 119z" />
<glyph unicode="t" horiz-adv-x="606" d="M41 1151v35h139v268h35v-268h350v-35h-350v-872q0 -100 72 -172t172 -72h106v-35h-106q-115 0 -197 82t-82 197v872h-139z" />
<glyph unicode="u" horiz-adv-x="1257" d="M123 444v742h35v-742q0 -194 125 -319t319 -125q129 0 244 62.5t184.5 171.5t69.5 235v717h35v-1186h-35v285q-55 -139 -196 -229.5t-302 -90.5q-209 0 -344 135t-135 344z" />
<glyph unicode="v" horiz-adv-x="1191" d="M31 1186h41l524 -1174l526 1174h39l-565 -1260z" />
<glyph unicode="w" horiz-adv-x="1673" d="M31 1186h37l372 -1147l398 1221l395 -1221l373 1147h36l-409 -1260l-395 1221l-398 -1221z" />
<glyph unicode="x" horiz-adv-x="1095" d="M31 0l493 594l-493 592h45l471 -565l473 565h45l-496 -592l496 -594h-45l-473 565l-471 -565h-45z" />
<glyph unicode="y" horiz-adv-x="1191" d="M31 1186h39l524 -1141l528 1141h39l-710 -1536h-39l163 354z" />
<glyph unicode="z" horiz-adv-x="1067" d="M25 0l944 1153h-908v33h981l-944 -1151h908v-35h-981z" />
<glyph unicode="{" horiz-adv-x="645" d="M164 575v35q79 0 135.5 56.5t56.5 136.5v506q0 94 66.5 160.5t161.5 66.5v-37q-80 0 -136.5 -55.5t-56.5 -134.5v-506q0 -69 -38 -125.5t-99 -83.5q61 -27 99 -84t38 -125v-508q0 -79 56.5 -135.5t136.5 -56.5v-35q-95 0 -161.5 67t-66.5 160v508q0 78 -56.5 134 t-135.5 56z" />
<glyph unicode="|" horiz-adv-x="526" d="M246 -350v1886h35v-1886h-35z" />
<glyph unicode="}" horiz-adv-x="645" d="M61 -315q80 0 136.5 56.5t56.5 135.5v508q0 68 38 125t99 84q-61 27 -99 83.5t-38 125.5v506q0 79 -56.5 134.5t-136.5 55.5v37q95 0 161.5 -66.5t66.5 -160.5v-506q0 -80 56.5 -136.5t135.5 -56.5v-35q-79 0 -135.5 -56t-56.5 -134v-508q0 -93 -66.5 -160t-161.5 -67v35 z" />
<glyph unicode="~" horiz-adv-x="917" d="M123 526q0 76 54.5 130.5t129.5 54.5q55 0 99.5 -30.5t68.5 -80.5q17 -40 53.5 -64t81.5 -24q62 0 105 43t43 104h37q0 -75 -55 -129.5t-130 -54.5q-55 0 -101 31.5t-67 79.5q-18 39 -54.5 63.5t-80.5 24.5q-63 0 -106 -43t-43 -105h-35z" />
<glyph unicode="&#xa1;" horiz-adv-x="280" d="M111 1522q0 12 9 21t21 9t21.5 -9t9.5 -21t-9.5 -21.5t-21.5 -9.5t-21 9.5t-9 21.5zM123 0l4 1188h27l4 -1188h-35z" />
<glyph unicode="&#xa2;" horiz-adv-x="1230" d="M82 594q0 162 76.5 301t208.5 225t292 99v143h35v-141h17q261 0 446 -185l-27 -24q-80 83 -188.5 128.5t-230.5 45.5q-161 0 -297.5 -79t-215.5 -215.5t-79 -297.5t79 -298t215.5 -216.5t297.5 -79.5q122 0 230.5 45.5t188.5 128.5l27 -24q-90 -88 -204 -136.5 t-242 -48.5h-17v-139h-35v141q-244 22 -410.5 201.5t-166.5 425.5z" />
<glyph unicode="&#xa3;" horiz-adv-x="1228" d="M82 -10l102 98q88 94 88 217v447h-190v32h190v279q0 100 38 194t110 166q98 97 228.5 131.5t261 0t227.5 -131.5l-25 -24q-66 64 -152.5 100.5t-181.5 36.5q-195 0 -333 -138.5t-138 -334.5v-279h613v-32h-613v-447q0 -76 -35 -151q92 49 203 31.5t189 -97.5 q91 -88 217 -88t215 88l34 35l25 -25l-35 -35q-98 -100 -239.5 -100t-241.5 100q-89 91 -215.5 91.5t-214.5 -88.5l-103 -101z" />
<glyph unicode="&#xa4;" horiz-adv-x="1452" d="M98 594q0 121 46 232.5t126 197.5l-137 137l25 25l137 -137q181 172 432 172q254 0 432 -172l135 137l25 -25l-135 -137q81 -84 125.5 -195.5t44.5 -234.5q0 -124 -44.5 -235.5t-125.5 -196.5l135 -137l-25 -25l-135 137q-178 -172 -432 -172q-251 0 -432 172l-137 -137 l-25 25l137 137q-80 86 -126 197.5t-46 234.5zM135 594q0 -161 79 -298t215.5 -216.5t297.5 -79.5t297 79.5t214.5 216t78.5 298.5q0 161 -78.5 297.5t-214.5 215.5t-297 79t-297.5 -79t-215.5 -215.5t-79 -297.5z" />
<glyph unicode="&#xa5;" horiz-adv-x="1122" d="M31 1536h41l489 -735l488 735h43l-361 -541h275v-34h-297l-127 -193h424v-35h-426v-733h-35v733h-426v35h420l-127 193h-293v34h270z" />
<glyph unicode="&#xa6;" horiz-adv-x="280" d="M123 -102v591h35v-591h-35zM123 698v594h35v-594h-35z" />
<glyph unicode="&#xa7;" horiz-adv-x="1007" d="M102 -59l35 8q1 -124 108.5 -211.5t258.5 -87.5t257.5 88.5t106.5 214.5t-106.5 214.5t-257.5 88.5q-166 0 -284 98.5t-118 239.5q0 109 76.5 197t196.5 122q-120 34 -196.5 121.5t-76.5 198.5q0 138 118.5 238t283.5 100q161 0 277 -94t124 -228l-35 -12 q-1 124 -108.5 211.5t-257.5 87.5q-152 0 -258.5 -88.5t-106.5 -214.5t106.5 -214.5t258.5 -88.5q166 0 283.5 -98.5t117.5 -237.5q0 -110 -76.5 -199t-197.5 -123q121 -33 197.5 -120.5t76.5 -198.5q0 -140 -117.5 -239t-283.5 -99q-162 0 -279 95.5t-123 230.5zM139 594 q0 -126 106.5 -214.5t258.5 -88.5q151 0 257.5 88.5t106.5 214.5q0 125 -107 214t-257 89q-152 0 -258.5 -89t-106.5 -214z" />
<glyph unicode="&#xa8;" horiz-adv-x="401" d="M31 1544q0 11 8 19t18 8q11 0 19 -8.5t8 -18.5t-8 -18t-19 -8t-18.5 8t-7.5 18zM317 1544q0 10 8.5 18.5t18.5 8.5t18.5 -8.5t8.5 -18.5t-8 -18t-19 -8t-19 8t-8 18z" />
<glyph unicode="&#xa9;" d="M82 594q0 170 84 314.5t228.5 228.5t314.5 84q171 0 315.5 -84t228.5 -228.5t84 -314.5q0 -171 -84 -316t-228.5 -229t-315.5 -84q-170 0 -314.5 84t-228.5 229t-84 316zM109 594q0 -123 47.5 -234.5t128 -192t191.5 -128t233 -47.5q164 0 302.5 80.5t219 219t80.5 302.5 q0 122 -47.5 233.5t-128 191.5t-192 127.5t-234.5 47.5q-122 0 -233 -47.5t-191.5 -127.5t-128 -191.5t-47.5 -233.5zM289 594q0 173 123.5 296.5t296.5 123.5q176 0 299 -123l-25 -25q-113 113 -274 113q-159 0 -272 -113t-113 -272q0 -161 113 -274t272 -113t274 112 l25 -24q-123 -123 -299 -123q-174 0 -297 123t-123 299z" />
<glyph unicode="&#xaa;" horiz-adv-x="813" d="M82 1257q0 129 92 221.5t221 92.5q103 0 183.5 -58.5t113.5 -152.5v192h19v-591h-19v192q-33 -94 -113.5 -152.5t-183.5 -58.5q-129 0 -221 92.5t-92 222.5zM102 1257q0 -123 85.5 -209.5t207.5 -86.5q123 0 210 86.5t87 209.5t-87 209t-210 86q-122 0 -207.5 -86 t-85.5 -209z" />
<glyph unicode="&#xab;" horiz-adv-x="735" d="M82 594l332 332v-49l-283 -283l283 -285v-49zM322 594l331 332v-49l-282 -283l282 -285v-49z" />
<glyph unicode="&#xac;" horiz-adv-x="911" d="M123 575v35h665v-192h-36v157h-629z" />
<glyph unicode="&#xad;" horiz-adv-x="950" d="M143 578v34h664v-34h-664z" />
<glyph unicode="&#xae;" horiz-adv-x="653" d="M82 1327q0 100 72.5 172t173.5 72q100 0 171.5 -72t71.5 -172q0 -101 -71.5 -173.5t-171.5 -72.5q-101 0 -173.5 72.5t-72.5 173.5zM96 1327q0 -96 68 -163.5t164 -67.5q94 0 161.5 67.5t67.5 163.5q0 94 -67.5 161.5t-161.5 67.5q-95 0 -163.5 -67.5t-68.5 -161.5z M215 1171v316h141q43 0 73 -29t30 -69q0 -36 -23 -63.5t-57 -35.5l59 -119h-16l-57 117h-136v-117h-14zM229 1303h127q38 0 63 24.5t25 61.5q0 36 -25 61t-63 25h-127v-172z" />
<glyph unicode="&#xaf;" horiz-adv-x="628" d="M123 1501v35h383v-35h-383z" />
<glyph unicode="&#xb0;" horiz-adv-x="622" d="M102 1362q0 87 61 148t148 61q88 0 148.5 -60.5t60.5 -148.5q0 -87 -61 -148t-148 -61q-86 0 -147.5 61.5t-61.5 147.5zM137 1362q0 -72 51 -123t123 -51t123 51t51 123t-51 123t-123 51t-123 -51t-51 -123z" />
<glyph unicode="&#xb1;" horiz-adv-x="1390" d="M102 0v35h1186v-35h-1186zM102 752v34h576v400h35v-400h575v-34h-575v-402h-35v402h-576z" />
<glyph unicode="&#xb2;" horiz-adv-x="686" d="M82 1292q0 107 76.5 183.5t183.5 76.5q109 0 185.5 -76.5t76.5 -183.5q0 -121 -92 -200l-365 -308h435v-16h-484l402 338q88 71 88 186q0 101 -72.5 172.5t-173.5 71.5q-100 0 -172 -71.5t-72 -172.5q0 -102 72 -174l-12 -12q-76 79 -76 186z" />
<glyph unicode="&#xb3;" horiz-adv-x="686" d="M82 1012h16q0 -101 72.5 -173.5t173.5 -72.5q100 0 172 72.5t72 173.5t-72 172t-172 71q-104 0 -172 -71l-14 12l2 2l18 16l336 304h-379v18h426l-309 -279q49 17 92 17q107 0 183.5 -77.5t76.5 -184.5t-76.5 -184.5t-183.5 -77.5q-108 0 -185 77t-77 185z" />
<glyph unicode="&#xb4;" horiz-adv-x="718" d="M184 1448v16l351 107v-55z" />
<glyph unicode="&#xb6;" horiz-adv-x="1083" d="M51 1153q0 158 112.5 270.5t272.5 112.5h525v-1536h-35v1499h-281v-1499h-35v768h-174q-160 0 -272.5 112.5t-112.5 272.5zM88 1153q0 -146 101.5 -248t246.5 -102h174v696h-174q-144 0 -246 -101.5t-102 -244.5z" />
<glyph unicode="&#xb7;" horiz-adv-x="327" d="M72 594q0 17 12 29t29 12t29 -12t12 -29t-12 -29t-29 -12t-29 12t-12 29z" />
<glyph unicode="&#xb8;" horiz-adv-x="667" d="M205 -315l26 18q30 -55 93 -55q44 0 75 31.5t31 74.5t-31 74t-75 31q-33 0 -54 -15l-10 21l37 133l29 -8l-29 -103q30 6 63 -2q58 -17 84.5 -64.5t12.5 -103.5q-15 -54 -64 -82.5t-104 -13.5q-53 14 -84 64z" />
<glyph unicode="&#xb9;" horiz-adv-x="385" d="M102 1458v23l160 92v-805h-18v774z" />
<glyph unicode="&#xba;" horiz-adv-x="792" d="M82 1257q0 129 92 221.5t221 92.5q130 0 223 -92.5t93 -221.5q0 -130 -92.5 -222.5t-223.5 -92.5q-129 0 -221 92.5t-92 222.5zM102 1257q0 -123 85.5 -209.5t207.5 -86.5q123 0 209 86.5t86 209.5t-86 209t-209 86q-122 0 -207.5 -86t-85.5 -209z" />
<glyph unicode="&#xbb;" horiz-adv-x="735" d="M82 260v49l283 285l-283 283v49l332 -332zM322 260v49l282 285l-282 283v49l331 -332z" />
<glyph unicode="&#xbc;" horiz-adv-x="1226" d="M102 1458v23l160 92v-805h-18v774zM233 -27l670 1600l15 -6l-668 -1600zM616 201l420 604v-588h150v-16h-150v-201h-16v201h-404zM649 217h371v533z" />
<glyph unicode="&#xbd;" horiz-adv-x="1388" d="M102 1458v23l160 92v-805h-18v774zM233 -27l670 1600l15 -6l-668 -1600zM784 524q0 107 76.5 183.5t183.5 76.5q109 0 186 -76.5t77 -183.5q0 -121 -93 -200l-364 -308h434v-16h-483l401 338q88 71 88 186q0 101 -72.5 172.5t-173.5 71.5q-100 0 -171.5 -71.5 t-71.5 -172.5q0 -103 71 -174l-12 -12q-76 79 -76 186z" />
<glyph unicode="&#xbe;" d="M82 1012h16q0 -101 72.5 -173.5t173.5 -72.5q100 0 172 72.5t72 173.5t-72 172t-172 71q-104 0 -172 -71l-14 12l2 2l18 16l336 304h-379v18h426l-309 -279q49 17 92 17q107 0 183.5 -77.5t76.5 -184.5t-76.5 -184.5t-183.5 -77.5q-108 0 -185 77t-77 185zM422 -27 l670 1600l14 -6l-668 -1600zM809 201l420 604v-588h149v-16h-149v-201h-17v201h-403zM842 217h370v533z" />
<glyph unicode="&#xbf;" horiz-adv-x="1030" d="M82 403q0 180 127.5 308.5t308.5 128.5q65 0 111.5 44.5t46.5 108.5q0 67 -46.5 112.5t-111.5 45.5q-31 0 -55 -8l-10 33q25 10 65 10q79 0 135 -56t56 -137q0 -78 -56.5 -133t-134.5 -55q-166 0 -283.5 -118t-117.5 -284t117.5 -283.5t283.5 -117.5q147 0 257.5 94 t137.5 236l35 -4q-28 -156 -148.5 -259.5t-281.5 -103.5q-181 0 -308.5 128t-127.5 310zM485 1522q0 13 9.5 21.5t23.5 8.5q12 0 21.5 -8.5t9.5 -21.5q0 -12 -9.5 -21.5t-21.5 -9.5q-13 0 -23 9.5t-10 21.5z" />
<glyph unicode="&#xc0;" horiz-adv-x="1388" d="M31 0l661 1610l664 -1610h-41l-162 401h-917l-164 -401h-41zM250 436h891l-449 1080zM522 1708v53l348 -104v-19z" />
<glyph unicode="&#xc1;" horiz-adv-x="1388" d="M31 0l661 1610l664 -1610h-41l-162 401h-917l-164 -401h-41zM250 436h891l-449 1080zM522 1638v19l348 104v-53z" />
<glyph unicode="&#xc2;" horiz-adv-x="1388" d="M31 0l661 1610l664 -1610h-41l-162 401h-917l-164 -401h-41zM250 436h891l-449 1080zM485 1636l207 207l207 -207l-22 -22l-185 184l-184 -184z" />
<glyph unicode="&#xc3;" horiz-adv-x="1388" d="M31 0l661 1610l664 -1610h-41l-162 401h-917l-164 -401h-41zM250 436h891l-449 1080zM455 1647q0 55 39.5 95t95.5 40q80 0 121 -76q30 -59 92 -59q40 0 70 29t30 71h35q0 -55 -40 -95t-95 -40q-80 0 -121 76q-10 26 -35.5 41.5t-56.5 15.5q-40 0 -70.5 -29.5 t-30.5 -68.5h-34z" />
<glyph unicode="&#xc4;" horiz-adv-x="1388" d="M31 0l661 1610l664 -1610h-41l-162 401h-917l-164 -401h-41zM250 436h891l-449 1080zM526 1735q0 10 8 18t19 8t19 -8t8 -18q0 -11 -8 -19t-19 -8t-19 8t-8 19zM813 1735q0 10 8 18t19 8q10 0 18 -7.5t8 -18.5t-8 -19t-18 -8t-18.5 8t-8.5 19z" />
<glyph unicode="&#xc5;" horiz-adv-x="1388" d="M31 0l661 1610l664 -1610h-41l-162 401h-917l-164 -401h-41zM250 436h891l-449 1080zM539 1817q0 61 45 105t108 44q62 0 106 -44t44 -105q0 -63 -44.5 -108.5t-105.5 -45.5q-63 0 -108 45.5t-45 108.5zM571 1817q0 -49 35.5 -85t85.5 -36q48 0 83.5 36t35.5 85 q0 47 -36 82.5t-83 35.5q-49 0 -85 -35.5t-36 -82.5z" />
<glyph unicode="&#xc6;" horiz-adv-x="2334" d="M31 0l1118 1536h1114v-35h-1079v-715h942v-34h-942v-717h1079v-35h-1114v401h-784l-291 -401h-43zM393 436h756v1041z" />
<glyph unicode="&#xc7;" horiz-adv-x="1515" d="M72 768q0 163 63.5 311.5t170.5 256t256 171.5t312 64q162 0 309.5 -63.5t258.5 -174.5l-25 -24q-106 107 -246.5 167t-296.5 60q-208 0 -384.5 -103t-278.5 -279.5t-102 -385.5t102 -385.5t278.5 -279.5t384.5 -103q155 0 296 59t247 164l25 -24q-111 -111 -258 -172.5 t-310 -61.5h-8l-20 -78q30 6 63 -2q58 -17 84.5 -64.5t12.5 -103.5q-15 -54 -64 -82.5t-104 -13.5q-53 14 -84 64l26 18q30 -55 92 -55q44 0 75.5 31.5t31.5 74.5t-31.5 74t-75.5 31q-32 0 -53 -15l-10 21l27 102q-157 7 -298.5 73.5t-243.5 173t-162 251.5t-60 303z" />
<glyph unicode="&#xc8;" horiz-adv-x="1312" d="M123 0v1536h1118v-35h-1083v-715h942v-34h-942v-717h1083v-35h-1118zM512 1708v53l350 -104v-19z" />
<glyph unicode="&#xc9;" horiz-adv-x="1312" d="M123 0v1536h1118v-35h-1083v-715h942v-34h-942v-717h1083v-35h-1118zM512 1638v19l350 104v-53z" />
<glyph unicode="&#xca;" horiz-adv-x="1312" d="M123 0v1536h1118v-35h-1083v-715h942v-34h-942v-717h1083v-35h-1118zM477 1636l207 207l207 -207l-23 -22l-184 184l-184 -184z" />
<glyph unicode="&#xcb;" horiz-adv-x="1312" d="M123 0v1536h1118v-35h-1083v-715h942v-34h-942v-717h1083v-35h-1118zM510 1735q0 10 8 18t19 8t18.5 -7.5t7.5 -18.5t-8 -19t-18 -8q-11 0 -19 8t-8 19zM797 1735q0 11 7.5 18.5t18.5 7.5t19 -8t8 -18q0 -11 -8 -19t-19 -8q-10 0 -18 8t-8 19z" />
<glyph unicode="&#xcc;" horiz-adv-x="299" d="M-33 1708v53l348 -104v-19zM123 0v1536h35v-1536h-35z" />
<glyph unicode="&#xcd;" horiz-adv-x="280" d="M-33 1638v19l348 104v-53zM123 0v1536h35v-1536h-35z" />
<glyph unicode="&#xce;" horiz-adv-x="280" d="M-68 1636l207 207l207 -207l-22 -22l-185 184l-184 -184zM123 0v1536h35v-1536h-35z" />
<glyph unicode="&#xcf;" horiz-adv-x="290" d="M-25 1735q0 10 8 18t19 8t19 -8t8 -18q0 -11 -8.5 -19t-18.5 -8t-18.5 8t-8.5 19zM123 0v1536h35v-1536h-35zM262 1735q0 10 8 18t19 8t18.5 -7.5t7.5 -18.5t-8 -19t-18 -8q-11 0 -19 8t-8 19z" />
<glyph unicode="&#xd0;" horiz-adv-x="1525" d="M41 752v34h121v750h524q155 0 297.5 -61t245.5 -163.5t164 -245t61 -298.5q0 -155 -61 -297.5t-164 -245.5t-245.5 -164t-297.5 -61h-524v752h-121zM197 35h489q198 0 366.5 98t266.5 266.5t98 368.5q0 148 -58 284t-156 234t-233.5 156.5t-283.5 58.5h-489v-715h333v-34 h-333v-717z" />
<glyph unicode="&#xd1;" horiz-adv-x="1398" d="M123 0v1610l1118 -1575v1501h35v-1610l-1118 1573v-1499h-35zM459 1626q0 56 39.5 95.5t95.5 39.5q40 0 71.5 -20.5t49.5 -54.5q31 -60 92 -60q40 0 70 29t30 71h35q0 -56 -40 -95.5t-95 -39.5q-80 0 -121 76q-10 26 -35.5 41.5t-56.5 15.5q-40 0 -70 -29t-30 -69h-35z " />
<glyph unicode="&#xd2;" horiz-adv-x="1748" d="M72 768q0 154 56.5 294.5t156.5 250.5q115 122 266.5 190t322.5 68q217 0 402 -108t293 -293t108 -402t-108 -402t-293 -293t-402 -108q-163 0 -312 64t-256 171.5t-170.5 256t-63.5 311.5zM106 768q0 -209 103 -385.5t279.5 -279.5t385.5 -103q155 0 297.5 61 t245.5 163.5t164 245t61 298.5t-61 298.5t-164 245t-245.5 163.5t-297.5 61q-209 0 -385.5 -103t-279.5 -279.5t-103 -385.5zM698 1708v53l351 -104v-19z" />
<glyph unicode="&#xd3;" horiz-adv-x="1748" d="M72 768q0 154 56.5 294.5t156.5 250.5q115 122 266.5 190t322.5 68q217 0 402 -108t293 -293t108 -402t-108 -402t-293 -293t-402 -108q-163 0 -312 64t-256 171.5t-170.5 256t-63.5 311.5zM106 768q0 -209 103 -385.5t279.5 -279.5t385.5 -103q155 0 297.5 61 t245.5 163.5t164 245t61 298.5t-61 298.5t-164 245t-245.5 163.5t-297.5 61q-209 0 -385.5 -103t-279.5 -279.5t-103 -385.5zM698 1638v19l351 104v-53z" />
<glyph unicode="&#xd4;" horiz-adv-x="1748" d="M72 768q0 154 56.5 294.5t156.5 250.5q115 122 266.5 190t322.5 68q217 0 402 -108t293 -293t108 -402t-108 -402t-293 -293t-402 -108q-163 0 -312 64t-256 171.5t-170.5 256t-63.5 311.5zM106 768q0 -209 103 -385.5t279.5 -279.5t385.5 -103q155 0 297.5 61 t245.5 163.5t164 245t61 298.5t-61 298.5t-164 245t-245.5 163.5t-297.5 61q-209 0 -385.5 -103t-279.5 -279.5t-103 -385.5zM668 1636l206 207l207 -207l-22 -22l-185 184l-184 -184z" />
<glyph unicode="&#xd5;" horiz-adv-x="1748" d="M72 768q0 154 56.5 294.5t156.5 250.5q115 122 266.5 190t322.5 68q217 0 402 -108t293 -293t108 -402t-108 -402t-293 -293t-402 -108q-163 0 -312 64t-256 171.5t-170.5 256t-63.5 311.5zM106 768q0 -209 103 -385.5t279.5 -279.5t385.5 -103q155 0 297.5 61 t245.5 163.5t164 245t61 298.5t-61 298.5t-164 245t-245.5 163.5t-297.5 61q-209 0 -385.5 -103t-279.5 -279.5t-103 -385.5zM633 1667q0 55 39.5 95t95.5 40q80 0 121 -76q30 -59 92 -59q40 0 70 29t30 71h35q0 -55 -40 -95t-95 -40q-80 0 -121 76q-10 26 -35.5 41.5 t-56.5 15.5q-40 0 -70 -29t-30 -69h-35z" />
<glyph unicode="&#xd6;" horiz-adv-x="1748" d="M72 768q0 154 56.5 294.5t156.5 250.5q115 122 266.5 190t322.5 68q217 0 402 -108t293 -293t108 -402t-108 -402t-293 -293t-402 -108q-163 0 -312 64t-256 171.5t-170.5 256t-63.5 311.5zM106 768q0 -209 103 -385.5t279.5 -279.5t385.5 -103q155 0 297.5 61 t245.5 163.5t164 245t61 298.5t-61 298.5t-164 245t-245.5 163.5t-297.5 61q-209 0 -385.5 -103t-279.5 -279.5t-103 -385.5zM705 1735q0 11 7.5 18.5t18.5 7.5t19 -8t8 -18q0 -11 -8 -19t-19 -8q-10 0 -18 8t-8 19zM991 1735q0 10 8 18t19 8q10 0 18 -7.5t8 -18.5t-8 -19 t-18 -8t-18.5 8t-8.5 19z" />
<glyph unicode="&#xd7;" horiz-adv-x="1351" d="M82 25l569 569l-569 567l24 25l570 -568l569 568l25 -25l-570 -567l570 -569l-25 -25l-569 569l-570 -569z" />
<glyph unicode="&#xd8;" horiz-adv-x="1769" d="M82 768q0 217 108 402t293 293t402 108q160 0 303 -59t254 -166l186 190l25 -25l-187 -190q105 -108 163.5 -251t58.5 -302q0 -218 -107.5 -402.5t-292.5 -292.5t-403 -108q-157 0 -300.5 58.5t-252.5 162.5l-191 -186l-24 25l190 186q-106 112 -165.5 255t-59.5 302z M119 768q0 -153 55.5 -289.5t157.5 -242.5l1085 1085q-105 102 -242 158.5t-290 56.5q-155 0 -297 -61t-244.5 -163.5t-163.5 -245t-61 -298.5zM356 211q105 -99 242.5 -155t286.5 -56q208 0 384.5 103t279 279.5t102.5 385.5q0 152 -54.5 288t-154.5 240z" />
<glyph unicode="&#xd9;" horiz-adv-x="1431" d="M123 559v977h35v-977q0 -114 44 -217.5t119 -178.5t178.5 -119t217.5 -44q113 0 216 44t178 119t119 178.5t44 217.5v977h35v-977q0 -161 -79 -298t-215.5 -216.5t-297.5 -79.5t-298 79.5t-216.5 216.5t-79.5 298zM541 1708v53l350 -104v-19z" />
<glyph unicode="&#xda;" horiz-adv-x="1431" d="M123 559v977h35v-977q0 -114 44 -217.5t119 -178.5t178.5 -119t217.5 -44q113 0 216 44t178 119t119 178.5t44 217.5v977h35v-977q0 -161 -79 -298t-215.5 -216.5t-297.5 -79.5t-298 79.5t-216.5 216.5t-79.5 298zM541 1638v19l350 104v-53z" />
<glyph unicode="&#xdb;" horiz-adv-x="1431" d="M123 559v977h35v-977q0 -114 44 -217.5t119 -178.5t178.5 -119t217.5 -44q113 0 216 44t178 119t119 178.5t44 217.5v977h35v-977q0 -161 -79 -298t-215.5 -216.5t-297.5 -79.5t-298 79.5t-216.5 216.5t-79.5 298zM510 1636l207 207l207 -207l-23 -22l-184 184l-185 -184 z" />
<glyph unicode="&#xdc;" horiz-adv-x="1431" d="M123 559v977h35v-977q0 -113 44 -216.5t119 -178.5t178.5 -119.5t217.5 -44.5q113 0 216 44.5t178 119.5t119 178.5t44 216.5v977h35v-977q0 -161 -79.5 -298t-216 -216.5t-296.5 -79.5q-161 0 -298 79.5t-216.5 216.5t-79.5 298zM547 1735q0 11 7.5 18.5t18.5 7.5t19 -8 t8 -18q0 -11 -8 -19t-19 -8q-10 0 -18 8t-8 19zM834 1735q0 11 8 18.5t18 7.5q11 0 19 -8t8 -18q0 -11 -8.5 -19t-18.5 -8t-18 8t-8 19z" />
<glyph unicode="&#xdd;" horiz-adv-x="1300" d="M31 1536h45l575 -752l576 752h43l-600 -784v-752h-35v752zM475 1638v19l350 104v-53z" />
<glyph unicode="&#xde;" horiz-adv-x="1331" d="M123 0v1536h35v-190h688q170 0 290.5 -120.5t120.5 -289.5q0 -170 -120.5 -291t-290.5 -121h-688v-524h-35zM158 559h688q158 0 266.5 110t108.5 267q0 156 -108.5 265.5t-266.5 109.5h-688v-752z" />
<glyph unicode="&#xdf;" horiz-adv-x="1097" d="M123 0v1194q0 158 110.5 267.5t266.5 109.5t265 -109.5t109 -267.5q0 -112 -62.5 -205.5t-162.5 -136.5q155 -22 261 -142.5t106 -279.5q0 -178 -126 -304t-304 -126h-322v35h322q163 0 278 116t115 279q0 161 -115 276t-278 115h-322v33h244q138 5 234 103.5t96 236.5 q0 143 -98.5 242.5t-239.5 99.5t-241.5 -100t-100.5 -242v-1194h-35z" />
<glyph unicode="&#xe0;" horiz-adv-x="1460" d="M82 594q0 170 84 314.5t228.5 228.5t314.5 84q205 0 367 -116.5t227 -303.5v385h34v-1186h-34v387q-65 -187 -227.5 -304.5t-366.5 -117.5q-170 0 -314.5 84t-228.5 229t-84 316zM119 594q0 -161 79 -298t215 -216.5t296 -79.5q161 0 298 79.5t216.5 216.5t79.5 298 t-79.5 297.5t-216.5 215.5t-298 79q-160 0 -296 -79t-215 -215.5t-79 -297.5zM537 1516v55l350 -107v-16z" />
<glyph unicode="&#xe1;" horiz-adv-x="1460" d="M82 594q0 170 84 314.5t228.5 228.5t314.5 84q205 0 367 -116.5t227 -303.5v385h34v-1186h-34v387q-65 -187 -227.5 -304.5t-366.5 -117.5q-170 0 -314.5 84t-228.5 229t-84 316zM119 594q0 -161 79 -298t215 -216.5t296 -79.5q161 0 298 79.5t216.5 216.5t79.5 298 t-79.5 297.5t-216.5 215.5t-298 79q-160 0 -296 -79t-215 -215.5t-79 -297.5zM537 1448v16l350 107v-55z" />
<glyph unicode="&#xe2;" horiz-adv-x="1460" d="M82 594q0 170 84 314.5t228.5 228.5t314.5 84q205 0 367 -116.5t227 -303.5v385h34v-1186h-34v387q-65 -187 -227.5 -304.5t-366.5 -117.5q-170 0 -314.5 84t-228.5 229t-84 316zM119 594q0 -161 79 -298t215 -216.5t296 -79.5q161 0 298 79.5t216.5 216.5t79.5 298 t-79.5 297.5t-216.5 215.5t-298 79q-160 0 -296 -79t-215 -215.5t-79 -297.5zM502 1391l207 206l206 -206l-22 -23l-184 184l-185 -184z" />
<glyph unicode="&#xe3;" horiz-adv-x="1460" d="M82 594q0 170 84 314.5t228.5 228.5t314.5 84q205 0 367 -116.5t227 -303.5v385h34v-1186h-34v387q-65 -187 -227.5 -304.5t-366.5 -117.5q-170 0 -314.5 84t-228.5 229t-84 316zM119 594q0 -161 79 -298t215 -216.5t296 -79.5q161 0 298 79.5t216.5 216.5t79.5 298 t-79.5 297.5t-216.5 215.5t-298 79q-160 0 -296 -79t-215 -215.5t-79 -297.5zM467 1436q0 56 39.5 95.5t95.5 39.5q80 0 121 -76q30 -59 92 -59q40 0 70 29t30 71h35q0 -56 -40 -95.5t-95 -39.5q-80 0 -121 76q-10 26 -35.5 41.5t-56.5 15.5q-40 0 -70 -29t-30 -69h-35z" />
<glyph unicode="&#xe4;" horiz-adv-x="1460" d="M82 594q0 170 84 314.5t228.5 228.5t314.5 84q205 0 367 -116.5t227 -303.5v385h34v-1186h-34v387q-65 -187 -227.5 -304.5t-366.5 -117.5q-170 0 -314.5 84t-228.5 229t-84 316zM119 594q0 -161 79 -298t215 -216.5t296 -79.5q161 0 298 79.5t216.5 216.5t79.5 298 t-79.5 297.5t-216.5 215.5t-298 79q-160 0 -296 -79t-215 -215.5t-79 -297.5zM539 1544q0 11 8 19t18 8q11 0 19 -8.5t8 -18.5t-8 -18t-19 -8t-18.5 8t-7.5 18zM825 1544q0 10 8.5 18.5t18.5 8.5t18.5 -8.5t8.5 -18.5t-8 -18t-19 -8t-19 8t-8 18z" />
<glyph unicode="&#xe5;" horiz-adv-x="1460" d="M82 594q0 170 84 314.5t228.5 228.5t314.5 84q205 0 367 -116.5t227 -303.5v385h34v-1186h-34v387q-65 -187 -227.5 -304.5t-366.5 -117.5q-170 0 -314.5 84t-228.5 229t-84 316zM119 594q0 -161 79 -298t215 -216.5t296 -79.5q161 0 298 79.5t216.5 216.5t79.5 298 t-79.5 297.5t-216.5 215.5t-298 79q-160 0 -296 -79t-215 -215.5t-79 -297.5zM559 1489q0 61 45.5 105t108.5 44q60 0 104.5 -44t44.5 -105q0 -63 -44.5 -108.5t-104.5 -45.5q-63 0 -108.5 45.5t-45.5 108.5zM592 1489q0 -50 35 -85.5t86 -35.5q47 0 81.5 36t34.5 85 q0 48 -34.5 83.5t-81.5 35.5q-50 0 -85.5 -35.5t-35.5 -83.5z" />
<glyph unicode="&#xe6;" horiz-adv-x="2639" d="M82 594q0 170 84 314.5t228.5 228.5t314.5 84q205 0 367 -116.5t227 -303.5v385h34v-385q65 186 228 303t366 117q170 0 314.5 -84t228.5 -228.5t84 -314.5v-16h-1221q5 -159 85.5 -291.5t215.5 -209.5t293 -77q163 0 300.5 83t213.5 222l33 -16q-84 -148 -228.5 -236 t-318.5 -88q-203 0 -366 117.5t-228 304.5v-387h-34v387q-65 -187 -227.5 -304.5t-366.5 -117.5q-170 0 -314.5 84t-228.5 229t-84 316zM119 594q0 -161 79 -298t215 -216.5t296 -79.5q161 0 298 79.5t216.5 216.5t79.5 298t-79.5 297.5t-216.5 215.5t-298 79 q-160 0 -296 -79t-215 -215.5t-79 -297.5zM1337 610h1186q-5 158 -85.5 290.5t-215 209t-291.5 76.5q-159 0 -293.5 -76.5t-215 -208.5t-85.5 -291z" />
<glyph unicode="&#xe7;" horiz-adv-x="1230" d="M82 594q0 170 84 314.5t229 228.5t316 84q261 0 446 -185l-24 -24q-174 174 -422 174q-161 0 -297.5 -79t-215.5 -215.5t-79 -297.5t79 -298t215.5 -216.5t297.5 -79.5q248 0 422 174l24 -24q-90 -88 -204 -136.5t-242 -48.5h-11l-20 -78q30 6 63 -2q58 -17 84.5 -64.5 t12.5 -103.5q-15 -54 -64 -82.5t-104 -13.5q-53 14 -84 64l26 18q30 -55 93 -55q44 0 75 31.5t31 74.5t-31 74t-75 31q-33 0 -54 -15l-10 21l29 102q-122 7 -231 59.5t-188 135.5t-125 195.5t-46 236.5z" />
<glyph unicode="&#xe8;" d="M82 594q0 170 84.5 314.5t229.5 228.5t315 84q127 0 243 -49.5t200 -133.5t133.5 -200.5t49.5 -243.5v-16h-1220q5 -159 85.5 -291.5t215.5 -209.5t293 -77q163 0 300.5 83t213.5 222l32 -16q-84 -148 -228.5 -236t-317.5 -88q-170 0 -315 84.5t-229.5 229.5t-84.5 315z M117 610h1186q-5 158 -85.5 290.5t-215 209t-291.5 76.5q-159 0 -293.5 -76.5t-215 -208.5t-85.5 -291zM528 1516v55l351 -107v-16z" />
<glyph unicode="&#xe9;" d="M82 594q0 170 84.5 314.5t229.5 228.5t315 84q127 0 243 -49.5t200 -133.5t133.5 -200.5t49.5 -243.5v-16h-1220q5 -159 85.5 -291.5t215.5 -209.5t293 -77q163 0 300.5 83t213.5 222l32 -16q-84 -148 -228.5 -236t-317.5 -88q-170 0 -315 84.5t-229.5 229.5t-84.5 315z M117 610h1186q-5 158 -85.5 290.5t-215 209t-291.5 76.5q-159 0 -293.5 -76.5t-215 -208.5t-85.5 -291zM528 1448v16l351 107v-55z" />
<glyph unicode="&#xea;" d="M82 594q0 170 84.5 314.5t229.5 228.5t315 84q127 0 243 -49.5t200 -133.5t133.5 -200.5t49.5 -243.5v-16h-1220q5 -159 85.5 -291.5t215.5 -209.5t293 -77q163 0 300.5 83t213.5 222l32 -16q-84 -148 -228.5 -236t-317.5 -88q-170 0 -315 84.5t-229.5 229.5t-84.5 315z M117 610h1186q-5 158 -85.5 290.5t-215 209t-291.5 76.5q-159 0 -293.5 -76.5t-215 -208.5t-85.5 -291zM504 1391l207 206l207 -206l-23 -23l-184 184l-185 -184z" />
<glyph unicode="&#xeb;" d="M82 594q0 170 84.5 314.5t229.5 228.5t315 84q127 0 243 -49.5t200 -133.5t133.5 -200.5t49.5 -243.5v-16h-1220q5 -159 85.5 -291.5t215.5 -209.5t293 -77q163 0 300.5 83t213.5 222l32 -16q-84 -148 -228.5 -236t-317.5 -88q-170 0 -315 84.5t-229.5 229.5t-84.5 315z M117 610h1186q-5 158 -85.5 290.5t-215 209t-291.5 76.5q-159 0 -293.5 -76.5t-215 -208.5t-85.5 -291zM541 1544q0 11 8 19t18 8q11 0 19 -8.5t8 -18.5t-8 -18t-19 -8t-18.5 8t-7.5 18zM827 1544q0 10 8.5 18.5t18.5 8.5t18.5 -8.5t8.5 -18.5t-8 -18t-19 -8t-19 8t-8 18z " />
<glyph unicode="&#xec;" horiz-adv-x="280" d="M-35 1516v55l350 -107v-16zM123 0v1186h35v-1186h-35z" />
<glyph unicode="&#xed;" horiz-adv-x="280" d="M-35 1448v16l350 107v-55zM123 0v1186h35v-1186h-35z" />
<glyph unicode="&#xee;" horiz-adv-x="278" d="M-68 1391l207 206l207 -206l-22 -23l-185 184l-184 -184zM123 0v1186h35v-1186h-35z" />
<glyph unicode="&#xef;" horiz-adv-x="278" d="M-31 1544q0 10 8.5 18.5t18.5 8.5t18.5 -8.5t8.5 -18.5t-8 -18t-19 -8t-19 8t-8 18zM123 0v1186h35v-1186h-35zM256 1544q0 10 8 18.5t19 8.5q10 0 18 -8t8 -19q0 -10 -7.5 -18t-18.5 -8t-19 8t-8 18z" />
<glyph unicode="&#xf0;" horiz-adv-x="1384" d="M82 575q0 165 81.5 306t222 223t306.5 82q134 0 264 -60l-243 246l-213 -59l-11 35l193 53l-135 135h49l125 -125l213 62l6 -35l-190 -54l376 -378q84 -82 130.5 -194.5t46.5 -236.5q0 -166 -81.5 -306.5t-222.5 -222t-307 -81.5t-306.5 81.5t-222 222t-81.5 306.5z M119 575q0 -117 45.5 -223.5t122 -184t182.5 -123.5t223 -46q156 0 288 77.5t209 210.5t77 289q0 117 -43.5 223t-120.5 183q-81 81 -186.5 125.5t-223.5 44.5q-156 0 -288 -77.5t-208.5 -210t-76.5 -288.5z" />
<glyph unicode="&#xf1;" horiz-adv-x="1257" d="M123 0v1186h35v-285q56 140 196 230t301 90q209 0 344.5 -135.5t135.5 -344.5v-741h-35v741q0 193 -126 319t-319 126q-129 0 -243.5 -63t-184 -171.5t-69.5 -234.5v-717h-35zM414 1436q0 56 40 95.5t95 39.5q80 0 121 -76q30 -59 92 -59q40 0 70 29t30 71h35 q0 -56 -39.5 -95.5t-95.5 -39.5q-80 0 -121 76q-10 26 -35.5 41.5t-56.5 15.5q-40 0 -70 -29t-30 -69h-35z" />
<glyph unicode="&#xf2;" d="M82 594q0 170 84 314.5t228.5 228.5t314.5 84q171 0 315.5 -84t228.5 -228.5t84 -314.5q0 -171 -84 -316t-228.5 -229t-315.5 -84q-170 0 -314.5 84t-228.5 229t-84 316zM119 594q0 -161 79 -298t215 -216.5t296 -79.5q121 0 230.5 47t188.5 126.5t125.5 189.5t46.5 231 q0 161 -79 297.5t-215 215.5t-297 79q-160 0 -296 -79t-215 -215.5t-79 -297.5zM535 1516v55l350 -107v-16z" />
<glyph unicode="&#xf3;" d="M82 594q0 170 84 314.5t228.5 228.5t314.5 84q171 0 315.5 -84t228.5 -228.5t84 -314.5q0 -171 -84 -316t-228.5 -229t-315.5 -84q-170 0 -314.5 84t-228.5 229t-84 316zM119 594q0 -161 79 -298t215 -216.5t296 -79.5q121 0 230.5 47t188.5 126.5t125.5 189.5t46.5 231 q0 161 -79 297.5t-215 215.5t-297 79q-160 0 -296 -79t-215 -215.5t-79 -297.5zM535 1448v16l350 107v-55z" />
<glyph unicode="&#xf4;" d="M82 594q0 170 84 314.5t228.5 228.5t314.5 84q171 0 315.5 -84t228.5 -228.5t84 -314.5q0 -171 -84 -316t-228.5 -229t-315.5 -84q-170 0 -314.5 84t-228.5 229t-84 316zM119 594q0 -161 79 -298t215 -216.5t296 -79.5q121 0 230.5 47t188.5 126.5t125.5 189.5t46.5 231 q0 161 -79 297.5t-215 215.5t-297 79q-160 0 -296 -79t-215 -215.5t-79 -297.5zM502 1391l207 206l206 -206l-22 -23l-184 184l-185 -184z" />
<glyph unicode="&#xf5;" d="M82 594q0 170 84 314.5t228.5 228.5t314.5 84q171 0 315.5 -84t228.5 -228.5t84 -314.5q0 -171 -84 -316t-228.5 -229t-315.5 -84q-170 0 -314.5 84t-228.5 229t-84 316zM119 594q0 -161 79 -298t215 -216.5t296 -79.5q121 0 230.5 47t188.5 126.5t125.5 189.5t46.5 231 q0 161 -79 297.5t-215 215.5t-297 79q-160 0 -296 -79t-215 -215.5t-79 -297.5zM467 1436q0 56 39.5 95.5t95.5 39.5q80 0 121 -76q30 -59 92 -59q40 0 70 29t30 71h35q0 -56 -40 -95.5t-95 -39.5q-80 0 -121 76q-10 26 -35.5 41.5t-56.5 15.5q-40 0 -70 -29t-30 -69h-35z " />
<glyph unicode="&#xf6;" d="M82 594q0 170 84 314.5t228.5 228.5t314.5 84q171 0 315.5 -84t228.5 -228.5t84 -314.5q0 -171 -84 -316t-228.5 -229t-315.5 -84q-170 0 -314.5 84t-228.5 229t-84 316zM119 594q0 -161 79 -298t215 -216.5t296 -79.5q121 0 230.5 47t188.5 126.5t125.5 189.5t46.5 231 q0 161 -79 297.5t-215 215.5t-297 79q-160 0 -296 -79t-215 -215.5t-79 -297.5zM539 1544q0 11 8 19t18 8q11 0 19 -8.5t8 -18.5t-8 -18t-19 -8t-18.5 8t-7.5 18zM825 1544q0 10 8.5 18.5t18.5 8.5t18.5 -8.5t8.5 -18.5t-8 -18t-19 -8t-19 8t-8 18z" />
<glyph unicode="&#xf7;" horiz-adv-x="1390" d="M102 575v35h1186v-35h-1186zM664 14q0 14 9.5 23.5t22.5 9.5q12 0 21.5 -10t9.5 -23q0 -12 -9.5 -21t-21.5 -9q-13 0 -22.5 9t-9.5 21zM664 1169q0 12 9.5 22.5t22.5 10.5q12 0 21.5 -10.5t9.5 -22.5t-9.5 -22t-21.5 -10q-13 0 -22.5 10t-9.5 22z" />
<glyph unicode="&#xf8;" horiz-adv-x="1435" d="M90 594q0 170 84.5 314.5t229.5 228.5t315 84q253 0 434 -172l147 149l25 -24l-147 -150q79 -85 123.5 -196t44.5 -234q0 -171 -84 -316t-228.5 -229t-314.5 -84q-252 0 -430 172l-139 -137l-25 25l139 137q-82 85 -128 197t-46 235zM127 594q0 -117 42.5 -222.5 t119.5 -185.5l839 838q-177 162 -409 162q-161 0 -297.5 -79t-215.5 -215.5t-79 -297.5zM313 162q80 -76 185 -119t221 -43q161 0 297 79.5t214.5 216t78.5 298.5q0 236 -156 405z" />
<glyph unicode="&#xf9;" horiz-adv-x="1257" d="M123 444v742h35v-742q0 -194 125 -319t319 -125q129 0 244 62.5t184.5 171.5t69.5 235v717h35v-1186h-35v285q-55 -139 -196 -229.5t-302 -90.5q-209 0 -344 135t-135 344zM455 1516v55l350 -107v-16z" />
<glyph unicode="&#xfa;" horiz-adv-x="1257" d="M123 444v742h35v-742q0 -194 125 -319t319 -125q129 0 244 62.5t184.5 171.5t69.5 235v717h35v-1186h-35v285q-55 -139 -196 -229.5t-302 -90.5q-209 0 -344 135t-135 344zM455 1448v16l350 107v-55z" />
<glyph unicode="&#xfb;" horiz-adv-x="1257" d="M123 444v742h35v-742q0 -194 125 -319t319 -125q129 0 244 62.5t184.5 171.5t69.5 235v717h35v-1186h-35v285q-55 -139 -196 -229.5t-302 -90.5q-209 0 -344 135t-135 344zM424 1391l207 206l207 -206l-23 -23l-184 184l-185 -184z" />
<glyph unicode="&#xfc;" horiz-adv-x="1257" d="M123 444v742h35v-742q0 -194 125 -319t319 -125q129 0 244 62.5t184.5 171.5t69.5 235v717h35v-1186h-35v285q-55 -139 -196 -229.5t-302 -90.5q-209 0 -344 135t-135 344zM459 1544q0 11 8 19t18 8q11 0 19 -8.5t8 -18.5t-8 -18t-19 -8t-18.5 8t-7.5 18zM745 1544 q0 10 8.5 18.5t18.5 8.5t18.5 -8.5t8.5 -18.5t-8 -18t-19 -8t-19 8t-8 18z" />
<glyph unicode="&#xfd;" horiz-adv-x="1191" d="M31 1186h39l524 -1141l528 1141h39l-710 -1536h-39l163 354zM420 1448v16l350 107v-55z" />
<glyph unicode="&#xfe;" horiz-adv-x="1462" d="M123 -350v1886h35v-735q65 187 228 303.5t366 116.5q127 0 243.5 -49.5t200.5 -133.5t134 -200.5t50 -243.5q0 -128 -50 -244.5t-134 -201t-200 -134t-244 -49.5q-203 0 -366 117.5t-228 304.5v-737h-35zM158 594q0 -161 79.5 -298t216.5 -216.5t298 -79.5 q120 0 229.5 47t188.5 126.5t126 189.5t47 231t-47 230.5t-126 189t-188.5 126t-229.5 46.5q-161 0 -298 -79t-216.5 -215.5t-79.5 -297.5z" />
<glyph unicode="&#xff;" horiz-adv-x="1191" d="M31 1186h39l524 -1141l526 1141h41l-710 -1536h-37l164 354zM424 1524q0 10 8 18t19 8q12 0 20 -7.5t8 -18.5t-8 -19t-20 -8q-11 0 -19 8.5t-8 18.5zM711 1524q0 10 7.5 18t18.5 8t19 -8t8 -18t-8 -18.5t-19 -8.5q-10 0 -18 8t-8 19z" />
<glyph unicode="&#x152;" horiz-adv-x="2828" d="M72 768q0 163 63.5 311.5t170.5 256t256 171.5t312 64q177 0 335 -73.5t270 -203t163 -293.5v535h1115v-35h-1080v-715h942v-34h-942v-717h1080v-35h-1115v535q-51 -164 -163 -293.5t-270 -203t-335 -73.5q-163 0 -312 64t-256 171.5t-170.5 256t-63.5 311.5zM109 768 q0 -209 102 -385.5t278.5 -279.5t384.5 -103q155 0 297.5 61t245.5 163.5t164 245t61 298.5t-61 298.5t-164 245t-245.5 163.5t-297.5 61q-208 0 -384.5 -103t-278.5 -279.5t-102 -385.5z" />
<glyph unicode="&#x153;" horiz-adv-x="2639" d="M82 594q0 170 84 314.5t228.5 228.5t314.5 84q220 0 390 -136.5t220 -345.5q52 210 222 346t390 136q170 0 314.5 -84t228.5 -228.5t84 -314.5v-16h-1221q5 -159 85.5 -291.5t215.5 -209.5t293 -77q163 0 300.5 83t213.5 222l33 -16q-84 -148 -228.5 -236t-318.5 -88 q-220 0 -390 136.5t-222 344.5q-50 -209 -220 -345t-390 -136q-170 0 -314.5 84t-228.5 229t-84 316zM119 594q0 -161 79 -298t215 -216.5t296 -79.5q121 0 230.5 47t188.5 126.5t125.5 189.5t46.5 231q0 161 -79 297.5t-215 215.5t-297 79q-160 0 -296 -79t-215 -215.5 t-79 -297.5zM1337 610h1186q-5 158 -85.5 290.5t-215 209t-291.5 76.5q-159 0 -293.5 -76.5t-215 -208.5t-85.5 -291z" />
<glyph unicode="&#x178;" horiz-adv-x="1300" d="M31 1536h45l575 -752l576 752h43l-600 -784v-752h-35v752zM481 1735q0 10 8 18t19 8q12 0 20.5 -7.5t8.5 -18.5q0 -12 -8.5 -20.5t-20.5 -8.5q-11 0 -19 8.5t-8 20.5zM768 1735q0 10 8 18t19 8t18.5 -7.5t7.5 -18.5q0 -12 -7.5 -20.5t-18.5 -8.5t-19 8.5t-8 20.5z" />
<glyph unicode="&#x2c6;" horiz-adv-x="823" d="M205 1391l207 206l206 -206l-22 -23l-184 184l-185 -184z" />
<glyph unicode="&#x2dc;" horiz-adv-x="892" d="M205 1436q0 56 39.5 95.5t95.5 39.5q80 0 121 -76q30 -59 92 -59q40 0 70 29t30 71h35q0 -56 -40 -95.5t-95 -39.5q-80 0 -121 76q-10 26 -35.5 41.5t-56.5 15.5q-40 0 -70 -29t-30 -69h-35z" />
<glyph unicode="&#x2000;" horiz-adv-x="983" />
<glyph unicode="&#x2001;" horiz-adv-x="1966" />
<glyph unicode="&#x2002;" horiz-adv-x="983" />
<glyph unicode="&#x2003;" horiz-adv-x="1966" />
<glyph unicode="&#x2004;" horiz-adv-x="655" />
<glyph unicode="&#x2005;" horiz-adv-x="491" />
<glyph unicode="&#x2006;" horiz-adv-x="327" />
<glyph unicode="&#x2007;" horiz-adv-x="327" />
<glyph unicode="&#x2008;" horiz-adv-x="245" />
<glyph unicode="&#x2009;" horiz-adv-x="393" />
<glyph unicode="&#x200a;" horiz-adv-x="109" />
<glyph unicode="&#x2010;" horiz-adv-x="950" d="M143 578v34h664v-34h-664z" />
<glyph unicode="&#x2011;" horiz-adv-x="950" d="M143 578v34h664v-34h-664z" />
<glyph unicode="&#x2012;" horiz-adv-x="950" d="M143 578v34h664v-34h-664z" />
<glyph unicode="&#x2013;" horiz-adv-x="1196" d="M92 578v34h1012v-34h-1012z" />
<glyph unicode="&#x2014;" horiz-adv-x="1720" d="M92 575v35h1536v-35h-1536z" />
<glyph unicode="&#x2018;" horiz-adv-x="286" d="M102 1343v144q0 26 18 44.5t44 18.5h8v-34h-8q-11 0 -20 -8.5t-9 -20.5v-101h6q19 0 31 -12t12 -31q0 -16 -12.5 -28t-30.5 -12q-17 0 -28 12t-11 28z" />
<glyph unicode="&#x2019;" horiz-adv-x="286" d="M102 1509q0 16 12.5 28.5t30.5 12.5q17 0 28 -12.5t11 -28.5v-143q0 -26 -17.5 -44.5t-43.5 -18.5h-8v34h8q11 0 20 8.5t9 20.5v100h-7q-19 0 -31 12t-12 31z" />
<glyph unicode="&#x201a;" horiz-adv-x="245" d="M102 27q0 16 12.5 28.5t30.5 12.5q17 0 28 -12.5t11 -28.5v-144q0 -26 -17.5 -44.5t-43.5 -18.5h-8v35h8q11 0 20 8t9 20v101h-7q-19 0 -31 12t-12 31z" />
<glyph unicode="&#x201c;" horiz-adv-x="364" d="M102 1343v144q0 26 18 44.5t44 18.5h8v-34h-8q-11 0 -20 -8.5t-9 -20.5v-101h6q19 0 31 -12t12 -31q0 -16 -12.5 -28t-30.5 -12q-17 0 -28 12t-11 28zM221 1343v144q0 26 18 44.5t44 18.5h8v-34h-8q-11 0 -20 -8.5t-9 -20.5v-101h6q19 0 31 -12t12 -31q0 -16 -12.5 -28 t-30.5 -12q-17 0 -28 12t-11 28z" />
<glyph unicode="&#x201d;" horiz-adv-x="364" d="M61 1509q0 16 12.5 28.5t30.5 12.5q17 0 28 -12.5t11 -28.5v-143q0 -26 -17.5 -44.5t-43.5 -18.5h-8v34h8q11 0 20 8.5t9 20.5v100h-7q-19 0 -31 12t-12 31zM180 1509q0 16 12.5 28.5t30.5 12.5q17 0 28 -12.5t11 -28.5v-143q0 -26 -17.5 -44.5t-43.5 -18.5h-8v34h8 q11 0 19.5 8.5t8.5 20.5v100h-6q-19 0 -31 12t-12 31z" />
<glyph unicode="&#x201e;" horiz-adv-x="364" d="M61 27q0 16 12.5 28.5t30.5 12.5q17 0 28 -12.5t11 -28.5v-144q0 -26 -17.5 -44.5t-43.5 -18.5h-8v35h8q11 0 20 8t9 20v101h-7q-19 0 -31 12t-12 31zM180 27q0 16 12.5 28.5t30.5 12.5q17 0 28 -12.5t11 -28.5v-144q0 -26 -17.5 -44.5t-43.5 -18.5h-8v35h8q11 0 19.5 8 t8.5 20v101h-6q-19 0 -31 12t-12 31z" />
<glyph unicode="&#x2022;" horiz-adv-x="550" d="M205 594q0 29 20.5 48.5t50.5 19.5q28 0 49 -19.5t21 -48.5q0 -30 -21 -50t-49 -20q-30 0 -50.5 20t-20.5 50z" />
<glyph unicode="&#x2026;" horiz-adv-x="1093" d="M72 27q0 17 12 29t29 12t29 -12t12 -29t-12 -29t-29 -12t-29 12t-12 29zM506 27q0 17 12 29t29 12t29 -12t12 -29t-12 -29t-29 -12t-29 12t-12 29zM940 27q0 17 12 29t29 12t29 -12t12 -29t-12 -29t-29 -12t-29 12t-12 29z" />
<glyph unicode="&#x202f;" horiz-adv-x="393" />
<glyph unicode="&#x2039;" horiz-adv-x="495" d="M82 594l332 332v-49l-283 -283l283 -285v-49z" />
<glyph unicode="&#x203a;" horiz-adv-x="495" d="M82 260v49l283 285l-283 283v49l332 -332z" />
<glyph unicode="&#x205f;" horiz-adv-x="491" />
<glyph unicode="&#x20ac;" horiz-adv-x="1480" d="M72 610v35h182q-8 52 -8 123q0 69 8 121h-182v37h186q46 284 215 464.5t418 180.5q168 0 290.5 -78.5t217.5 -226.5l-31 -19q-90 141 -204.5 215t-272.5 74q-157 0 -284 -81t-204.5 -217t-107.5 -312h962v-37h-968q-6 -58 -6 -121q0 -64 6 -123h794v-35h-788 q22 -132 73 -243t125.5 -193t176.5 -128t221 -46q158 0 272.5 74t204.5 215l31 -19q-95 -148 -217 -226.5t-291 -78.5q-249 0 -418 180.5t-215 464.5h-186z" />
<glyph unicode="&#x2122;" horiz-adv-x="741" d="M82 1522v14h240v-14h-113v-293h-12v293h-115zM350 1229v307h15l139 -291l139 291h16v-307h-16v274l-133 -274h-12l-133 274v-274h-15z" />
<glyph unicode="&#x25fc;" horiz-adv-x="1187" d="M0 0v1188h1188v-1188h-1188z" />
<glyph unicode="&#xfb01;" horiz-adv-x="962" d="M41 1151v35h137v125q0 108 77.5 184t186.5 76q120 0 191 -84l-25 -25q-69 76 -166 76q-95 0 -162 -66.5t-67 -160.5v-125h627v-1186h-35v1151h-592v-1151h-35v1151h-137zM797 1544q0 11 8 19t18 8q11 0 19 -8.5t8 -18.5t-8 -18t-19 -8t-18.5 8t-7.5 18z" />
<glyph unicode="&#xfb02;" horiz-adv-x="962" d="M41 1153v33h139v69q0 117 81.5 199t197.5 82h381v-1536h-35v1499h-346q-100 0 -172 -71.5t-72 -172.5v-69h350v-33h-350v-1153h-35v1153h-139z" />
<glyph unicode="&#xfb03;" horiz-adv-x="1591" d="M41 1151v35h137v125q0 108 77.5 184t186.5 76q120 0 191 -84l-25 -25q-69 76 -166 76q-95 0 -162 -66.5t-67 -160.5v-125h594v125q0 108 77.5 184t186.5 76q120 0 191 -84l-25 -25q-69 76 -166 76q-95 0 -162 -66.5t-67 -160.5v-125h626v-1186h-34v1151h-592v-1151h-35 v1151h-594v-1151h-35v1151h-137zM1425 1544q0 10 8.5 18.5t18.5 8.5t18.5 -8.5t8.5 -18.5t-8 -18t-19 -8t-19 8t-8 18z" />
<glyph unicode="&#xfb04;" horiz-adv-x="1587" d="M41 1151v35h137v125q0 108 77.5 184t186.5 76q120 0 191 -84l-25 -25q-69 76 -166 76q-95 0 -162 -66.5t-67 -160.5v-125h592v69q0 117 81 199t197 82h381v-1536h-34v1499h-347q-100 0 -171.5 -71.5t-71.5 -172.5v-69h350v-33h-350v-1153h-35v1153h-105v-2h-487v-1151 h-35v1151h-137z" />
</font>
</defs>
</svg>
